SplineFontDB: 3.2
FontName: Estedad-Medium
FullName: Estedad Medium
FamilyName: Estedad Medium
Weight: Medium
Copyright: Copyright (c) 2020 by Amin Abedi (@aminabedi68)-www.fontamin.com,\nwith Reserved Font Name Estedad.\n\nThis Font Software is licensed under the SIL Open Font License, Version 1.1.
Version: 5.0
ItalicAngle: 0
UnderlinePosition: -750
UnderlineWidth: 150
Ascent: 1488
Descent: 560
InvalidEm: 0
LayerCount: 2
Layer: 0 0 "Back" 1
Layer: 1 0 "Estedad" 0
StyleMap: 0x0040
FSType: 0
OS2Version: 0
OS2_WeightWidthSlopeOnly: 0
OS2_UseTypoMetrics: 0
CreationTime: 1606826196
ModificationTime: 1606845978
PfmFamily: 16
TTFWeight: 500
TTFWidth: 5
LineGap: 0
VLineGap: 0
OS2TypoAscent: 2400
OS2TypoAOffset: 0
OS2TypoDescent: -1200
OS2TypoDOffset: 0
OS2TypoLinegap: 0
OS2WinAscent: 2400
OS2WinAOffset: 0
OS2WinDescent: 1200
OS2WinDOffset: 0
HheadAscent: 2400
HheadAOffset: 0
HheadDescent: -1200
HheadDOffset: 0
OS2CapHeight: 1500
OS2XHeight: 1090
OS2Vendor: 'amin'
Lookup: 4 0 0 "'ccmp' Glyph Composition Decomposition lookup 0" { "'ccmp' Glyph Composition Decomposition lookup 0 subtable"  } ['ccmp' ('DFLT' <'dflt' > 'arab' <'FAR ' 'MLY ' 'SND ' 'URD ' 'dflt' > ) ]
Lookup: 1 1 0 "'locl' Localized Forms in Arabic lookup 5" { "'locl' Localized Forms in Arabic lookup 5 subtable"  } ['locl' ('arab' <'URD ' > ) ]
Lookup: 1 1 0 "'locl' Localized Forms in Arabic lookup 6" { "'locl' Localized Forms in Arabic lookup 6 subtable"  } ['locl' ('arab' <'FAR ' > ) ]
Lookup: 1 0 0 "Single Substitution 1" { "Single Substitution 1 subtable"  } []
Lookup: 1 0 0 "Single Substitution 2" { "Single Substitution 2 subtable"  } []
Lookup: 1 9 0 "'isol' Isolated Forms in Arabic lookup 11" { "'isol' Isolated Forms in Arabic lookup 11 subtable"  } ['isol' ('DFLT' <'dflt' > 'arab' <'FAR ' 'MLY ' 'SND ' 'URD ' 'dflt' > ) ]

StartChar: A
Encoding: 65 65 0
GlifName: A_
Width: 1312
VWidth: 0
GlyphClass: 2
Flags: HW
LayerCount: 2
Fore
SplineSet
374 362 m 257
 246 0 l 257
 5 0 l 257
 531 1418 l 257
 784 1418 l 257
 1307 0 l 257
 1068 0 l 257
 940 362 l 257
 374 362 l 257
432 541 m 257
 882 541 l 257
 658 1170 l 257
 432 541 l 257
EndSplineSet
Substitution2: "'c2sc' Capitals to Small Capitals in Latin lookup 0 subtable" uni1D00
EndChar

StartChar: AE
Encoding: 198 198 1
GlifName: A_E_
Width: 1631
VWidth: 0
GlyphClass: 2
Flags: HW
LayerCount: 2
Fore
SplineSet
770 1225 m 257
 718 1225 l 257
 474 583 l 257
 770 583 l 257
 770 1225 l 257
586 1418 m 257
 1550 1418 l 257
 1550 1225 l 257
 996 1225 l 257
 996 799 l 257
 1495 799 l 257
 1495 618 l 257
 996 618 l 257
 996 191 l 257
 1550 191 l 257
 1550 0 l 257
 770 0 l 257
 770 405 l 257
 409 405 l 257
 256 0 l 257
 17 0 l 257
 586 1418 l 257
EndSplineSet
EndChar

StartChar: Arabic_Double_Dot_H.alt
Encoding: 1114113 -1 11
GlifName: A_rabic_D_ouble_D_ot_H_.alt
Width: 758
VWidth: 0
GlyphClass: 2
Flags: HW
LayerCount: 2
Fore
SplineSet
370 104 m 257
 493 226 l 257
 616 104 l 257
 493 -19 l 257
 370 104 l 257
133 104 m 257
 256 226 l 257
 379 104 l 257
 256 -19 l 257
 133 104 l 257
EndSplineSet
EndChar

StartChar: Arabic_Double_Dot_V.alt
Encoding: 1114115 -1 13
GlifName: A_rabic_D_ouble_D_ot_V_.alt
Width: 497
VWidth: 0
GlyphClass: 2
Flags: HW
LayerCount: 2
Fore
SplineSet
244 230 m 257
 121 353 l 257
 244 475 l 257
 367 353 l 257
 244 230 l 257
244 -7 m 257
 121 116 l 257
 244 238 l 257
 367 116 l 257
 244 -7 l 257
EndSplineSet
EndChar

StartChar: Arabic_Single_Dot
Encoding: 1114117 -1 15
GlifName: A_rabic_S_ingle_D_ot
Width: 514
VWidth: 0
GlyphClass: 2
Flags: HW
LayerCount: 2
Fore
SplineSet
95 155 m 257
 258 318 l 257
 420 155 l 257
 258 -8 l 257
 95 155 l 257
EndSplineSet
EndChar

StartChar: Arabic_Single_Dot.alt
Encoding: 1114118 -1 16
GlifName: A_rabic_S_ingle_D_ot.alt
Width: 419
VWidth: 0
GlyphClass: 2
Flags: HW
LayerCount: 2
Fore
SplineSet
71 139 m 257
 210 277 l 257
 348 139 l 257
 210 0 l 257
 71 139 l 257
EndSplineSet
EndChar

StartChar: B
Encoding: 66 66 23
GlifName: B_
Width: 1294
VWidth: 0
GlyphClass: 2
Flags: HW
LayerCount: 2
Fore
SplineSet
151 1418 m 257
 706 1418 l 258
 966 1418 1135 1279 1135 1026 c 256
 1135 883 1070 774 957 717 c 257
 1095 669 1188 540 1188 373 c 256
 1188 117 1024 0 752 0 c 258
 151 0 l 257
 151 1418 l 257
376 1225 m 257
 376 797 l 257
 680 797 l 258
 821 797 909 874 909 1012 c 256
 909 1149 822 1225 680 1225 c 258
 376 1225 l 257
376 625 m 257
 376 191 l 257
 736 191 l 258
 877 191 965 269 965 407 c 256
 965 544 878 625 736 625 c 258
 376 625 l 257
EndSplineSet
Substitution2: "'c2sc' Capitals to Small Capitals in Latin lookup 0 subtable" uni0299
EndChar

StartChar: C
Encoding: 67 67 24
GlifName: C_
Width: 1411
VWidth: 0
GlyphClass: 2
Flags: HW
LayerCount: 2
Fore
SplineSet
332 708 m 256
 332 386 462 182 722 182 c 256
 916 182 1031 307 1063 454 c 257
 1296 446 l 257
 1268 212 1054 -11 724 -11 c 256
 335 -11 107 272 107 708 c 256
 107 1144 335 1429 724 1429 c 256
 1054 1429 1268 1206 1296 972 c 257
 1063 962 l 257
 1031 1109 916 1236 722 1236 c 256
 462 1236 332 1030 332 708 c 256
EndSplineSet
Substitution2: "'c2sc' Capitals to Small Capitals in Latin lookup 0 subtable" uni1D04
EndChar

StartChar: D
Encoding: 68 68 30
GlifName: D_
Width: 1382
VWidth: 0
GlyphClass: 2
Flags: HW
LayerCount: 2
Fore
SplineSet
1266 708 m 256
 1266 320 1070 0 623 0 c 258
 173 0 l 257
 173 1418 l 257
 623 1418 l 258
 1070 1418 1266 1096 1266 708 c 256
1040 708 m 256
 1040 1036 919 1225 623 1225 c 258
 397 1225 l 257
 397 191 l 257
 623 191 l 258
 919 191 1040 379 1040 708 c 256
EndSplineSet
Substitution2: "'c2sc' Capitals to Small Capitals in Latin lookup 0 subtable" uni1D05
EndChar

StartChar: E
Encoding: 69 69 33
GlifName: E_
Width: 1096
VWidth: 0
GlyphClass: 2
Flags: HW
LayerCount: 2
Fore
SplineSet
1039 191 m 257
 1039 0 l 257
 173 0 l 257
 173 1418 l 257
 1039 1418 l 257
 1039 1225 l 257
 397 1225 l 257
 397 799 l 257
 984 799 l 257
 984 618 l 257
 397 618 l 257
 397 191 l 257
 1039 191 l 257
EndSplineSet
Substitution2: "'c2sc' Capitals to Small Capitals in Latin lookup 0 subtable" uni1D07
EndChar

StartChar: Eng
Encoding: 330 330 42
GlifName: E_ng
Width: 1434
VWidth: 0
GlyphClass: 2
Flags: HW
LayerCount: 2
Fore
SplineSet
196 1418 m 257
 422 1418 l 257
 422 0 l 257
 196 0 l 257
 196 1418 l 257
851 1429 m 256
 1179 1429 1319 1223 1319 880 c 258
 1319 269 l 258
 1319 67 1179 -11 1007 -11 c 256
 938 -11 867 2 804 25 c 257
 836 175 l 257
 869 167 910 161 947 161 c 256
 1042 161 1095 204 1095 295 c 258
 1095 880 l 258
 1095 1093 998 1227 780 1227 c 256
 566 1227 446 1070 421 860 c 257
 355 860 l 257
 390 1196 550 1429 851 1429 c 256
EndSplineSet
EndChar

StartChar: F
Encoding: 70 70 46
GlifName: F_
Width: 1090
VWidth: 0
GlyphClass: 2
Flags: HW
LayerCount: 2
Fore
SplineSet
397 0 m 257
 173 0 l 257
 173 1418 l 257
 1039 1418 l 257
 1039 1225 l 257
 397 1225 l 257
 397 753 l 257
 947 753 l 257
 947 574 l 257
 397 574 l 257
 397 0 l 257
EndSplineSet
Substitution2: "'c2sc' Capitals to Small Capitals in Latin lookup 0 subtable" uniA730
EndChar

StartChar: G
Encoding: 71 71 47
GlifName: G_
Width: 1452
VWidth: 0
GlyphClass: 2
Flags: HW
LayerCount: 2
Fore
SplineSet
710 753 m 257
 1340 753 l 257
 1340 221 l 257
 1219 73 1017 -12 775 -12 c 256
 363 -12 108 262 108 706 c 256
 108 1143 362 1429 747 1429 c 256
 1000 1429 1197 1289 1285 1046 c 257
 1108 976 l 257
 1049 1140 915 1236 746 1236 c 256
 487 1236 335 1039 335 706 c 256
 335 360 484 183 778 183 c 256
 895 183 1051 224 1115 272 c 257
 1115 574 l 257
 710 574 l 257
 710 753 l 257
EndSplineSet
Substitution2: "'c2sc' Capitals to Small Capitals in Latin lookup 0 subtable" uni0262
EndChar

StartChar: GAFbar
Encoding: 1114122 -1 48
GlifName: G_A_F_bar
Width: 1087
VWidth: 0
GlyphClass: 2
Flags: HW
LayerCount: 2
Fore
SplineSet
848 2083 m 257
 876 1964 l 257
 612 1902 341 1791 109 1647 c 257
 44 1752 l 257
 288 1902 569 2017 848 2083 c 257
EndSplineSet
EndChar

StartChar: H
Encoding: 72 72 53
GlifName: H_
Width: 1438
VWidth: 0
GlyphClass: 2
Flags: HW
LayerCount: 2
Fore
SplineSet
1041 1418 m 257
 1265 1418 l 257
 1265 0 l 257
 1041 0 l 257
 1041 618 l 257
 397 618 l 257
 397 0 l 257
 173 0 l 257
 173 1418 l 257
 397 1418 l 257
 397 800 l 257
 1041 800 l 257
 1041 1418 l 257
EndSplineSet
Substitution2: "'c2sc' Capitals to Small Capitals in Latin lookup 0 subtable" uni029C
EndChar

StartChar: I
Encoding: 73 73 63
GlifName: I_
Width: 646
VWidth: 0
GlyphClass: 2
Flags: HW
LayerCount: 2
Fore
SplineSet
436 0 m 257
 210 0 l 257
 210 1418 l 257
 436 1418 l 257
 436 0 l 257
EndSplineSet
Substitution2: "'c2sc' Capitals to Small Capitals in Latin lookup 0 subtable" uni026A
EndChar

StartChar: J
Encoding: 74 74 74
GlifName: J_
Width: 759
VWidth: 0
GlyphClass: 2
Flags: HW
LayerCount: 2
Fore
SplineSet
73 25 m 257
 105 175 l 257
 138 167 180 161 217 161 c 256
 312 161 364 204 364 295 c 258
 364 1418 l 257
 588 1418 l 257
 588 269 l 258
 588 67 448 -11 276 -11 c 256
 207 -11 136 2 73 25 c 257
EndSplineSet
Substitution2: "'c2sc' Capitals to Small Capitals in Latin lookup 0 subtable" uni1D0A
EndChar

StartChar: K
Encoding: 75 75 76
GlifName: K_
Width: 1309
VWidth: 0
GlyphClass: 2
Flags: HW
LayerCount: 2
Fore
SplineSet
1017 1418 m 257
 1285 1418 l 257
 683 708 l 257
 1285 0 l 257
 1017 0 l 257
 500 631 l 257
 397 631 l 257
 397 0 l 257
 173 0 l 257
 173 1418 l 257
 397 1418 l 257
 397 800 l 257
 498 800 l 257
 1017 1418 l 257
EndSplineSet
Substitution2: "'c2sc' Capitals to Small Capitals in Latin lookup 0 subtable" uni1D0B
EndChar

StartChar: K.alt
Encoding: 1114130 -1 77
GlifName: K_.alt
Width: 1309
VWidth: 0
GlyphClass: 2
Flags: HW
LayerCount: 2
Fore
SplineSet
1017 1418 m 257
 1285 1418 l 257
 683 708 l 257
 1285 0 l 257
 1017 0 l 257
 557 557 l 257
 397 371 l 257
 397 0 l 257
 173 0 l 257
 173 1418 l 257
 397 1418 l 257
 397 684 l 257
 1017 1418 l 257
EndSplineSet
Substitution2: "'c2sc' Capitals to Small Capitals in Latin lookup 0 subtable" uni1D0B
EndChar

StartChar: L
Encoding: 76 76 78
GlifName: L_
Width: 1086
VWidth: 0
GlyphClass: 2
Flags: HW
LayerCount: 2
Fore
SplineSet
1034 191 m 257
 1034 0 l 257
 173 0 l 257
 173 1418 l 257
 397 1418 l 257
 397 191 l 257
 1034 191 l 257
EndSplineSet
Substitution2: "'c2sc' Capitals to Small Capitals in Latin lookup 0 subtable" uni029F
EndChar

StartChar: M
Encoding: 77 77 83
GlifName: M_
Width: 1881
VWidth: 0
GlyphClass: 2
Flags: HW
LayerCount: 2
Fore
SplineSet
397 0 m 257
 173 0 l 257
 173 1418 l 257
 450 1418 l 257
 929 211 l 257
 1432 1418 l 257
 1712 1418 l 257
 1712 0 l 257
 1486 0 l 257
 1486 1075 l 257
 1045 0 l 257
 811 0 l 257
 397 1072 l 257
 397 0 l 257
EndSplineSet
Substitution2: "'c2sc' Capitals to Small Capitals in Latin lookup 0 subtable" uni1D0D
EndChar

StartChar: N
Encoding: 78 78 84
GlifName: N_
Width: 1448
VWidth: 0
GlyphClass: 2
Flags: HW
LayerCount: 2
Fore
SplineSet
1052 1418 m 257
 1278 1418 l 257
 1278 0 l 257
 1049 0 l 257
 397 1055 l 257
 397 0 l 257
 173 0 l 257
 173 1418 l 257
 400 1418 l 257
 1052 361 l 257
 1052 1418 l 257
EndSplineSet
Substitution2: "'c2sc' Capitals to Small Capitals in Latin lookup 0 subtable" uni0274
EndChar

StartChar: O
Encoding: 79 79 88
GlifName: O_
Width: 1518
VWidth: 0
GlyphClass: 2
Flags: HW
LayerCount: 2
Fore
SplineSet
760 1429 m 256
 1198 1429 1393 1106 1393 708 c 256
 1393 310 1197 -11 760 -11 c 256
 323 -11 125 310 125 708 c 256
 125 1106 322 1429 760 1429 c 256
760 1234 m 256
 497 1234 352 1036 352 708 c 256
 352 380 495 183 760 183 c 256
 1025 183 1167 380 1167 708 c 256
 1167 1036 1023 1234 760 1234 c 256
EndSplineSet
Substitution2: "'c2sc' Capitals to Small Capitals in Latin lookup 0 subtable" uni1D0F
EndChar

StartChar: OE
Encoding: 338 338 89
GlifName: O_E_
Width: 1726
VWidth: 0
GlyphClass: 2
Flags: HW
LayerCount: 2
Fore
SplineSet
898 1225 m 257
 777 1225 l 258
 506 1225 355 1032 355 708 c 256
 355 383 506 191 777 191 c 258
 898 191 l 257
 898 1225 l 257
1123 1225 m 257
 1123 799 l 257
 1622 799 l 257
 1622 618 l 257
 1123 618 l 257
 1123 191 l 257
 1678 191 l 257
 1678 0 l 257
 777 0 l 258
 354 0 129 309 129 708 c 256
 129 1107 354 1418 777 1418 c 258
 1678 1418 l 257
 1678 1225 l 257
 1123 1225 l 257
EndSplineSet
EndChar

StartChar: P
Encoding: 80 80 102
GlifName: P_
Width: 1258
VWidth: 0
GlyphClass: 2
Flags: HW
LayerCount: 2
Fore
SplineSet
376 0 m 257
 151 0 l 257
 151 1418 l 257
 706 1418 l 258
 997 1418 1159 1259 1159 989 c 256
 1159 719 998 559 706 559 c 258
 376 559 l 257
 376 0 l 257
376 1225 m 257
 376 752 l 257
 700 752 l 258
 856 752 934 847 934 990 c 256
 934 1133 856 1225 700 1225 c 258
 376 1225 l 257
EndSplineSet
Substitution2: "'c2sc' Capitals to Small Capitals in Latin lookup 0 subtable" uni1D18
EndChar

StartChar: R
Encoding: 82 82 105
GlifName: R_
Width: 1258
VWidth: 0
GlyphClass: 2
Flags: HW
LayerCount: 2
Fore
SplineSet
874 679 m 257
 1238 0 l 257
 1013 0 l 257
 676 679 l 257
 874 679 l 257
EndSplineSet
Refer: 102 80 N 1 0 0 1 0 0 2
Substitution2: "'c2sc' Capitals to Small Capitals in Latin lookup 0 subtable" uni0280
EndChar

StartChar: S
Encoding: 83 83 108
GlifName: S_
Width: 1219
VWidth: 0
GlyphClass: 2
Flags: HW
LayerCount: 2
Fore
SplineSet
99 442 m 257
 321 442 l 257
 321 273 445 183 626 183 c 256
 778 183 899 248 899 384 c 256
 899 527 728 577 597 615 c 256
 383 676 132 765 132 1038 c 256
 132 1285 335 1428 590 1428 c 256
 889 1428 1099 1256 1099 992 c 257
 877 992 l 257
 877 1141 766 1235 604 1235 c 256
 459 1235 354 1164 354 1041 c 256
 354 898 531 848 664 808 c 256
 877 748 1121 653 1121 383 c 256
 1121 115 885 -11 634 -11 c 256
 327 -11 99 144 99 442 c 257
EndSplineSet
Substitution2: "'c2sc' Capitals to Small Capitals in Latin lookup 0 subtable" uniA731
EndChar

StartChar: T
Encoding: 84 84 113
GlifName: T_
Width: 1328
VWidth: 0
GlyphClass: 2
Flags: HW
LayerCount: 2
Fore
SplineSet
778 0 m 257
 552 0 l 257
 552 1225 l 257
 74 1225 l 257
 74 1418 l 257
 1256 1418 l 257
 1256 1225 l 257
 778 1225 l 257
 778 0 l 257
EndSplineSet
Substitution2: "'c2sc' Capitals to Small Capitals in Latin lookup 0 subtable" uni1D1B
EndChar

StartChar: Thorn
Encoding: 222 222 123
GlifName: T_horn
Width: 1258
VWidth: 0
GlyphClass: 2
Flags: HW
LayerCount: 2
Fore
SplineSet
377 465 m 257
 686 465 l 258
 844 465 936 544 936 702 c 256
 936 860 842 938 686 938 c 258
 377 938 l 257
 377 465 l 257
377 0 m 257
 153 0 l 257
 153 1418 l 257
 377 1418 l 257
 377 1130 l 257
 686 1130 l 258
 955 1130 1161 974 1161 702 c 256
 1161 430 952 272 686 272 c 258
 377 272 l 257
 377 0 l 257
EndSplineSet
EndChar

StartChar: U
Encoding: 85 85 124
GlifName: U_
Width: 1418
VWidth: 0
GlyphClass: 2
Flags: HW
LayerCount: 2
Fore
SplineSet
1046 1418 m 257
 1272 1418 l 257
 1272 507 l 258
 1272 179 1067 -11 709 -11 c 256
 351 -11 148 179 148 507 c 258
 148 1418 l 257
 372 1418 l 257
 372 508 l 258
 372 311 483 191 709 191 c 256
 935 191 1046 311 1046 508 c 258
 1046 1418 l 257
EndSplineSet
Substitution2: "'c2sc' Capitals to Small Capitals in Latin lookup 0 subtable" uni1D1C
EndChar

StartChar: V
Encoding: 86 86 136
GlifName: V_
Width: 1312
VWidth: 0
GlyphClass: 2
Flags: HW
LayerCount: 2
Fore
SplineSet
656 248 m 257
 1068 1418 l 257
 1307 1418 l 257
 783 0 l 257
 529 0 l 257
 5 1418 l 257
 246 1418 l 257
 656 248 l 257
EndSplineSet
Substitution2: "'c2sc' Capitals to Small Capitals in Latin lookup 0 subtable" uni1D20
EndChar

StartChar: W
Encoding: 87 87 137
GlifName: W_
Width: 1908
VWidth: 0
GlyphClass: 2
Flags: HW
LayerCount: 2
Fore
SplineSet
1638 1418 m 257
 1872 1418 l 257
 1475 0 l 257
 1236 0 l 257
 955 1099 l 257
 668 0 l 257
 432 0 l 257
 36 1418 l 257
 270 1418 l 257
 563 308 l 257
 843 1418 l 257
 1065 1418 l 257
 1344 308 l 257
 1638 1418 l 257
EndSplineSet
Substitution2: "'c2sc' Capitals to Small Capitals in Latin lookup 0 subtable" uni1D21
EndChar

StartChar: X
Encoding: 88 88 142
GlifName: X_
Width: 1374
VWidth: 0
GlyphClass: 2
Flags: HW
LayerCount: 2
Fore
SplineSet
1355 0 m 257
 1088 0 l 257
 688 536 l 257
 286 0 l 257
 21 0 l 257
 561 708 l 257
 21 1418 l 257
 286 1418 l 257
 688 880 l 257
 1088 1418 l 257
 1355 1418 l 257
 813 708 l 257
 1355 0 l 257
EndSplineSet
Substitution2: "'c2sc' Capitals to Small Capitals in Latin lookup 0 subtable" uniA7EF
EndChar

StartChar: Y
Encoding: 89 89 143
GlifName: Y_
Width: 1290
VWidth: 0
GlyphClass: 2
Flags: HW
LayerCount: 2
Fore
SplineSet
1033 1418 m 257
 1293 1418 l 257
 759 613 l 257
 759 0 l 257
 533 0 l 257
 533 613 l 257
 -3 1418 l 257
 258 1418 l 257
 645 800 l 257
 1033 1418 l 257
EndSplineSet
Substitution2: "'c2sc' Capitals to Small Capitals in Latin lookup 0 subtable" uni028F
EndChar

StartChar: Z
Encoding: 90 90 148
GlifName: Z_
Width: 1218
VWidth: 0
GlyphClass: 2
Flags: HW
LayerCount: 2
Fore
SplineSet
78 1226 m 257
 78 1418 l 257
 1140 1418 l 257
 1140 1248 l 257
 329 191 l 257
 1140 191 l 257
 1140 0 l 257
 78 0 l 257
 78 171 l 257
 891 1226 l 257
 78 1226 l 257
EndSplineSet
Substitution2: "'c2sc' Capitals to Small Capitals in Latin lookup 0 subtable" uni1D22
EndChar

StartChar: a
Encoding: 97 97 152
GlifName: a
Width: 1095
VWidth: 0
GlyphClass: 2
Flags: HW
LayerCount: 2
Fore
SplineSet
536 1072 m 256
 808 1072 966 940 966 728 c 258
 966 265 l 258
 966 184 991 142 1078 142 c 257
 1079 -1 l 257
 884 -24 741 52 741 265 c 258
 741 728 l 258
 741 843 657 896 526 896 c 256
 395 896 311 844 311 728 c 257
 116 728 l 257
 107 946 266 1072 536 1072 c 256
EndSplineSet
Refer: 1670 57355 N 1 0 0 1 -7 0 2
Substitution2: "'smcp' Lowercase to Small Capitals in Latin lookup 0 subtable" uni1D00
EndChar

StartChar: acute
Encoding: 180 180 156
GlifName: acute
Width: 536
VWidth: 0
GlyphClass: 2
Flags: HW
LayerCount: 2
Fore
SplineSet
262 1471 m 257
 436 1471 l 257
 250 1133 l 257
 100 1133 l 257
 262 1471 l 257
EndSplineSet
EndChar

StartChar: ae
Encoding: 230 230 158
GlifName: ae
Width: 1788
VWidth: 0
GlyphClass: 2
Flags: HW
LayerCount: 2
Fore
SplineSet
740 283 m 257
 740 728 l 258
 740 843 657 896 526 896 c 256
 395 896 310 844 310 728 c 257
 116 728 l 257
 107 946 266 1072 536 1072 c 256
 808 1072 966 940 966 728 c 258
 966 281 l 257
 740 283 l 257
91 278 m 256
 91 510 288 615 509 615 c 258
 943 615 l 257
 943 465 l 257
 522 466 l 258
 394 466 292 423 292 305 c 256
 292 220 339 158 463 158 c 256
 610 158 712 261 748 311 c 257
 819 300 l 257
 778 193 654 -16 390 -16 c 256
 199 -16 91 91 91 278 c 256
EndSplineSet
Refer: 225 101 N 1 0 0 1 665 0 2
Substitution2: "'c2sc' Capitals to Small Capitals in Latin lookup 0 subtable" uni1D01
Substitution2: "'smcp' Lowercase to Small Capitals in Latin lookup 0 subtable" uni1D01
EndChar

StartChar: ampersand
Encoding: 38 38 162
GlifName: ampersand
Width: 1412
VWidth: 0
GlyphClass: 2
Flags: HW
LayerCount: 2
Fore
SplineSet
199 1080 m 256
 199 1268 339 1423 571 1423 c 256
 794 1423 944 1278 944 1076 c 256
 944 880 803 766 593 656 c 256
 429 569 310 482 310 366 c 256
 310 241 426 178 568 178 c 256
 832 178 1041 415 1041 660 c 257
 1232 660 l 257
 1232 295 974 -10 573 -10 c 256
 299 -10 104 129 104 366 c 256
 104 559 244 681 476 807 c 256
 639 895 745 962 745 1081 c 256
 745 1178 676 1244 572 1244 c 256
 461 1244 398 1169 398 1085 c 256
 398 1005 443 938 520 867 c 258
 1313 133 l 257
 1182 -11 l 257
 363 752 l 258
 261 847 199 955 199 1080 c 256
EndSplineSet
EndChar

StartChar: approxequal
Encoding: 8776 8776 164
GlifName: approxequal
Width: 1149
VWidth: 0
GlyphClass: 2
Flags: HW
LayerCount: 2
Fore
SplineSet
118 342 m 257
 204 463 296 522 395 522 c 256
 448 522 512 504 591 458 c 256
 662 418 717 398 755 398 c 256
 809 398 869 434 931 509 c 257
 1028 421 l 257
 938 298 850 243 748 243 c 256
 693 243 636 262 548 310 c 256
 472 352 420 370 384 370 c 256
 330 370 276 336 218 259 c 257
 118 342 l 257
118 833 m 257
 204 954 296 1013 395 1013 c 256
 448 1013 512 994 591 948 c 256
 662 908 717 889 755 889 c 256
 809 889 869 925 931 1000 c 257
 1028 911 l 257
 938 788 850 734 748 734 c 256
 693 734 636 752 548 800 c 256
 472 842 420 860 384 860 c 256
 330 860 276 826 218 749 c 257
 118 833 l 257
EndSplineSet
EndChar

StartChar: arrowboth
Encoding: 8596 8596 167
GlifName: arrowboth
Width: 1842
VWidth: 0
GlyphClass: 2
Flags: HW
LayerCount: 2
Fore
SplineSet
575 970 m 257
 662 883 l 257
 368 590 l 257
 425 604 l 257
 1417 604 l 257
 1474 590 l 257
 1180 883 l 257
 1267 970 l 257
 1692 544 l 257
 1267 118 l 257
 1180 205 l 257
 1474 498 l 257
 1417 484 l 257
 425 484 l 257
 368 498 l 257
 662 205 l 257
 575 118 l 257
 150 544 l 257
 575 970 l 257
EndSplineSet
EndChar

StartChar: arrowdown
Encoding: 8595 8595 168
GlifName: arrowdown
Width: 1152
VWidth: 0
GlyphClass: 2
Flags: HW
LayerCount: 2
Fore
SplineSet
636 1126 m 257
 636 278 l 257
 622 222 l 257
 915 516 l 257
 1002 430 l 257
 576 4 l 257
 150 430 l 257
 237 516 l 257
 530 222 l 257
 516 278 l 257
 516 1126 l 257
 636 1126 l 257
EndSplineSet
EndChar

StartChar: arrowleft
Encoding: 8592 8592 169
GlifName: arrowleft
Width: 1422
VWidth: 0
GlyphClass: 2
Flags: HW
LayerCount: 2
Fore
SplineSet
1272 484 m 257
 425 484 l 257
 368 498 l 257
 662 205 l 257
 575 118 l 257
 150 544 l 257
 575 970 l 257
 662 883 l 257
 368 590 l 257
 425 604 l 257
 1272 604 l 257
 1272 484 l 257
EndSplineSet
EndChar

StartChar: arrowright
Encoding: 8594 8594 170
GlifName: arrowright
Width: 1422
VWidth: 0
GlyphClass: 2
Flags: HW
LayerCount: 2
Fore
SplineSet
150 604 m 257
 997 604 l 257
 1054 590 l 257
 760 883 l 257
 847 970 l 257
 1272 544 l 257
 847 118 l 257
 760 205 l 257
 1054 498 l 257
 997 484 l 257
 150 484 l 257
 150 604 l 257
EndSplineSet
EndChar

StartChar: arrowup
Encoding: 8593 8593 171
GlifName: arrowup
Width: 1152
VWidth: 0
GlyphClass: 2
Flags: HW
LayerCount: 2
Fore
SplineSet
516 -46 m 257
 516 802 l 257
 530 858 l 257
 237 564 l 257
 150 650 l 257
 576 1076 l 257
 1002 650 l 257
 915 564 l 257
 622 858 l 257
 636 802 l 257
 636 -46 l 257
 516 -46 l 257
EndSplineSet
EndChar

StartChar: arrowupdn
Encoding: 8597 8597 172
GlifName: arrowupdn
Width: 1152
VWidth: 0
GlyphClass: 2
Flags: HW
LayerCount: 2
Fore
SplineSet
576 1316 m 257
 1002 890 l 257
 915 803 l 257
 622 1097 l 257
 636 1040 l 257
 636 48 l 257
 622 -9 l 257
 915 285 l 257
 1002 198 l 257
 576 -228 l 257
 150 198 l 257
 237 285 l 257
 530 -9 l 257
 516 48 l 257
 516 1040 l 257
 530 1097 l 257
 237 803 l 257
 150 890 l 257
 576 1316 l 257
EndSplineSet
EndChar

StartChar: asciicircum
Encoding: 94 94 173
GlifName: asciicircum
Width: 766
VWidth: 0
GlyphClass: 2
Flags: HW
LayerCount: 2
Fore
SplineSet
667 1133 m 257
 516 1133 l 257
 383 1368 l 257
 250 1133 l 257
 100 1133 l 257
 267 1471 l 257
 499 1471 l 257
 667 1133 l 257
EndSplineSet
Substitution2: "'tnum' Tabular Numbers lookup 22 subtable" asciicircum.tnum
EndChar

StartChar: asciitilde
Encoding: 126 126 175
GlifName: asciitilde
Width: 996
VWidth: 0
GlyphClass: 2
Flags: HW
LayerCount: 2
Fore
SplineSet
105 1179 m 257
 163 1307 245 1373 336 1373 c 256
 397 1373 444 1351 520 1305 c 256
 579 1270 617 1251 656 1251 c 256
 705 1251 752 1280 798 1374 c 257
 892 1326 l 257
 834 1193 753 1133 661 1133 c 256
 600 1133 552 1153 463 1205 c 256
 408 1237 369 1256 337 1256 c 256
 291 1256 246 1230 199 1132 c 257
 105 1179 l 257
EndSplineSet
EndChar

StartChar: asterisk
Encoding: 42 42 176
GlifName: asterisk
Width: 1234
VWidth: 0
GlyphClass: 2
Flags: HW
LayerCount: 2
Fore
SplineSet
177 1040 m 257
 228 1191 l 257
 544 1082 l 257
 537 1418 l 257
 699 1418 l 257
 692 1082 l 257
 1009 1191 l 257
 1059 1040 l 257
 739 942 l 257
 941 673 l 257
 811 579 l 257
 618 854 l 257
 426 579 l 257
 296 673 l 257
 497 942 l 257
 177 1040 l 257
EndSplineSet
Substitution2: "'tnum' Tabular Numbers lookup 22 subtable" asterisk.tnum
EndChar

StartChar: at
Encoding: 64 64 178
GlifName: at
Width: 1932
VWidth: 0
GlyphClass: 2
Flags: HW
LayerCount: 2
Fore
SplineSet
978 804 m 256
 799 804 669 676 669 421 c 256
 669 215 778 141 909 141 c 256
 1040 141 1143 246 1161 445 c 258
 1188 745 l 257
 1137 781 1081 804 978 804 c 256
978 947 m 256
 1155 947 1258 880 1348 810 c 257
 1302 309 l 258
 1300 291 1300 273 1300 265 c 256
 1300 184 1345 144 1422 144 c 256
 1572 144 1645 321 1645 535 c 256
 1645 889 1377 1181 995 1181 c 256
 602 1181 296 885 296 439 c 256
 296 8 543 -218 977 -218 c 256
 1053 -218 1126 -205 1193 -184 c 257
 1245 -316 l 257
 1161 -343 1073 -360 976 -360 c 256
 452 -360 140 -63 140 439 c 256
 140 963 508 1320 994 1320 c 256
 1477 1320 1792 961 1792 527 c 256
 1792 261 1682 -8 1423 -8 c 256
 1312 -8 1229 45 1203 153 c 257
 1144 40 1017 -8 909 -8 c 256
 690 -8 516 145 516 421 c 256
 516 752 701 947 978 947 c 256
EndSplineSet
EndChar

StartChar: b
Encoding: 98 98 180
GlifName: b
Width: 1141
VWidth: 0
GlyphClass: 2
Flags: HW
LayerCount: 2
Fore
SplineSet
371 0 m 257
 146 0 l 257
 146 1475 l 257
 371 1475 l 257
 371 0 l 257
EndSplineSet
Refer: 1674 57359 N 1 0 0 1 19 0 2
Substitution2: "'smcp' Lowercase to Small Capitals in Latin lookup 0 subtable" uni0299
EndChar

StartChar: backslash
Encoding: 92 92 181
GlifName: backslash
Width: 1156
VWidth: 0
GlyphClass: 2
Flags: HW
LayerCount: 2
Fore
SplineSet
1030 0 m 257
 765 0 l 257
 122 1418 l 257
 388 1418 l 257
 1030 0 l 257
EndSplineSet
Substitution2: "'tnum' Tabular Numbers lookup 22 subtable" backslash.tnum
EndChar

StartChar: bar
Encoding: 124 124 183
GlifName: bar
Width: 618
VWidth: 0
GlyphClass: 2
Flags: HW
LayerCount: 2
Fore
SplineSet
198 1446 m 257
 422 1446 l 257
 422 -448 l 257
 198 -448 l 257
 198 1446 l 257
EndSplineSet
Substitution2: "'tnum' Tabular Numbers lookup 22 subtable" bar.tnum
EndChar

StartChar: braceleft
Encoding: 123 123 185
GlifName: braceleft
Width: 912
VWidth: 0
GlyphClass: 2
Flags: HW
LayerCount: 2
Fore
SplineSet
308 688 m 257
 437 623 504 504 504 368 c 258
 504 162 l 258
 504 102 546 56 610 56 c 258
 794 56 l 257
 794 -125 l 257
 592 -125 l 258
 431 -125 319 -10 319 137 c 258
 319 368 l 258
 319 487 238 576 142 597 c 257
 82 605 l 257
 82 772 l 257
 142 780 l 257
 238 801 319 890 319 1009 c 258
 319 1239 l 258
 319 1386 431 1499 592 1499 c 258
 794 1499 l 257
 794 1320 l 257
 610 1320 l 258
 546 1320 504 1273 504 1213 c 258
 504 1009 l 258
 504 872 437 753 308 688 c 257
EndSplineSet
Substitution2: "'tnum' Tabular Numbers lookup 22 subtable" braceleft.tnum
EndChar

StartChar: braceright
Encoding: 125 125 187
GlifName: braceright
Width: 912
VWidth: 0
GlyphClass: 2
Flags: HW
LayerCount: 2
Fore
SplineSet
604 687 m 257
 475 752 408 871 408 1007 c 258
 408 1213 l 258
 408 1273 366 1320 302 1320 c 258
 118 1320 l 257
 118 1499 l 257
 320 1499 l 258
 481 1499 593 1385 593 1238 c 258
 593 1007 l 258
 593 888 674 798 770 777 c 257
 830 770 l 257
 830 604 l 257
 770 595 l 257
 674 574 593 485 593 366 c 258
 593 137 l 258
 593 -10 481 -125 320 -125 c 258
 118 -125 l 257
 118 54 l 257
 302 54 l 258
 366 54 408 101 408 161 c 258
 408 366 l 258
 408 503 475 622 604 687 c 257
EndSplineSet
Substitution2: "'tnum' Tabular Numbers lookup 22 subtable" braceright.tnum
EndChar

StartChar: bracketleft
Encoding: 91 91 189
GlifName: bracketleft
Width: 714
VWidth: 0
GlyphClass: 2
Flags: HW
LayerCount: 2
Fore
SplineSet
621 56 m 257
 621 -125 l 257
 146 -125 l 257
 146 1500 l 257
 621 1500 l 257
 621 1320 l 257
 331 1320 l 257
 331 56 l 257
 621 56 l 257
EndSplineSet
Substitution2: "'tnum' Tabular Numbers lookup 22 subtable" bracketleft.tnum
EndChar

StartChar: bracketright
Encoding: 93 93 191
GlifName: bracketright
Width: 715
VWidth: 0
GlyphClass: 2
Flags: HW
LayerCount: 2
Fore
SplineSet
94 1320 m 257
 94 1499 l 257
 569 1499 l 257
 569 -125 l 257
 94 -125 l 257
 94 54 l 257
 385 54 l 257
 385 1320 l 257
 94 1320 l 257
EndSplineSet
Substitution2: "'tnum' Tabular Numbers lookup 22 subtable" bracketright.tnum
EndChar

StartChar: breve
Encoding: 728 728 193
GlifName: breve
Width: 832
VWidth: 0
GlyphClass: 2
Flags: HW
LayerCount: 2
Fore
SplineSet
727 1447 m 257
 727 1249 612 1133 416 1133 c 256
 220 1133 105 1249 105 1447 c 257
 224 1447 l 257
 224 1316 294 1248 416 1248 c 256
 538 1248 608 1316 608 1447 c 257
 727 1447 l 257
EndSplineSet
EndChar

StartChar: brokenbar
Encoding: 166 166 194
GlifName: brokenbar
Width: 477
VWidth: 0
GlyphClass: 2
Flags: HW
LayerCount: 2
Fore
SplineSet
351 872 m 257
 127 872 l 257
 127 1418 l 257
 351 1418 l 257
 351 872 l 257
351 0 m 257
 127 0 l 257
 127 556 l 257
 351 556 l 257
 351 0 l 257
EndSplineSet
EndChar

StartChar: bullet
Encoding: 8226 8226 195
GlifName: bullet
Width: 543
VWidth: 0
GlyphClass: 2
Flags: HW
LayerCount: 2
Fore
SplineSet
100 688 m 256
 100 784 174 859 272 859 c 256
 370 859 444 784 444 688 c 256
 444 592 370 515 272 515 c 256
 174 515 100 592 100 688 c 256
EndSplineSet
EndChar

StartChar: c
Encoding: 99 99 196
GlifName: c
Width: 1147
VWidth: 0
GlyphClass: 2
Flags: HW
LayerCount: 2
Fore
SplineSet
585 1072 m 256
 849 1072 1013 928 1044 703 c 257
 829 692 l 257
 803 824 710 892 585 892 c 256
 425 892 317 784 317 533 c 256
 317 279 425 171 585 171 c 256
 710 171 803 239 829 371 c 257
 1044 360 l 257
 1013 132 849 -10 585 -10 c 256
 268 -10 91 193 91 532 c 256
 91 871 268 1072 585 1072 c 256
EndSplineSet
Substitution2: "'smcp' Lowercase to Small Capitals in Latin lookup 0 subtable" uni1D04
EndChar

StartChar: caron
Encoding: 711 711 198
GlifName: caron
Width: 766
VWidth: 0
GlyphClass: 2
Flags: HW
LayerCount: 2
Fore
SplineSet
100 1471 m 257
 250 1471 l 257
 383 1235 l 257
 517 1471 l 257
 667 1471 l 257
 499 1133 l 257
 267 1133 l 257
 100 1471 l 257
EndSplineSet
EndChar

StartChar: cedilla
Encoding: 184 184 203
GlifName: cedilla
Width: 649
VWidth: 0
GlyphClass: 2
Flags: HW
LayerCount: 2
Fore
SplineSet
545 -272 m 256
 545 -393 449 -468 295 -468 c 256
 227 -468 164 -452 105 -423 c 257
 146 -327 l 257
 185 -346 244 -359 298 -359 c 256
 381 -359 427 -330 427 -278 c 256
 427 -219 367 -184 272 -184 c 256
 256 -184 239 -184 223 -186 c 257
 223 1 l 257
 319 1 l 257
 319 -92 l 257
 463 -92 545 -158 545 -272 c 256
EndSplineSet
EndChar

StartChar: circumflex
Encoding: 710 710 206
GlifName: circumflex
Width: 766
VWidth: 0
GlyphClass: 2
Flags: HW
LayerCount: 2
Fore
SplineSet
667 1133 m 257
 516 1133 l 257
 383 1368 l 257
 250 1133 l 257
 100 1133 l 257
 267 1471 l 257
 499 1471 l 257
 667 1133 l 257
EndSplineSet
EndChar

StartChar: comma
Encoding: 44 44 208
GlifName: comma
Width: 608
VWidth: 0
GlyphClass: 2
Flags: HW
LayerCount: 2
Fore
SplineSet
199 304 m 257
 412 304 l 257
 250 -204 l 257
 104 -135 l 257
 199 304 l 257
EndSplineSet
Substitution2: "'tnum' Tabular Numbers lookup 22 subtable" comma.tnum
EndChar

StartChar: copyright
Encoding: 169 169 210
GlifName: copyright
Width: 1849
VWidth: 0
GlyphClass: 2
Flags: HW
LayerCount: 2
Fore
SplineSet
301 750 m 256
 301 396 568 122 926 122 c 256
 1284 122 1551 396 1551 750 c 256
 1551 1103 1284 1378 926 1378 c 256
 568 1378 301 1103 301 750 c 256
136 750 m 256
 136 1175 457 1529 926 1529 c 256
 1395 1529 1716 1175 1716 750 c 256
 1716 326 1395 -30 926 -30 c 256
 457 -30 136 326 136 750 c 256
1200 975 m 257
 1129 915 l 257
 1069 981 1007 1011 926 1011 c 256
 783 1011 690 891 690 752 c 256
 690 613 783 495 926 495 c 256
 1007 495 1069 523 1129 589 c 257
 1200 528 l 257
 1119 441 1043 395 919 395 c 256
 710 395 582 571 582 752 c 256
 582 933 710 1110 919 1110 c 256
 1043 1110 1119 1062 1200 975 c 257
EndSplineSet
EndChar

StartChar: currency
Encoding: 164 164 211
GlifName: currency
Width: 1364
VWidth: 0
GlyphClass: 2
Flags: HW
LayerCount: 2
Fore
SplineSet
894 97 m 257
 1025 213 l 257
 1274 -61 l 257
 1144 -176 l 257
 894 97 l 257
341 213 m 257
 471 97 l 257
 221 -176 l 257
 91 -61 l 257
 341 213 l 257
1025 823 m 257
 894 939 l 257
 1144 1213 l 257
 1274 1097 l 257
 1025 823 l 257
471 939 m 257
 341 823 l 257
 91 1097 l 257
 221 1213 l 257
 471 939 l 257
EndSplineSet
Refer: 324 111 N 1 0 0 1 117 0 2
EndChar

StartChar: d
Encoding: 100 100 212
GlifName: d
Width: 1136
VWidth: 0
GlyphClass: 2
Flags: HW
LayerCount: 2
Fore
SplineSet
992 0 m 257
 766 0 l 257
 766 1446 l 257
 992 1446 l 257
 992 0 l 257
EndSplineSet
Refer: 1674 57359 N -1 0 0 -1 1118 1063 2
Substitution2: "'smcp' Lowercase to Small Capitals in Latin lookup 0 subtable" uni1D05
EndChar

StartChar: dagger
Encoding: 8224 8224 213
GlifName: dagger
Width: 1413
VWidth: 0
GlyphClass: 2
Flags: HW
LayerCount: 2
Fore
SplineSet
200 873 m 257
 200 1072 l 257
 1213 1072 l 257
 1213 873 l 257
 200 873 l 257
607 1418 m 257
 806 1418 l 257
 806 -469 l 257
 607 -469 l 257
 607 1418 l 257
EndSplineSet
EndChar

StartChar: daggerdbl
Encoding: 8225 8225 214
GlifName: daggerdbl
Width: 1413
VWidth: 0
GlyphClass: 2
Flags: HW
LayerCount: 2
Fore
SplineSet
200 -123 m 257
 200 76 l 257
 1213 76 l 257
 1213 -123 l 257
 200 -123 l 257
200 873 m 257
 200 1072 l 257
 1213 1072 l 257
 1213 873 l 257
 200 873 l 257
607 1418 m 257
 806 1418 l 257
 806 -469 l 257
 607 -469 l 257
 607 1418 l 257
EndSplineSet
EndChar

StartChar: degree
Encoding: 176 176 217
GlifName: degree
Width: 703
VWidth: 0
GlyphClass: 2
Flags: HW
LayerCount: 2
Fore
SplineSet
498 1380 m 256
 498 1462 433 1526 351 1526 c 256
 269 1526 207 1462 207 1380 c 256
 207 1298 269 1234 351 1234 c 256
 433 1234 498 1298 498 1380 c 256
599 1380 m 256
 599 1243 488 1133 351 1133 c 256
 214 1133 105 1243 105 1380 c 256
 105 1517 214 1627 351 1627 c 256
 488 1627 599 1517 599 1380 c 256
EndSplineSet
EndChar

StartChar: dieresis
Encoding: 168 168 218
GlifName: dieresis
Width: 802
VWidth: 0
GlyphClass: 2
Flags: HW
LayerCount: 2
Fore
SplineSet
105 1244 m 256
 105 1304 155 1352 217 1352 c 256
 279 1352 328 1304 328 1244 c 256
 328 1184 279 1133 217 1133 c 256
 155 1133 105 1184 105 1244 c 256
475 1244 m 256
 475 1304 524 1352 586 1352 c 256
 648 1352 698 1304 698 1244 c 256
 698 1184 648 1133 586 1133 c 256
 524 1133 475 1184 475 1244 c 256
EndSplineSet
EndChar

StartChar: dollar.alt
Encoding: 1114151 -1 222
GlifName: dollar.alt
Width: 1219
VWidth: 0
GlyphClass: 2
Flags: HW
LayerCount: 2
Fore
SplineSet
659 86 m 257
 659 -209 l 257
 550 -209 l 257
 550 86 l 257
 659 86 l 257
550 1344 m 257
 550 1620 l 257
 659 1620 l 257
 659 1344 l 257
 550 1344 l 257
EndSplineSet
Refer: 108 83 N 1 0 0 1 0 0 2
EndChar

StartChar: dotaccent
Encoding: 729 729 223
GlifName: dotaccent
Width: 483
VWidth: 0
GlyphClass: 2
Flags: HW
LayerCount: 2
Fore
SplineSet
105 1268 m 256
 105 1342 168 1402 242 1402 c 256
 316 1402 379 1342 379 1268 c 256
 379 1194 316 1133 242 1133 c 256
 168 1133 105 1194 105 1268 c 256
EndSplineSet
EndChar

StartChar: dotlessi
Encoding: 305 305 224
GlifName: dotlessi
Width: 527
VWidth: 0
GlyphClass: 2
Flags: HW
LayerCount: 2
Fore
SplineSet
151 1063 m 257
 377 1063 l 257
 377 0 l 257
 151 0 l 257
 151 1063 l 257
EndSplineSet
EndChar

StartChar: e
Encoding: 101 101 225
GlifName: e
Width: 1122
VWidth: 0
GlyphClass: 2
Flags: HW
LayerCount: 2
Fore
SplineSet
304 465 m 257
 314 290 401 171 575 171 c 256
 692 171 776 230 808 315 c 257
 1023 276 l 257
 958 95 804 -11 568 -11 c 256
 248 -11 78 200 78 531 c 256
 78 863 253 1072 562 1072 c 256
 948 1072 1071 804 1053 465 c 257
 304 465 l 257
306 616 m 257
 825 616 l 257
 813 791 732 892 564 892 c 256
 418 892 317 790 306 616 c 257
EndSplineSet
Substitution2: "'smcp' Lowercase to Small Capitals in Latin lookup 0 subtable" uni1D07
EndChar

StartChar: eight
Encoding: 56 56 233
GlifName: eight
Width: 1176
VWidth: 0
GlyphClass: 2
Flags: HW
LayerCount: 2
Fore
SplineSet
589 1429 m 256
 854 1429 1018 1260 1018 1057 c 256
 1018 930 954 811 838 741 c 257
 989 654 1071 518 1071 376 c 256
 1071 162 890 -11 589 -11 c 256
 288 -11 106 162 106 378 c 256
 106 520 187 656 337 741 c 257
 222 811 158 930 158 1056 c 256
 158 1259 323 1429 589 1429 c 256
589 1250 m 256
 461 1250 380 1169 380 1036 c 256
 380 901 462 817 589 817 c 256
 716 817 794 901 794 1036 c 256
 794 1170 716 1250 589 1250 c 256
585 646 m 256
 437 646 336 548 336 403 c 256
 336 262 431 176 589 176 c 256
 746 176 840 261 840 400 c 256
 840 545 736 646 585 646 c 256
EndSplineSet
Substitution2: "'sups' Superscript lookup 0 subtable" uni2078
Substitution2: "'subs' Subscript lookup 0 subtable" uni2088
Substitution2: "'sinf' Scientific Inferiors lookup 20 subtable" uni2088
Substitution2: "'tnum' Tabular Numbers lookup 22 subtable" eight.tnum
Substitution2: "'onum' Oldstyle Figures lookup 23 subtable" eight.onum
Substitution2: "'smcp' Lowercase to Small Capitals in Latin lookup 0 subtable" eight.SC
EndChar

StartChar: eight.SC
Encoding: 1114152 -1 234
GlifName: eight.S_C_
Width: 940
VWidth: 0
GlyphClass: 2
Flags: HW
LayerCount: 2
Fore
SplineSet
471 1071 m 256
 671 1071 795 944 795 790 c 256
 795 697 755 603 666 553 c 257
 780 491 835 387 835 281 c 256
 835 118 723 -9 471 -9 c 256
 219 -9 106 120 106 283 c 256
 106 389 160 494 274 554 c 257
 185 604 145 697 145 789 c 256
 145 943 270 1071 471 1071 c 256
471 903 m 256
 385 903 330 848 330 759 c 256
 330 668 384 612 470 612 c 256
 556 612 610 668 610 759 c 256
 610 848 557 903 471 903 c 256
467 480 m 256
 367 480 299 413 299 316 c 256
 299 222 362 168 470 168 c 256
 577 168 641 221 641 314 c 256
 641 411 569 480 467 480 c 256
EndSplineSet
EndChar

StartChar: eight.onum
Encoding: 1114153 -1 235
GlifName: eight.onum
Width: 1176
VWidth: 0
GlyphClass: 2
Flags: HW
LayerCount: 2
Fore
SplineSet
589 1429 m 256
 854 1429 1018 1236 1018 1057 c 256
 1018 930 954 811 838 741 c 257
 989 654 1071 510 1071 376 c 256
 1071 188 890 -11 589 -11 c 256
 288 -11 106 190 106 378 c 256
 106 512 187 656 337 741 c 257
 222 811 158 930 158 1056 c 256
 158 1235 323 1429 589 1429 c 256
589 1250 m 256
 461 1250 380 1145 380 1036 c 256
 380 901 462 817 589 817 c 256
 716 817 794 901 794 1036 c 256
 794 1146 716 1250 589 1250 c 256
585 646 m 256
 437 646 336 539 336 403 c 256
 336 279 431 176 589 176 c 256
 746 176 840 278 840 400 c 256
 840 537 736 646 585 646 c 256
EndSplineSet
EndChar

StartChar: emdash
Encoding: 8212 8212 239
GlifName: emdash
Width: 2048
VWidth: 0
GlyphClass: 2
Flags: HW
LayerCount: 2
Fore
SplineSet
1968 685 m 257
 1968 517 l 257
 80 517 l 257
 80 685 l 257
 1968 685 l 257
EndSplineSet
EndChar

StartChar: eng
Encoding: 331 331 241
GlifName: eng
Width: 1184
VWidth: 0
GlyphClass: 2
Flags: HW
LayerCount: 2
Fore
SplineSet
825 17 m 257
 1051 17 l 257
 1051 -206 l 258
 1051 -408 906 -487 734 -487 c 256
 649 -487 568 -466 508 -434 c 257
 550 -287 l 257
 582 -304 627 -314 674 -314 c 256
 769 -314 825 -273 825 -182 c 258
 825 17 l 257
EndSplineSet
Refer: 312 110 N 1 0 0 1 0 0 2
EndChar

StartChar: eth
Encoding: 240 240 245
GlifName: eth
Width: 1141
VWidth: 0
GlyphClass: 2
Flags: HW
LayerCount: 2
Fore
SplineSet
569 892 m 256
 387 892 303 757 303 531 c 256
 303 305 387 169 569 169 c 256
 751 169 839 305 839 531 c 256
 839 757 751 892 569 892 c 256
549 1071 m 256
 663 1071 767 1036 844 940 c 257
 787 1076 666 1232 575 1308 c 257
 414 1175 l 257
 341 1262 l 257
 487 1382 l 257
 434 1419 356 1452 296 1471 c 257
 343 1619 l 257
 424 1598 528 1546 612 1483 c 257
 757 1599 l 257
 829 1511 l 257
 697 1407 l 257
 945 1168 1065 872 1065 576 c 256
 1065 199 900 -11 572 -11 c 256
 244 -11 78 211 78 531 c 256
 78 881 277 1071 549 1071 c 256
EndSplineSet
EndChar

StartChar: exclam
Encoding: 33 33 246
GlifName: exclam
Width: 648
VWidth: 0
GlyphClass: 2
Flags: HW
LayerCount: 2
Fore
SplineSet
417 447 m 257
 231 447 l 257
 211 1418 l 257
 437 1418 l 257
 417 447 l 257
EndSplineSet
Refer: 357 46 N 1 0 0 1 25 0 2
Substitution2: "'tnum' Tabular Numbers lookup 22 subtable" exclam.tnum
EndChar

StartChar: f
Encoding: 102 102 249
GlifName: f
Width: 750
VWidth: 0
GlyphClass: 2
Flags: HW
LayerCount: 2
Fore
SplineSet
763 1433 m 257
 722 1285 l 257
 690 1302 644 1313 597 1313 c 256
 502 1313 446 1271 446 1180 c 258
 446 0 l 257
 221 0 l 257
 221 1205 l 258
 221 1407 365 1486 537 1486 c 256
 622 1486 703 1465 763 1433 c 257
EndSplineSet
Refer: 1669 57354 N 1 0 0 1 -41 376 2
Substitution2: "'smcp' Lowercase to Small Capitals in Latin lookup 0 subtable" uniA730
EndChar

StartChar: figuredash
Encoding: 8210 8210 250
GlifName: figuredash
Width: 1450
VWidth: 0
GlyphClass: 2
Flags: HW
LayerCount: 2
Fore
SplineSet
1348 685 m 257
 1348 517 l 257
 103 517 l 257
 103 685 l 257
 1348 685 l 257
EndSplineSet
EndChar

StartChar: filledbox
Encoding: 9632 9632 251
GlifName: filledbox
Width: 1070
VWidth: 0
GlyphClass: 2
Flags: HW
LayerCount: 2
Fore
SplineSet
182 708 m 257
 890 708 l 257
 890 0 l 257
 182 0 l 257
 182 708 l 257
EndSplineSet
EndChar

StartChar: five
Encoding: 53 53 252
GlifName: five
Width: 1149
VWidth: 0
GlyphClass: 2
Flags: HW
LayerCount: 2
Fore
SplineSet
109 416 m 257
 331 416 l 257
 331 259 413 177 573 177 c 256
 731 177 820 265 820 464 c 256
 820 669 738 788 561 788 c 256
 452 788 363 741 266 642 c 257
 122 724 l 257
 183 1418 l 257
 1029 1418 l 257
 1029 1237 l 257
 372 1237 l 257
 341 885 l 257
 421 934 510 967 610 967 c 256
 887 967 1040 776 1040 476 c 256
 1040 161 859 -11 561 -11 c 256
 278 -11 109 145 109 416 c 257
EndSplineSet
Substitution2: "'sups' Superscript lookup 0 subtable" uni2075
Substitution2: "'subs' Subscript lookup 0 subtable" uni2085
Substitution2: "'sinf' Scientific Inferiors lookup 20 subtable" uni2085
Substitution2: "'tnum' Tabular Numbers lookup 22 subtable" five.tnum
Substitution2: "'onum' Oldstyle Figures lookup 23 subtable" five.onum
Substitution2: "'smcp' Lowercase to Small Capitals in Latin lookup 0 subtable" five.SC
EndChar

StartChar: five.SC
Encoding: 1114157 -1 253
GlifName: five.S_C_
Width: 918
VWidth: 0
GlyphClass: 2
Flags: HW
LayerCount: 2
Fore
SplineSet
108 320 m 257
 296 318 l 257
 296 225 353 170 453 170 c 256
 553 170 615 232 615 358 c 256
 615 482 562 550 447 550 c 256
 375 550 319 521 258 461 c 257
 118 530 l 257
 164 1063 l 257
 803 1063 l 257
 803 887 l 257
 326 887 l 257
 305 652 l 257
 359 686 419 709 491 709 c 256
 701 709 812 574 812 352 c 256
 812 117 680 -9 458 -9 c 256
 240 -9 108 112 108 320 c 257
EndSplineSet
EndChar

StartChar: five.onum
Encoding: 1114158 -1 254
GlifName: five.onum
Width: 1149
VWidth: 0
GlyphClass: 2
Flags: HW
LayerCount: 2
Fore
SplineSet
199 -73 m 257
 275 -115 382 -148 490 -148 c 256
 696 -148 818 -66 818 112 c 256
 818 287 700 366 527 366 c 256
 423 366 317 335 244 295 c 257
 144 368 l 257
 194 1063 l 257
 1013 1063 l 257
 1013 882 l 257
 376 882 l 257
 348 510 l 257
 400 530 470 545 536 545 c 256
 834 545 1017 386 1017 105 c 256
 1017 -197 810 -358 495 -358 c 256
 355 -358 236 -322 115 -253 c 257
 199 -73 l 257
EndSplineSet
EndChar

StartChar: four
Encoding: 52 52 257
GlifName: four
Width: 1228
VWidth: 0
GlyphClass: 2
Flags: HW
LayerCount: 2
Fore
SplineSet
715 504 m 257
 715 1119 l 257
 284 504 l 257
 715 504 l 257
715 320 m 257
 89 320 l 257
 89 501 l 257
 731 1418 l 257
 938 1418 l 257
 938 504 l 257
 1163 504 l 257
 1163 320 l 257
 938 320 l 257
 938 0 l 257
 715 0 l 257
 715 320 l 257
EndSplineSet
Substitution2: "'sups' Superscript lookup 0 subtable" uni2074
Substitution2: "'subs' Subscript lookup 0 subtable" uni2084
Substitution2: "'sinf' Scientific Inferiors lookup 20 subtable" uni2084
Substitution2: "'tnum' Tabular Numbers lookup 22 subtable" four.tnum
Substitution2: "'onum' Oldstyle Figures lookup 23 subtable" four.onum
Substitution2: "'smcp' Lowercase to Small Capitals in Latin lookup 0 subtable" four.SC
EndChar

StartChar: four.SC
Encoding: 1114160 -1 258
GlifName: four.S_C_
Width: 1031
VWidth: 0
GlyphClass: 2
Flags: HW
LayerCount: 2
Fore
SplineSet
566 377 m 257
 566 838 l 257
 245 377 l 257
 566 377 l 257
566 206 m 257
 88 206 l 257
 88 424 l 257
 547 1063 l 257
 788 1063 l 257
 788 377 l 257
 965 377 l 257
 965 206 l 257
 788 206 l 257
 788 0 l 257
 566 0 l 257
 566 206 l 257
EndSplineSet
EndChar

StartChar: four.onum
Encoding: 1114161 -1 259
GlifName: four.onum
Width: 1228
VWidth: 0
GlyphClass: 2
Flags: HW
LayerCount: 2
Fore
SplineSet
715 177 m 257
 715 770 l 257
 278 177 l 257
 715 177 l 257
715 0 m 257
 89 0 l 257
 89 175 l 257
 731 1063 l 257
 941 1063 l 257
 941 177 l 257
 1163 177 l 257
 1163 0 l 257
 941 0 l 257
 941 -338 l 257
 715 -338 l 257
 715 0 l 257
EndSplineSet
EndChar

StartChar: g
Encoding: 103 103 261
GlifName: g
Width: 1141
VWidth: 0
GlyphClass: 2
Flags: HW
LayerCount: 2
Fore
SplineSet
550 -479 m 256
 271 -479 106 -343 115 -131 c 257
 310 -131 l 257
 310 -241 400 -302 540 -302 c 256
 681 -302 771 -239 771 -131 c 258
 771 1063 l 257
 996 1063 l 257
 996 -131 l 258
 996 -336 832 -479 550 -479 c 256
EndSplineSet
Refer: 1674 57359 N -1 0 0 -1 1123 1062 2
Substitution2: "'smcp' Lowercase to Small Capitals in Latin lookup 0 subtable" uni0262
EndChar

StartChar: g.alt
Encoding: 1114163 -1 262
GlifName: g.alt
Width: 1160
VWidth: 0
GlyphClass: 2
Flags: HW
LayerCount: 2
Fore
SplineSet
819 973 m 257
 879 1063 976 1134 1113 1134 c 257
 1113 976 l 257
 1018 976 967 943 908 877 c 257
 819 973 l 257
575 1073 m 256
 860 1073 1001 909 1001 691 c 256
 1001 473 859 308 575 308 c 256
 291 308 150 473 150 691 c 256
 150 909 290 1073 575 1073 c 256
1098 -133 m 256
 1098 -371 878 -489 573 -489 c 256
 246 -489 85 -385 85 -206 c 256
 85 -86 175 18 309 59 c 257
 433 -24 l 257
 334 -53 274 -115 274 -190 c 256
 274 -299 385 -336 574 -336 c 256
 766 -336 882 -269 882 -168 c 256
 882 -79 806 -50 592 -50 c 256
 273 -50 149 19 149 207 c 256
 149 308 206 401 299 449 c 257
 394 362 l 257
 347 329 317 282 317 240 c 256
 317 142 410 126 675 126 c 256
 999 126 1098 51 1098 -133 c 256
575 911 m 256
 443 911 374 832 374 691 c 256
 374 550 443 471 575 471 c 256
 707 471 777 550 777 691 c 256
 777 832 707 911 575 911 c 256
EndSplineSet
EndChar

StartChar: germandbls
Encoding: 223 223 267
GlifName: germandbls
Width: 1205
VWidth: 0
GlyphClass: 2
Flags: HW
LayerCount: 2
Fore
SplineSet
509 0 m 257
 529 189 l 257
 574 184 627 179 670 179 c 256
 817 179 894 229 894 299 c 256
 894 369 840 419 777 460 c 256
 696 515 596 591 596 723 c 256
 596 819 641 886 687 944 c 256
 734 1001 762 1066 762 1147 c 256
 762 1248 702 1335 565 1335 c 256
 422 1335 365 1241 365 1105 c 258
 365 0 l 257
 158 0 l 257
 158 1105 l 258
 158 1312 280 1515 565 1515 c 256
 841 1515 972 1316 972 1128 c 256
 972 992 931 909 864 839 c 256
 824 795 801 767 801 726 c 256
 801 667 851 631 915 590 c 256
 997 538 1107 439 1107 281 c 256
 1107 65 924 -11 681 -11 c 256
 626 -11 569 -7 509 0 c 257
EndSplineSet
EndChar

StartChar: grave
Encoding: 96 96 268
GlifName: grave
Width: 536
VWidth: 0
GlyphClass: 2
Flags: HW
LayerCount: 2
Fore
SplineSet
436 1133 m 257
 286 1133 l 257
 100 1471 l 257
 274 1471 l 257
 436 1133 l 257
EndSplineSet
EndChar

StartChar: greater
Encoding: 62 62 269
GlifName: greater
Width: 749
VWidth: 0
GlyphClass: 2
Flags: HW
LayerCount: 2
Fore
SplineSet
165 207 m 257
 70 304 l 257
 493 688 l 257
 70 1072 l 257
 165 1169 l 257
 680 688 l 257
 165 207 l 257
EndSplineSet
EndChar

StartChar: guillemotleft.alt
Encoding: 1114164 -1 271
GlifName: guillemotleft.alt
Width: 903
VWidth: 0
GlyphClass: 2
Flags: HW
LayerCount: 2
Fore
SplineSet
434 692 m 256
 434 868 563 1029 740 1161 c 257
 833 1048 l 257
 705 952 589 832 589 692 c 256
 589 552 705 432 833 336 c 257
 740 222 l 257
 563 354 434 516 434 692 c 256
70 692 m 256
 70 880 151 1041 322 1225 c 257
 442 1125 l 257
 318 986 236 852 236 692 c 256
 236 532 318 398 442 259 c 257
 322 159 l 257
 151 343 70 504 70 692 c 256
EndSplineSet
EndChar

StartChar: guillemotright.alt
Encoding: 1114165 -1 273
GlifName: guillemotright.alt
Width: 903
VWidth: 0
GlyphClass: 2
Flags: HW
LayerCount: 2
Fore
SplineSet
470 692 m 256
 470 516 341 354 164 222 c 257
 70 336 l 257
 198 432 314 552 314 692 c 256
 314 832 198 952 70 1048 c 257
 164 1161 l 257
 341 1029 470 868 470 692 c 256
833 692 m 256
 833 504 753 343 582 159 c 257
 462 259 l 257
 586 398 668 532 668 692 c 256
 668 852 586 986 462 1125 c 257
 582 1225 l 257
 753 1041 833 880 833 692 c 256
EndSplineSet
EndChar

StartChar: h
Encoding: 104 104 274
GlifName: h
Width: 1184
VWidth: 0
GlyphClass: 2
Flags: HW
LayerCount: 2
Fore
SplineSet
363 0 m 257
 138 0 l 257
 138 1477 l 257
 363 1477 l 257
 363 0 l 257
EndSplineSet
Refer: 1672 57357 N 1 0 0 1 30 0 2
Substitution2: "'smcp' Lowercase to Small Capitals in Latin lookup 0 subtable" uni029C
EndChar

StartChar: hyphen
Encoding: 45 45 279
GlifName: hyphen
Width: 1089
VWidth: 0
GlyphClass: 2
Flags: HW
LayerCount: 2
Fore
SplineSet
985 685 m 257
 985 517 l 257
 105 517 l 257
 105 685 l 257
 985 685 l 257
EndSplineSet
Substitution2: "'tnum' Tabular Numbers lookup 22 subtable" hyphen.tnum
EndChar

StartChar: k
Encoding: 107 107 293
GlifName: k
Width: 1135
VWidth: 0
GlyphClass: 2
Flags: HW
LayerCount: 2
Fore
SplineSet
791 1063 m 257
 1075 1063 l 257
 666 565 l 257
 1117 0 l 257
 833 0 l 257
 470 478 l 257
 370 478 l 257
 370 0 l 257
 146 0 l 257
 146 1477 l 257
 370 1477 l 257
 370 626 l 257
 470 626 l 257
 791 1063 l 257
EndSplineSet
Substitution2: "'smcp' Lowercase to Small Capitals in Latin lookup 0 subtable" uni1D0B
EndChar

StartChar: k.alt
Encoding: 1114167 -1 294
GlifName: k.alt
Width: 1135
VWidth: 0
GlyphClass: 2
Flags: HW
LayerCount: 2
Fore
SplineSet
791 1063 m 257
 1075 1063 l 257
 663 603 l 257
 1117 0 l 257
 833 0 l 257
 530 457 l 257
 370 299 l 257
 370 0 l 257
 146 0 l 257
 146 1477 l 257
 370 1477 l 257
 370 584 l 257
 791 1063 l 257
EndSplineSet
Substitution2: "'smcp' Lowercase to Small Capitals in Latin lookup 0 subtable" uni1D0B
EndChar

StartChar: kgreenlandic
Encoding: 312 312 295
GlifName: kgreenlandic
Width: 1059
VWidth: 0
GlyphClass: 2
Flags: HW
LayerCount: 2
Fore
SplineSet
138 1063 m 257
 362 1063 l 257
 362 589 l 257
 763 1063 l 257
 1018 1063 l 257
 588 530 l 257
 1029 0 l 257
 763 0 l 257
 454 371 l 257
 362 263 l 257
 362 0 l 257
 138 0 l 257
 138 1063 l 257
EndSplineSet
EndChar

StartChar: l
Encoding: 108 108 296
GlifName: l
Width: 530
VWidth: 0
GlyphClass: 2
Flags: HW
LayerCount: 2
Fore
SplineSet
378 0 m 257
 153 0 l 257
 153 1477 l 257
 378 1477 l 257
 378 0 l 257
EndSplineSet
Substitution2: "'smcp' Lowercase to Small Capitals in Latin lookup 0 subtable" uni029F
EndChar

StartChar: less
Encoding: 60 60 300
GlifName: less
Width: 749
VWidth: 0
GlyphClass: 2
Flags: HW
LayerCount: 2
Fore
SplineSet
584 1169 m 257
 680 1072 l 257
 257 688 l 257
 680 304 l 257
 584 207 l 257
 70 688 l 257
 584 1169 l 257
EndSplineSet
EndChar

StartChar: logicalnot
Encoding: 172 172 301
GlifName: logicalnot
Width: 1144
VWidth: 0
GlyphClass: 2
Flags: HW
LayerCount: 2
Fore
SplineSet
93 517 m 257
 93 684 l 257
 974 684 l 257
 974 264 l 257
 805 264 l 257
 805 517 l 257
 93 517 l 257
EndSplineSet
EndChar

StartChar: longs
Encoding: 383 383 302
GlifName: longs
Width: 750
VWidth: 0
GlyphClass: 2
Flags: HW
LayerCount: 2
Fore
SplineSet
763 1433 m 257
 722 1285 l 257
 690 1302 644 1313 597 1313 c 256
 502 1313 446 1271 446 1180 c 258
 446 0 l 257
 221 0 l 257
 221 1205 l 258
 221 1407 365 1486 537 1486 c 256
 622 1486 703 1465 763 1433 c 257
EndSplineSet
Refer: 1681 57366 N 1 0 0 1 -27 0 2
EndChar

StartChar: m
Encoding: 109 109 304
GlifName: m
Width: 1793
VWidth: 0
GlyphClass: 2
Flags: HW
LayerCount: 2
Fore
SplineSet
136 1063 m 257
 350 1063 l 257
 360 783 l 257
 360 0 l 257
 136 0 l 257
 136 1063 l 257
EndSplineSet
Refer: 1671 57356 N 1 0 0 1 -590 1 2
Refer: 1671 57356 N 1 0 0 1 66 1 2
Substitution2: "'smcp' Lowercase to Small Capitals in Latin lookup 0 subtable" uni1D0D
EndChar

StartChar: macron
Encoding: 175 175 305
GlifName: macron
Width: 964
VWidth: 0
GlyphClass: 2
Flags: HW
LayerCount: 2
Fore
SplineSet
859 1276 m 257
 859 1133 l 257
 105 1133 l 257
 105 1276 l 257
 859 1276 l 257
EndSplineSet
EndChar

StartChar: macron.alt
Encoding: 1114168 -1 306
GlifName: macron.alt
Width: 768
VWidth: 0
GlyphClass: 2
Flags: HW
LayerCount: 2
Fore
SplineSet
664 1276 m 257
 664 1133 l 257
 105 1133 l 257
 105 1276 l 257
 664 1276 l 257
EndSplineSet
EndChar

StartChar: minute
Encoding: 8242 8242 308
GlifName: minute
Width: 460
VWidth: 0
GlyphClass: 2
Flags: HW
LayerCount: 2
Fore
SplineSet
214 1418 m 257
 356 1418 l 257
 217 953 l 257
 105 953 l 257
 214 1418 l 257
EndSplineSet
EndChar

StartChar: mu
Encoding: 181 181 309
GlifName: mu
Width: 1184
VWidth: 0
GlyphClass: 2
Flags: HW
LayerCount: 2
Fore
SplineSet
134 1063 m 257
 360 1063 l 257
 360 -430 l 257
 134 -430 l 257
 134 1063 l 257
EndSplineSet
Refer: 422 117 N 1 0 0 1 0 0 2
EndChar

StartChar: multiply
Encoding: 215 215 310
GlifName: multiply
Width: 1027
VWidth: 0
GlyphClass: 2
Flags: HW
LayerCount: 2
Fore
SplineSet
780 991 m 257
 900 872 l 257
 633 607 l 257
 900 341 l 257
 781 222 l 257
 515 488 l 257
 249 221 l 257
 130 341 l 257
 396 607 l 257
 130 873 l 257
 249 992 l 257
 515 725 l 257
 780 991 l 257
EndSplineSet
Substitution2: "'tnum' Tabular Numbers lookup 22 subtable" multiply.tnum
EndChar

StartChar: n
Encoding: 110 110 312
GlifName: n
Width: 1184
VWidth: 0
GlyphClass: 2
Flags: HW
LayerCount: 2
Fore
SplineSet
363 0 m 257
 138 0 l 257
 138 1063 l 257
 353 1063 l 257
 363 783 l 257
 363 0 l 257
EndSplineSet
Refer: 1672 57357 N 1 0 0 1 30 0 2
Substitution2: "'smcp' Lowercase to Small Capitals in Latin lookup 0 subtable" uni0274
EndChar

StartChar: nine
Encoding: 57 57 316
GlifName: nine
Width: 1158
VWidth: 0
GlyphClass: 2
Flags: HW
LayerCount: 2
Fore
SplineSet
558 684 m 256
 668 684 771 746 828 850 c 257
 824 1116 743 1236 565 1236 c 256
 415 1236 326 1138 326 956 c 256
 326 786 411 684 558 684 c 256
535 -11 m 256
 295 -11 123 141 123 367 c 257
 311 367 l 257
 311 267 381 177 542 177 c 256
 764 177 840 390 835 657 c 257
 761 543 657 487 515 487 c 256
 268 487 104 670 104 937 c 256
 104 1236 270 1429 560 1429 c 256
 899 1429 1046 1206 1046 764 c 256
 1046 262 879 -11 535 -11 c 256
EndSplineSet
Substitution2: "'sups' Superscript lookup 0 subtable" uni2079
Substitution2: "'subs' Subscript lookup 0 subtable" uni2089
Substitution2: "'sinf' Scientific Inferiors lookup 20 subtable" uni2089
Substitution2: "'tnum' Tabular Numbers lookup 22 subtable" nine.tnum
Substitution2: "'onum' Oldstyle Figures lookup 23 subtable" nine.onum
Substitution2: "'smcp' Lowercase to Small Capitals in Latin lookup 0 subtable" nine.SC
EndChar

StartChar: nine.SC
Encoding: 1114170 -1 317
GlifName: nine.S_C_
Width: 952
VWidth: 0
GlyphClass: 2
Flags: HW
LayerCount: 2
Fore
SplineSet
465 531 m 256
 542 531 615 576 648 646 c 257
 646 818 570 894 469 894 c 257
 362 894 304 824 304 711 c 256
 304 602 364 531 465 531 c 256
456 -12 m 256
 257 -12 138 118 138 289 c 257
 307 291 l 257
 307 233 354 166 456 166 c 256
 600 166 652 317 652 489 c 257
 601 421 514 384 420 384 c 256
 232 384 114 510 114 725 c 256
 114 952 253 1071 461 1071 c 256
 728 1071 840 881 840 570 c 256
 840 207 719 -12 456 -12 c 256
EndSplineSet
EndChar

StartChar: nine.onum
Encoding: 1114171 -1 318
GlifName: nine.onum
Width: 1158
VWidth: 0
GlyphClass: 2
Flags: HW
LayerCount: 2
Fore
SplineSet
576 878 m 256
 434 878 333 779 333 617 c 256
 333 468 435 376 564 376 c 256
 727 376 861 509 917 653 c 257
 946 477 l 257
 871 323 726 196 527 196 c 256
 291 196 113 360 113 614 c 256
 113 892 297 1073 580 1073 c 256
 884 1073 1054 864 1054 493 c 256
 1054 66 827 -206 388 -348 c 257
 312 -171 l 257
 682 -52 843 132 843 515 c 256
 843 741 759 878 576 878 c 256
EndSplineSet
EndChar

StartChar: numbersign
Encoding: 35 35 322
GlifName: numbersign
Width: 1784
VWidth: 0
GlyphClass: 2
Flags: HW
LayerCount: 2
Fore
SplineSet
1117 893 m 257
 772 893 l 257
 674 535 l 257
 1019 535 l 257
 1117 893 l 257
524 -8 m 257
 327 -8 l 257
 434 378 l 257
 164 378 l 257
 164 535 l 257
 478 535 l 257
 576 893 l 257
 269 893 l 257
 269 1050 l 257
 619 1050 l 257
 721 1414 l 257
 917 1414 l 257
 816 1050 l 257
 1161 1050 l 257
 1263 1414 l 257
 1458 1414 l 257
 1357 1050 l 257
 1622 1050 l 257
 1622 893 l 257
 1313 893 l 257
 1216 535 l 257
 1517 535 l 257
 1517 378 l 257
 1173 378 l 257
 1066 -8 l 257
 868 -8 l 257
 975 378 l 257
 630 378 l 257
 524 -8 l 257
EndSplineSet
Substitution2: "'tnum' Tabular Numbers lookup 22 subtable" numbersign.tnum
EndChar

StartChar: o
Encoding: 111 111 324
GlifName: o
Width: 1142
VWidth: 0
GlyphClass: 2
Flags: HW
LayerCount: 2
Fore
SplineSet
572 892 m 256
 412 892 303 784 303 531 c 256
 303 278 410 169 572 169 c 256
 734 169 840 278 840 531 c 256
 840 784 732 892 572 892 c 256
572 1072 m 256
 889 1072 1065 870 1065 531 c 256
 1065 191 888 -11 572 -11 c 256
 256 -11 78 191 78 531 c 256
 78 870 255 1072 572 1072 c 256
EndSplineSet
Substitution2: "'smcp' Lowercase to Small Capitals in Latin lookup 0 subtable" uni1D0F
EndChar

StartChar: ogonek
Encoding: 731 731 330
GlifName: ogonek
Width: 694
VWidth: 0
GlyphClass: 2
Flags: HW
LayerCount: 2
Fore
SplineSet
345 -507 m 256
 199 -507 105 -420 105 -286 c 256
 105 -234 119 -183 146 -137 c 258
 225 0 l 257
 225 1 l 257
 363 1 l 257
 363 0 l 257
 253 -198 l 257
 237 -225 228 -258 228 -288 c 256
 228 -353 270 -389 344 -389 c 256
 422 -389 466 -350 466 -281 c 257
 589 -280 l 257
 589 -418 493 -507 345 -507 c 256
EndSplineSet
EndChar

StartChar: one
Encoding: 49 49 335
GlifName: one
Width: 801
VWidth: 0
GlyphClass: 2
Flags: HW
LayerCount: 2
Fore
SplineSet
413 1075 m 257
 361 1005 243 970 50 970 c 257
 50 1148 l 257
 316 1148 413 1192 413 1418 c 257
 636 1418 l 257
 636 0 l 257
 413 0 l 257
 413 1075 l 257
EndSplineSet
Substitution2: "'sups' Superscript lookup 0 subtable" uni00B9
Substitution2: "'subs' Subscript lookup 0 subtable" uni2081
Substitution2: "'sinf' Scientific Inferiors lookup 20 subtable" uni2081
Substitution2: "'tnum' Tabular Numbers lookup 22 subtable" one.tnum
Substitution2: "'onum' Oldstyle Figures lookup 23 subtable" one.onum
Substitution2: "'smcp' Lowercase to Small Capitals in Latin lookup 0 subtable" one.SC
EndChar

StartChar: one.SC
Encoding: 1114174 -1 336
GlifName: one.S_C_
Width: 702
VWidth: 0
GlyphClass: 2
Flags: HW
LayerCount: 2
Fore
SplineSet
374 701 m 257
 328 647 228 609 35 609 c 257
 35 786 l 257
 301 786 374 837 374 1063 c 257
 578 1063 l 257
 578 0 l 257
 374 0 l 257
 374 701 l 257
EndSplineSet
EndChar

StartChar: one.onum
Encoding: 1114175 -1 337
GlifName: one.onum
Width: 801
VWidth: 0
GlyphClass: 2
Flags: HW
LayerCount: 2
Fore
SplineSet
413 719 m 257
 361 649 243 614 50 614 c 257
 50 792 l 257
 316 792 413 837 413 1063 c 257
 636 1063 l 257
 636 0 l 257
 413 0 l 257
 413 719 l 257
EndSplineSet
EndChar

StartChar: ordfeminine
Encoding: 170 170 343
GlifName: ordfeminine
Width: 841
VWidth: 0
GlyphClass: 2
Flags: HW
LayerCount: 2
Fore
SplineSet
527 1516 m 257
 527 1591 l 258
 527 1661 475 1693 393 1693 c 256
 308 1693 260 1665 260 1591 c 257
 131 1591 l 257
 125 1735 227 1811 399 1811 c 256
 570 1811 675 1728 675 1591 c 258
 675 1300 l 258
 675 1248 691 1228 747 1228 c 257
 747 1131 l 257
 646 1120 569 1146 541 1225 c 257
 496 1168 424 1123 314 1123 c 256
 194 1123 115 1190 115 1309 c 256
 115 1455 240 1529 387 1529 c 256
 437 1529 484 1525 527 1516 c 257
527 1421 m 257
 490 1430 452 1432 406 1432 c 256
 307 1432 247 1389 247 1322 c 256
 247 1261 285 1232 356 1232 c 256
 442 1232 499 1283 527 1317 c 257
 527 1421 l 257
EndSplineSet
EndChar

StartChar: p
Encoding: 112 112 349
GlifName: p
Width: 1136
VWidth: 0
GlyphClass: 2
Flags: HW
LayerCount: 2
Fore
SplineSet
146 1063 m 257
 371 1063 l 257
 371 -453 l 257
 146 -453 l 257
 146 1063 l 257
EndSplineSet
Refer: 1674 57359 N 1 0 0 1 19 0 2
Substitution2: "'smcp' Lowercase to Small Capitals in Latin lookup 0 subtable" uni1D18
EndChar

StartChar: paragraph
Encoding: 182 182 350
GlifName: paragraph
Width: 1402
VWidth: 0
GlyphClass: 2
Flags: HW
LayerCount: 2
Fore
SplineSet
1238 -469 m 257
 1069 -469 l 257
 1069 1225 l 257
 910 1225 l 257
 910 -469 l 257
 741 -469 l 257
 741 355 l 257
 589 355 l 258
 295 355 103 583 103 886 c 256
 103 1189 295 1418 589 1418 c 258
 1238 1418 l 257
 1238 -469 l 257
EndSplineSet
EndChar

StartChar: parenleft
Encoding: 40 40 351
GlifName: parenleft
Width: 676
VWidth: 0
GlyphClass: 2
Flags: HW
LayerCount: 2
Fore
SplineSet
443 1537 m 257
 591 1453 l 257
 425 1199 338 869 338 485 c 256
 338 102 424 -228 591 -483 c 257
 443 -567 l 257
 235 -246 130 83 130 485 c 256
 130 887 235 1217 443 1537 c 257
EndSplineSet
Substitution2: "'tnum' Tabular Numbers lookup 22 subtable" parenleft.tnum
EndChar

StartChar: parenright
Encoding: 41 41 353
GlifName: parenright
Width: 676
VWidth: 0
GlyphClass: 2
Flags: HW
LayerCount: 2
Fore
SplineSet
233 -567 m 257
 85 -484 l 257
 251 -230 338 101 338 485 c 256
 338 868 252 1197 85 1452 c 257
 233 1537 l 257
 441 1216 546 887 546 485 c 256
 546 83 441 -247 233 -567 c 257
EndSplineSet
Substitution2: "'tnum' Tabular Numbers lookup 22 subtable" parenright.tnum
EndChar

StartChar: period
Encoding: 46 46 357
GlifName: period
Width: 598
VWidth: 0
GlyphClass: 2
Flags: HW
LayerCount: 2
Fore
SplineSet
160 127 m 256
 160 203 221 262 299 262 c 256
 377 262 439 203 439 127 c 256
 439 51 377 -11 299 -11 c 256
 221 -11 160 51 160 127 c 256
EndSplineSet
Substitution2: "'tnum' Tabular Numbers lookup 22 subtable" period.tnum
EndChar

StartChar: periodcentered
Encoding: 183 183 359
GlifName: periodcentered
Width: 540
VWidth: 0
GlyphClass: 2
Flags: HW
LayerCount: 2
Fore
SplineSet
132 711 m 256
 132 787 193 846 271 846 c 256
 349 846 410 787 410 711 c 256
 410 635 349 572 271 572 c 256
 193 572 132 635 132 711 c 256
EndSplineSet
EndChar

StartChar: plus
Encoding: 43 43 361
GlifName: plus
Width: 1063
VWidth: 0
GlyphClass: 2
Flags: HW
LayerCount: 2
Fore
SplineSet
959 660 m 257
 959 491 l 257
 624 491 l 257
 624 148 l 257
 440 148 l 257
 440 491 l 257
 105 491 l 257
 105 660 l 257
 440 660 l 257
 440 1003 l 257
 624 1003 l 257
 624 660 l 257
 959 660 l 257
EndSplineSet
Substitution2: "'tnum' Tabular Numbers lookup 22 subtable" plus.tnum
EndChar

StartChar: q
Encoding: 113 113 365
GlifName: q
Width: 1136
VWidth: 0
GlyphClass: 2
Flags: HW
LayerCount: 2
Fore
SplineSet
766 1063 m 257
 992 1063 l 257
 992 -458 l 257
 766 -458 l 257
 766 1063 l 257
EndSplineSet
Refer: 1674 57359 N -1 0 0 -1 1118 1063 2
Substitution2: "'smcp' Lowercase to Small Capitals in Latin lookup 0 subtable" uniA7EE
EndChar

StartChar: question
Encoding: 63 63 366
GlifName: question
Width: 1110
VWidth: 0
GlyphClass: 2
Flags: HW
LayerCount: 2
Fore
SplineSet
517 -11 m 256
 439 -11 378 51 378 127 c 256
 378 203 439 262 517 262 c 256
 595 262 657 203 657 127 c 256
 657 51 595 -11 517 -11 c 256
351 904 m 257
 166 899 l 257
 153 947 146 1002 146 1046 c 256
 146 1263 297 1412 546 1412 c 256
 816 1412 965 1224 965 1039 c 256
 965 860 876 776 784 699 c 256
 699 629 627 565 627 441 c 257
 417 441 l 257
 417 604 506 681 613 769 c 256
 706 845 754 908 754 1014 c 256
 754 1140 677 1231 541 1231 c 256
 411 1231 341 1142 341 1022 c 256
 341 984 343 939 351 904 c 257
EndSplineSet
Substitution2: "'tnum' Tabular Numbers lookup 22 subtable" question.tnum
EndChar

StartChar: quoteleft
Encoding: 8216 8216 373
GlifName: quoteleft
Width: 598
VWidth: 0
GlyphClass: 2
Flags: HW
LayerCount: 2
Fore
SplineSet
359 1555 m 257
 453 1116 l 257
 308 1046 l 257
 145 1555 l 257
 359 1555 l 257
EndSplineSet
EndChar

StartChar: quoteright
Encoding: 8217 8217 375
GlifName: quoteright
Width: 598
VWidth: 0
GlyphClass: 2
Flags: HW
LayerCount: 2
Fore
SplineSet
240 1555 m 257
 453 1555 l 257
 291 1046 l 257
 145 1116 l 257
 240 1555 l 257
EndSplineSet
EndChar

StartChar: quotesingle
Encoding: 39 39 377
GlifName: quotesingle
Width: 414
VWidth: 0
GlyphClass: 2
Flags: HW
LayerCount: 2
Fore
SplineSet
127 1447 m 257
 288 1447 l 257
 271 965 l 257
 143 965 l 257
 127 1447 l 257
EndSplineSet
EndChar

StartChar: r
Encoding: 114 114 378
GlifName: r
Width: 847
VWidth: 0
GlyphClass: 2
Flags: HW
LayerCount: 2
Fore
SplineSet
146 1063 m 257
 361 1063 l 257
 371 713 l 257
 371 0 l 257
 146 0 l 257
 146 1063 l 257
EndSplineSet
Refer: 1673 57358 N 1 0 0 1 0 0 2
Substitution2: "'smcp' Lowercase to Small Capitals in Latin lookup 0 subtable" uni0280
EndChar

StartChar: registered
Encoding: 174 174 381
GlifName: registered
Width: 1849
VWidth: 0
GlyphClass: 2
Flags: HW
LayerCount: 2
Fore
SplineSet
301 750 m 256
 301 396 568 122 926 122 c 256
 1284 122 1551 396 1551 750 c 256
 1551 1103 1284 1378 926 1378 c 256
 568 1378 301 1103 301 750 c 256
136 750 m 256
 136 1175 457 1529 926 1529 c 256
 1395 1529 1716 1175 1716 750 c 256
 1716 326 1395 -30 926 -30 c 256
 457 -30 136 326 136 750 c 256
1232 414 m 257
 1101 414 l 257
 950 599 l 257
 939 598 928 598 915 598 c 258
 794 598 l 257
 794 412 l 257
 693 412 l 257
 693 1099 l 257
 943 1099 l 258
 1102 1099 1223 994 1223 848 c 256
 1223 743 1159 658 1064 620 c 257
 1232 414 l 257
794 694 m 257
 943 694 l 258
 1039 694 1116 755 1116 848 c 256
 1116 942 1040 1004 943 1004 c 258
 794 1004 l 257
 794 694 l 257
EndSplineSet
EndChar

StartChar: ring
Encoding: 730 730 382
GlifName: ring
Width: 735
VWidth: 0
GlyphClass: 2
Flags: HW
LayerCount: 2
Fore
SplineSet
367 1559 m 256
 269 1559 205 1487 205 1396 c 256
 205 1305 269 1233 367 1233 c 256
 465 1233 530 1305 530 1396 c 256
 530 1487 465 1559 367 1559 c 256
367 1658 m 256
 518 1658 630 1541 630 1396 c 256
 630 1251 518 1133 367 1133 c 256
 216 1133 105 1251 105 1396 c 256
 105 1541 216 1658 367 1658 c 256
EndSplineSet
EndChar

StartChar: s
Encoding: 115 115 383
GlifName: s
Width: 1011
VWidth: 0
GlyphClass: 2
Flags: HW
LayerCount: 2
Fore
SplineSet
514 1072 m 256
 778 1072 930 941 919 722 c 257
 735 726 l 257
 735 832 654 894 516 894 c 256
 390 894 310 842 310 755 c 256
 310 683 367 651 535 612 c 256
 811 549 927 452 927 298 c 256
 927 112 760 -10 505 -10 c 256
 236 -10 73 127 86 342 c 257
 269 336 l 257
 269 229 357 167 512 167 c 256
 646 167 723 217 723 301 c 256
 723 373 659 407 486 447 c 256
 216 508 108 603 108 762 c 256
 108 953 264 1072 514 1072 c 256
EndSplineSet
Substitution2: "'smcp' Lowercase to Small Capitals in Latin lookup 0 subtable" uniA731
EndChar

StartChar: section
Encoding: 167 167 389
GlifName: section
Width: 982
VWidth: 0
GlyphClass: 2
Flags: HW
LayerCount: 2
Fore
SplineSet
874 262 m 256
 874 46 683 -51 475 -51 c 256
 304 -51 164 -2 87 47 c 257
 167 220 l 257
 231 180 356 132 476 132 c 256
 587 132 679 169 679 260 c 256
 679 341 607 370 478 400 c 256
 285 444 135 501 135 692 c 256
 135 804 194 884 271 931 c 257
 191 975 138 1035 138 1143 c 256
 138 1355 323 1467 517 1467 c 256
 651 1467 766 1423 846 1366 c 257
 774 1218 l 257
 708 1260 620 1292 524 1292 c 256
 427 1292 336 1249 336 1153 c 256
 336 1073 405 1048 528 1018 c 256
 724 972 878 919 878 714 c 256
 878 603 823 529 743 485 c 257
 820 442 874 377 874 262 c 256
514 568 m 257
 613 572 686 624 686 708 c 256
 686 790 611 825 503 845 c 257
 413 843 334 788 334 700 c 256
 334 622 403 588 514 568 c 257
EndSplineSet
EndChar

StartChar: seven
Encoding: 55 55 391
GlifName: seven
Width: 1132
VWidth: 0
GlyphClass: 2
Flags: HW
LayerCount: 2
Fore
SplineSet
1050 1226 m 257
 765 901 565 473 565 0 c 257
 349 0 l 257
 349 453 546 922 794 1220 c 257
 87 1220 l 257
 87 1418 l 257
 1009 1418 l 257
 1050 1226 l 257
EndSplineSet
Substitution2: "'sups' Superscript lookup 0 subtable" uni2077
Substitution2: "'subs' Subscript lookup 0 subtable" uni2087
Substitution2: "'sinf' Scientific Inferiors lookup 20 subtable" uni2087
Substitution2: "'tnum' Tabular Numbers lookup 22 subtable" seven.tnum
Substitution2: "'onum' Oldstyle Figures lookup 23 subtable" seven.onum
Substitution2: "'smcp' Lowercase to Small Capitals in Latin lookup 0 subtable" seven.SC
EndChar

StartChar: seven.SC
Encoding: 1114185 -1 392
GlifName: seven.S_C_
Width: 986
VWidth: 0
GlyphClass: 2
Flags: HW
LayerCount: 2
Fore
SplineSet
111 874 m 257
 111 1063 l 257
 852 1063 l 257
 884 914 l 257
 671 671 521 353 521 0 c 257
 316 0 l 257
 316 337 450 676 613 874 c 257
 111 874 l 257
EndSplineSet
EndChar

StartChar: seven.onum
Encoding: 1114186 -1 393
GlifName: seven.onum
Width: 1132
VWidth: 0
GlyphClass: 2
Flags: HW
LayerCount: 2
Fore
SplineSet
1050 871 m 257
 765 546 565 135 565 -338 c 257
 349 -338 l 257
 349 115 546 566 794 864 c 257
 87 864 l 257
 87 1063 l 257
 1009 1063 l 257
 1050 871 l 257
EndSplineSet
EndChar

StartChar: six
Encoding: 54 54 396
GlifName: six
Width: 1158
VWidth: 0
GlyphClass: 2
Flags: HW
LayerCount: 2
Fore
SplineSet
600 734 m 256
 490 734 388 671 331 567 c 257
 335 301 416 181 594 181 c 256
 744 181 832 280 832 462 c 256
 832 632 747 734 600 734 c 256
623 1429 m 256
 863 1429 1036 1277 1036 1051 c 257
 848 1051 l 257
 848 1151 777 1241 616 1241 c 256
 394 1241 318 1027 323 760 c 257
 397 874 502 931 644 931 c 256
 891 931 1055 747 1055 480 c 256
 1055 181 889 -11 599 -11 c 256
 260 -11 114 211 114 653 c 256
 114 1155 279 1429 623 1429 c 256
EndSplineSet
Substitution2: "'sups' Superscript lookup 0 subtable" uni2076
Substitution2: "'subs' Subscript lookup 0 subtable" uni2086
Substitution2: "'sinf' Scientific Inferiors lookup 20 subtable" uni2086
Substitution2: "'tnum' Tabular Numbers lookup 22 subtable" six.tnum
Substitution2: "'onum' Oldstyle Figures lookup 23 subtable" six.onum
Substitution2: "'smcp' Lowercase to Small Capitals in Latin lookup 0 subtable" six.SC
EndChar

StartChar: six.SC
Encoding: 1114188 -1 397
GlifName: six.S_C_
Width: 952
VWidth: 0
GlyphClass: 2
Flags: HW
LayerCount: 2
Fore
SplineSet
488 529 m 256
 411 529 339 483 306 413 c 257
 308 241 383 165 484 165 c 257
 591 165 649 235 649 348 c 256
 649 457 589 529 488 529 c 256
498 1071 m 256
 697 1071 816 941 816 770 c 257
 646 769 l 257
 646 827 599 894 497 894 c 256
 353 894 302 743 302 571 c 257
 353 639 440 675 534 675 c 256
 722 675 840 550 840 335 c 256
 840 108 700 -12 492 -12 c 256
 225 -12 114 178 114 489 c 256
 114 852 235 1071 498 1071 c 256
EndSplineSet
EndChar

StartChar: six.onum
Encoding: 1114189 -1 398
GlifName: six.onum
Width: 1158
VWidth: 0
GlyphClass: 2
Flags: HW
LayerCount: 2
Fore
SplineSet
591 181 m 256
 733 181 834 281 834 443 c 256
 834 592 732 683 603 683 c 256
 440 683 306 550 250 406 c 257
 221 582 l 257
 296 736 441 864 640 864 c 256
 876 864 1054 700 1054 446 c 256
 1054 168 870 -13 587 -13 c 256
 283 -13 113 196 113 567 c 256
 113 994 340 1288 779 1430 c 257
 855 1252 l 257
 485 1133 324 927 324 544 c 256
 324 318 408 181 591 181 c 256
EndSplineSet
EndChar

StartChar: slash
Encoding: 47 47 400
GlifName: slash
Width: 1168
VWidth: 0
GlyphClass: 2
Flags: HW
LayerCount: 2
Fore
SplineSet
785 1418 m 257
 1048 1418 l 257
 384 0 l 257
 121 0 l 257
 785 1418 l 257
EndSplineSet
Substitution2: "'tnum' Tabular Numbers lookup 22 subtable" slash.tnum
Substitution2: "'smcp' Lowercase to Small Capitals in Latin lookup 0 subtable" slash.sc
EndChar

StartChar: slash.fraction
Encoding: 1114191 -1 401
GlifName: slash.fraction
Width: 1750
VWidth: 0
GlyphClass: 2
Flags: HW
LayerCount: 2
Fore
SplineSet
537 0 m 257
 300 0 l 257
 1213 1418 l 257
 1450 1418 l 257
 537 0 l 257
EndSplineSet
EndChar

StartChar: slash.sc
Encoding: 1114192 -1 402
GlifName: slash.sc
Width: 1022
VWidth: 0
GlyphClass: 2
Flags: HW
LayerCount: 2
Fore
SplineSet
637 1063 m 257
 901 1063 l 257
 387 0 l 257
 121 0 l 257
 637 1063 l 257
EndSplineSet
EndChar

StartChar: sterling
Encoding: 163 163 405
GlifName: sterling
Width: 1276
VWidth: 0
GlyphClass: 2
Flags: HW
LayerCount: 2
Fore
SplineSet
677 1234 m 256
 583 1234 520 1187 520 1057 c 258
 520 326 l 258
 520 276 507 228 472 192 c 257
 1159 192 l 257
 1159 0 l 257
 120 0 l 257
 120 191 l 257
 233 191 294 227 294 326 c 258
 294 1059 l 258
 294 1270 421 1429 677 1429 c 256
 941 1429 1063 1273 1056 1075 c 257
 834 1075 l 257
 834 1167 787 1234 677 1234 c 256
EndSplineSet
Refer: 1669 57354 N 1 0 0 1 29 14 2
EndChar

StartChar: t
Encoding: 116 116 406
GlifName: t
Width: 767
VWidth: 0
GlyphClass: 2
Flags: HW
LayerCount: 2
Fore
SplineSet
704 176 m 257
 737 25 l 257
 674 2 602 -11 533 -11 c 256
 361 -11 216 68 216 270 c 258
 216 1351 l 257
 441 1351 l 257
 441 295 l 258
 441 204 497 162 592 162 c 256
 629 162 671 168 704 176 c 257
EndSplineSet
Refer: 1669 57354 N 1 0 0 1 -35 376 2
Substitution2: "'smcp' Lowercase to Small Capitals in Latin lookup 0 subtable" uni1D1B
EndChar

StartChar: three
Encoding: 51 51 410
GlifName: three
Width: 1171
VWidth: 0
GlyphClass: 2
Flags: HW
LayerCount: 2
Fore
SplineSet
87 441 m 257
 309 441 l 257
 300 274 411 177 578 177 c 256
 746 177 844 265 844 418 c 256
 844 568 749 656 563 656 c 258
 455 656 l 257
 455 818 l 257
 563 818 l 258
 721 818 801 899 801 1023 c 256
 801 1150 715 1233 577 1233 c 256
 430 1233 349 1143 356 1011 c 257
 151 1011 l 257
 140 1274 308 1429 582 1429 c 256
 809 1429 1018 1283 1018 1027 c 256
 1018 917 958 803 836 741 c 257
 974 680 1056 548 1056 403 c 256
 1056 135 858 -11 577 -11 c 256
 271 -11 72 150 87 441 c 257
EndSplineSet
Substitution2: "'sups' Superscript lookup 0 subtable" uni00B3
Substitution2: "'subs' Subscript lookup 0 subtable" uni2083
Substitution2: "'sinf' Scientific Inferiors lookup 20 subtable" uni2083
Substitution2: "'tnum' Tabular Numbers lookup 22 subtable" three.tnum
Substitution2: "'onum' Oldstyle Figures lookup 23 subtable" three.onum
Substitution2: "'smcp' Lowercase to Small Capitals in Latin lookup 0 subtable" three.SC
EndChar

StartChar: three.SC
Encoding: 1114194 -1 411
GlifName: three.S_C_
Width: 942
VWidth: 0
GlyphClass: 2
Flags: HW
LayerCount: 2
Fore
SplineSet
87 337 m 257
 279 337 l 257
 279 233 350 174 467 174 c 256
 577 174 646 232 646 330 c 256
 646 433 572 489 442 489 c 258
 364 489 l 257
 366 611 l 257
 450 611 l 258
 561 611 626 668 626 754 c 256
 626 848 556 898 463 898 c 256
 367 898 306 846 306 762 c 257
 134 762 l 257
 123 957 252 1076 463 1076 c 256
 648 1076 798 968 798 776 c 256
 798 697 757 604 669 556 c 257
 768 510 827 412 827 304 c 256
 827 105 668 -4 458 -4 c 256
 228 -4 76 117 87 337 c 257
EndSplineSet
EndChar

StartChar: three.onum
Encoding: 1114195 -1 412
GlifName: three.onum
Width: 1127
VWidth: 0
GlyphClass: 2
Flags: HW
LayerCount: 2
Fore
SplineSet
544 308 m 258
 426 308 l 257
 426 471 l 257
 544 471 l 258
 665 472 764 581 764 688 c 256
 764 810 671 885 545 885 c 256
 416 885 329 808 334 693 c 257
 131 693 l 257
 121 915 296 1073 553 1073 c 256
 796 1073 970 930 970 711 c 256
 970 577 888 466 762 398 c 257
 929 349 1005 222 1005 60 c 256
 1005 -183 824 -340 529 -340 c 256
 223 -340 45 -182 58 102 c 257
 278 102 l 257
 269 -67 372 -154 557 -154 c 256
 716 -154 815 -67 815 71 c 256
 815 195 732 308 544 308 c 258
EndSplineSet
EndChar

StartChar: two
Encoding: 50 50 417
GlifName: two
Width: 1102
VWidth: 0
GlyphClass: 2
Flags: HW
LayerCount: 2
Fore
SplineSet
115 983 m 257
 100 1257 293 1429 562 1429 c 256
 839 1429 1020 1264 1020 1010 c 256
 1020 766 860 645 663 524 c 256
 504 426 351 310 341 192 c 257
 1030 192 l 257
 1030 0 l 257
 98 0 l 257
 92 33 91 65 91 93 c 256
 91 372 338 528 534 650 c 256
 711 760 824 844 824 988 c 256
 824 1138 722 1242 564 1242 c 256
 415 1242 304 1157 309 983 c 257
 115 983 l 257
EndSplineSet
Substitution2: "'sups' Superscript lookup 0 subtable" uni00B2
Substitution2: "'subs' Subscript lookup 0 subtable" uni2082
Substitution2: "'sinf' Scientific Inferiors lookup 20 subtable" uni2082
Substitution2: "'tnum' Tabular Numbers lookup 22 subtable" two.tnum
Substitution2: "'onum' Oldstyle Figures lookup 23 subtable" two.onum
Substitution2: "'smcp' Lowercase to Small Capitals in Latin lookup 0 subtable" two.SC
EndChar

StartChar: two.SC
Encoding: 1114197 -1 418
GlifName: two.S_C_
Width: 915
VWidth: 0
GlyphClass: 2
Flags: HW
LayerCount: 2
Fore
SplineSet
99 710 m 257
 84 922 235 1071 462 1071 c 256
 682 1071 821 938 821 725 c 256
 821 560 735 488 566 387 c 256
 495 344 380 276 358 192 c 257
 828 192 l 257
 828 0 l 257
 91 0 l 257
 61 245 220 380 412 481 c 256
 578 572 631 630 631 717 c 256
 631 819 559 883 453 883 c 256
 346 883 276 817 282 715 c 257
 99 710 l 257
EndSplineSet
EndChar

StartChar: two.onum
Encoding: 1114198 -1 419
GlifName: two.onum
Width: 1044
VWidth: 0
GlyphClass: 2
Flags: HW
LayerCount: 2
Fore
SplineSet
724 701 m 256
 724 808 632 885 504 885 c 256
 376 885 286 807 289 693 c 257
 91 693 l 257
 79 914 257 1073 514 1073 c 256
 755 1073 924 933 924 733 c 256
 924 605 855 500 720 414 c 257
 417 193 l 257
 949 193 l 257
 949 0 l 257
 87 0 l 257
 87 194 l 257
 546 478 l 258
 671 554 724 620 724 701 c 256
EndSplineSet
EndChar

StartChar: u
Encoding: 117 117 422
GlifName: u
Width: 1184
VWidth: 0
GlyphClass: 2
Flags: HW
LayerCount: 2
Fore
SplineSet
822 1063 m 257
 1046 1063 l 257
 1046 0 l 257
 832 0 l 257
 822 280 l 257
 822 1063 l 257
EndSplineSet
Refer: 1672 57357 N -1 0 0 -1 1155 1063 2
Substitution2: "'smcp' Lowercase to Small Capitals in Latin lookup 0 subtable" uni1D1C
EndChar

StartChar: underscore
Encoding: 95 95 431
GlifName: underscore
Width: 1000
VWidth: 0
GlyphClass: 2
Flags: HW
LayerCount: 2
Fore
SplineSet
900 0 m 257
 900 -224 l 257
 100 -224 l 257
 100 0 l 257
 900 0 l 257
EndSplineSet
EndChar

StartChar: uni00AD
Encoding: 173 173 433
GlifName: uni00A_D_
Width: 1062
VWidth: 0
GlyphClass: 2
Flags: HW
LayerCount: 2
Fore
SplineSet
959 684 m 257
 959 517 l 257
 104 517 l 257
 104 684 l 257
 959 684 l 257
EndSplineSet
EndChar

StartChar: uni00B2
Encoding: 178 178 434
GlifName: uni00B_2
Width: 684
VWidth: 0
GlyphClass: 2
Flags: HW
LayerCount: 2
Fore
SplineSet
115 1133 m 257
 115 1231 l 257
 407 1487 l 258
 443 1518 461 1543 461 1596 c 256
 461 1670 406 1711 338 1711 c 256
 268 1711 215 1667 215 1589 c 257
 115 1589 l 257
 115 1739 228 1811 338 1811 c 256
 444 1811 562 1741 562 1596 c 256
 562 1515 524 1455 475 1415 c 258
 269 1234 l 257
 567 1234 l 257
 567 1133 l 257
 115 1133 l 257
EndSplineSet
EndChar

StartChar: uni00B3
Encoding: 179 179 435
GlifName: uni00B_3
Width: 694
VWidth: 0
GlyphClass: 2
Flags: HW
LayerCount: 2
Fore
SplineSet
241 1619 m 257
 140 1619 l 257
 140 1741 224 1811 350 1811 c 256
 458 1811 563 1739 563 1616 c 256
 563 1564 527 1501 464 1477 c 257
 530 1456 579 1391 579 1318 c 256
 579 1187 482 1123 350 1123 c 256
 208 1123 115 1198 115 1329 c 257
 225 1329 l 257
 225 1256 277 1221 350 1221 c 256
 427 1221 472 1254 472 1325 c 256
 472 1397 419 1433 338 1433 c 258
 283 1433 l 257
 283 1519 l 257
 338 1519 l 258
 405 1519 451 1553 451 1613 c 256
 451 1671 410 1710 346 1710 c 256
 282 1710 241 1677 241 1619 c 257
EndSplineSet
EndChar

StartChar: uni00B9
Encoding: 185 185 436
GlifName: uni00B_9
Width: 534
VWidth: 0
GlyphClass: 2
Flags: HW
LayerCount: 2
Fore
SplineSet
115 1547 m 257
 115 1647 l 257
 319 1647 l 257
 319 1801 l 257
 420 1801 l 257
 420 1133 l 257
 319 1133 l 257
 319 1547 l 257
 115 1547 l 257
EndSplineSet
EndChar

StartChar: uni018F
Encoding: 399 399 451
GlifName: uni018F_
Width: 1472
VWidth: 0
GlyphClass: 2
Flags: HW
LayerCount: 2
Fore
SplineSet
1131 578 m 257
 330 578 l 257
 345 351 482 183 734 183 c 256
 965 183 1112 337 1131 578 c 257
1139 759 m 257
 1128 1070 979 1236 727 1236 c 256
 532 1236 399 1136 344 971 c 257
 138 1044 l 257
 222 1275 424 1429 724 1429 c 256
 1148 1429 1367 1123 1367 706 c 256
 1367 300 1159 -12 723 -12 c 256
 288 -12 62 342 104 759 c 257
 1139 759 l 257
EndSplineSet
EndChar

StartChar: uni01B7
Encoding: 439 439 452
GlifName: uni01B_7
Width: 1313
VWidth: 0
GlyphClass: 2
Flags: HW
LayerCount: 2
Fore
SplineSet
631 -487 m 256
 346 -487 126 -350 84 -90 c 257
 308 -77 l 257
 350 -209 468 -295 638 -295 c 256
 888 -295 1007 -147 1007 115 c 256
 1007 413 795 546 506 507 c 257
 416 616 l 257
 910 1226 l 257
 97 1226 l 257
 97 1418 l 257
 1159 1418 l 257
 1159 1248 l 257
 731 713 l 257
 1057 670 1231 465 1231 115 c 256
 1231 -274 1017 -487 631 -487 c 256
EndSplineSet
EndChar

StartChar: uni0237
Encoding: 567 567 544
GlifName: uni0237
Width: 512
VWidth: 0
GlyphClass: 2
Flags: HW
LayerCount: 2
Fore
SplineSet
-153 -426 m 257
 -121 -276 l 257
 -88 -284 -46 -290 -9 -290 c 256
 86 -290 141 -247 141 -156 c 258
 141 1063 l 257
 368 1063 l 257
 368 -182 l 258
 368 -384 222 -462 50 -462 c 256
 -19 -462 -90 -449 -153 -426 c 257
EndSplineSet
EndChar

StartChar: uni0239
Encoding: 569 569 546
GlifName: uni0239
Width: 1755
VWidth: 0
GlyphClass: 2
Flags: HW
LayerCount: 2
Fore
SplineSet
765 1063 m 257
 990 1063 l 257
 990 -458 l 257
 765 -458 l 257
 765 1063 l 257
EndSplineSet
Refer: 1674 57359 N -1 0 0 -1 1118 1061 2
Refer: 1674 57359 N 1 0 0 1 638 0 2
EndChar

StartChar: uni0240
Encoding: 576 576 547
GlifName: uni0240
Width: 990
VWidth: 0
GlyphClass: 2
Flags: HW
LayerCount: 2
Fore
SplineSet
794 -280 m 256
 653 -280 571 -217 496 -150 c 256
 408 -72 317 0 70 0 c 257
 70 169 l 257
 662 869 l 257
 70 869 l 257
 70 1063 l 257
 917 1063 l 257
 917 894 l 257
 285 148 l 257
 443 142 515 86 582 22 c 256
 642 -35 709 -88 794 -88 c 256
 882 -88 926 -44 976 26 c 257
 1126 -84 l 257
 1045 -200 956 -280 794 -280 c 256
EndSplineSet
EndChar

StartChar: uni0255
Encoding: 597 597 550
GlifName: uni0255
Width: 1129
VWidth: 0
GlyphClass: 2
Flags: HW
LayerCount: 2
Fore
SplineSet
603 171 m 256
 424 171 317 283 317 531 c 256
 317 779 425 892 587 892 c 256
 707 892 798 834 829 698 c 257
 1044 747 l 257
 987 958 823 1072 582 1072 c 256
 264 1072 91 860 91 531 c 256
 91 202 264 -11 592 -11 c 256
 824 -11 1023 119 1023 332 c 256
 1023 490 892 589 745 589 c 256
 482 589 290 362 60 17 c 257
 191 -73 l 257
 442 282 570 451 717 451 c 256
 794 451 836 402 836 337 c 256
 836 235 723 171 603 171 c 256
EndSplineSet
EndChar

StartChar: uni0262
Encoding: 610 610 552
GlifName: uni0262
Width: 1113
VWidth: 0
GlyphClass: 2
Flags: HW
LayerCount: 2
Fore
SplineSet
278 531 m 256
 278 289 392 172 603 172 c 256
 707 172 787 205 837 264 c 257
 837 431 l 257
 542 431 l 257
 542 571 l 257
 1034 576 l 257
 1034 190 l 257
 929 60 793 -10 602 -10 c 256
 274 -10 76 184 76 531 c 256
 76 861 265 1073 572 1073 c 256
 778 1073 930 953 990 791 c 257
 828 724 l 257
 792 823 690 890 571 890 c 256
 385 890 278 754 278 531 c 256
EndSplineSet
EndChar

StartChar: uni0274
Encoding: 628 628 555
GlifName: uni0274
Width: 1235
VWidth: 0
GlyphClass: 2
Flags: HW
LayerCount: 2
Fore
SplineSet
864 1063 m 257
 1089 1063 l 257
 1089 0 l 257
 861 0 l 257
 371 752 l 257
 371 0 l 257
 146 0 l 257
 146 1063 l 257
 374 1063 l 257
 864 310 l 257
 864 1063 l 257
EndSplineSet
EndChar

StartChar: uni0280
Encoding: 640 640 556
GlifName: uni0280
Width: 1119
VWidth: 0
GlyphClass: 2
Flags: HW
LayerCount: 2
Fore
SplineSet
379 524 m 257
 546 524 l 258
 694 524 765 575 765 715 c 256
 765 856 693 905 546 905 c 258
 379 905 l 257
 379 524 l 257
379 368 m 257
 379 0 l 257
 154 0 l 257
 154 1063 l 257
 580 1063 l 258
 839 1063 989 945 989 715 c 256
 989 483 838 368 580 368 c 258
 379 368 l 257
608 456 m 257
 807 456 l 257
 1075 0 l 257
 849 0 l 257
 608 456 l 257
EndSplineSet
EndChar

StartChar: uni0283
Encoding: 643 643 557
GlifName: uni0283
Width: 794
VWidth: 0
GlyphClass: 2
Flags: HW
LayerCount: 2
Fore
SplineSet
807 1433 m 257
 766 1285 l 257
 734 1302 688 1313 641 1313 c 256
 546 1313 490 1271 490 1180 c 258
 490 -198 l 258
 490 -400 346 -479 174 -479 c 256
 89 -479 8 -458 -52 -426 c 257
 -11 -279 l 257
 21 -296 67 -306 114 -306 c 256
 209 -306 265 -265 265 -174 c 258
 265 1205 l 258
 265 1407 409 1486 581 1486 c 256
 666 1486 747 1465 807 1433 c 257
EndSplineSet
EndChar

StartChar: uni028F
Encoding: 655 655 558
GlifName: uni028F_
Width: 1036
VWidth: 0
GlyphClass: 2
Flags: HW
LayerCount: 2
Fore
SplineSet
780 1063 m 257
 1039 1063 l 257
 631 457 l 257
 631 0 l 257
 405 0 l 257
 405 457 l 257
 -3 1063 l 257
 258 1063 l 257
 519 644 l 257
 780 1063 l 257
EndSplineSet
EndChar

StartChar: uni0291
Encoding: 657 657 559
GlifName: uni0291
Width: 1462
VWidth: 0
GlyphClass: 2
Flags: HW
LayerCount: 2
Fore
SplineSet
977 192 m 258
 323 192 l 257
 917 894 l 257
 917 1063 l 257
 70 1063 l 257
 70 869 l 257
 662 869 l 257
 70 169 l 257
 70 0 l 257
 967 0 l 258
 1198 0 1397 130 1397 343 c 256
 1397 501 1301 628 1108 628 c 256
 839 628 643 365 297 -170 c 257
 432 -258 l 257
 792 278 945 460 1092 460 c 256
 1165 460 1208 413 1208 350 c 256
 1208 248 1097 192 977 192 c 258
EndSplineSet
EndChar

StartChar: uni0292
Encoding: 658 658 560
GlifName: uni0292
Width: 1129
VWidth: 0
GlyphClass: 2
Flags: HW
LayerCount: 2
Fore
SplineSet
549 -487 m 256
 298 -487 123 -374 78 -124 c 257
 299 -101 l 257
 333 -232 418 -306 547 -306 c 256
 699 -306 815 -220 815 -0 c 256
 815 271 627 321 429 288 c 257
 334 396 l 257
 717 870 l 257
 117 870 l 257
 117 1063 l 257
 992 1063 l 257
 992 894 l 257
 648 471 l 257
 864 448 1041 309 1041 -0 c 256
 1041 -323 853 -487 549 -487 c 256
EndSplineSet
EndChar

StartChar: uni0293
Encoding: 659 659 561
GlifName: uni0293
Width: 1133
VWidth: 0
GlyphClass: 2
Flags: HW
LayerCount: 2
Fore
SplineSet
121 869 m 257
 121 1063 l 257
 996 1063 l 257
 996 894 l 257
 652 471 l 257
 868 448 1045 309 1045 -0 c 256
 1045 -323 831 -488 527 -488 c 256
 291 -488 85 -362 85 -145 c 256
 85 13 216 113 363 113 c 256
 626 113 818 -116 1048 -461 c 257
 918 -549 l 257
 667 -194 537 -27 390 -27 c 256
 313 -27 272 -76 272 -141 c 256
 272 -249 402 -306 526 -306 c 256
 678 -306 819 -220 819 -0 c 256
 819 271 631 321 433 288 c 257
 338 396 l 257
 721 869 l 257
 121 869 l 257
EndSplineSet
EndChar

StartChar: uni0299
Encoding: 665 665 562
GlifName: uni0299
Width: 1091
VWidth: 0
GlyphClass: 2
Flags: HW
LayerCount: 2
Fore
SplineSet
154 1063 m 257
 605 1063 l 258
 833 1063 944 941 944 763 c 256
 944 668 900 592 828 552 c 257
 931 510 994 413 994 296 c 256
 994 107 870 0 671 0 c 258
 154 0 l 257
 154 1063 l 257
381 905 m 257
 381 593 l 257
 578 593 l 258
 682 593 743 643 743 751 c 256
 743 859 680 905 578 905 c 258
 381 905 l 257
381 469 m 257
 381 157 l 257
 601 157 l 258
 705 157 765 204 765 312 c 256
 765 420 703 469 601 469 c 258
 381 469 l 257
EndSplineSet
EndChar

StartChar: uni029C
Encoding: 668 668 563
GlifName: uni029C_
Width: 1226
VWidth: 0
GlyphClass: 2
Flags: HW
LayerCount: 2
Fore
SplineSet
855 1063 m 257
 1081 1063 l 257
 1081 0 l 257
 855 0 l 257
 855 441 l 257
 371 441 l 257
 371 0 l 257
 146 0 l 257
 146 1063 l 257
 371 1063 l 257
 371 622 l 257
 855 622 l 257
 855 1063 l 257
EndSplineSet
EndChar

StartChar: uni029F
Encoding: 671 671 565
GlifName: uni029F_
Width: 946
VWidth: 0
GlyphClass: 2
Flags: HW
LayerCount: 2
Fore
SplineSet
173 1063 m 257
 397 1063 l 257
 397 181 l 257
 894 181 l 257
 894 0 l 257
 173 0 l 257
 173 1063 l 257
EndSplineSet
EndChar

StartChar: uni02C2
Encoding: 706 706 575
GlifName: uni02C_2
Width: 672
VWidth: 0
GlyphClass: 2
Flags: HW
LayerCount: 2
Fore
SplineSet
293 717 m 257
 577 433 l 257
 478 334 l 257
 95 717 l 257
 478 1100 l 257
 577 1001 l 257
 293 717 l 257
EndSplineSet
EndChar

StartChar: uni02C3
Encoding: 707 707 576
GlifName: uni02C_3
Width: 672
VWidth: 0
GlyphClass: 2
Flags: HW
LayerCount: 2
Fore
SplineSet
379 717 m 257
 95 1001 l 257
 194 1100 l 257
 577 717 l 257
 194 334 l 257
 95 433 l 257
 379 717 l 257
EndSplineSet
EndChar

StartChar: uni02C4
Encoding: 708 708 577
GlifName: uni02C_4
Width: 956
VWidth: 0
GlyphClass: 2
Flags: HW
LayerCount: 2
Fore
SplineSet
478 760 m 257
 194 476 l 257
 95 575 l 257
 478 958 l 257
 861 575 l 257
 762 476 l 257
 478 760 l 257
EndSplineSet
EndChar

StartChar: uni02C5
Encoding: 709 709 578
GlifName: uni02C_5
Width: 956
VWidth: 0
GlyphClass: 2
Flags: HW
LayerCount: 2
Fore
SplineSet
478 674 m 257
 762 958 l 257
 861 859 l 257
 478 476 l 257
 95 859 l 257
 194 958 l 257
 478 674 l 257
EndSplineSet
EndChar

StartChar: uni02D2
Encoding: 722 722 579
GlifName: uni02D_2
Width: 492
VWidth: 0
GlyphClass: 2
Flags: HW
LayerCount: 2
Fore
SplineSet
105 1239 m 257
 217 1239 279 1310 279 1410 c 256
 279 1510 218 1579 106 1579 c 257
 106 1688 l 257
 275 1688 388 1579 388 1410 c 256
 388 1241 275 1131 105 1131 c 257
 105 1239 l 257
EndSplineSet
EndChar

StartChar: uni02D3
Encoding: 723 723 580
GlifName: uni02D_3
Width: 582
VWidth: 0
GlyphClass: 2
Flags: HW
LayerCount: 2
Fore
SplineSet
433 1579 m 257
 321 1579 259 1510 259 1410 c 256
 259 1310 320 1239 432 1239 c 257
 432 1131 l 257
 263 1131 150 1241 150 1410 c 256
 150 1579 263 1688 433 1688 c 257
 433 1579 l 257
EndSplineSet
EndChar

StartChar: uni031B
Encoding: 795 795 584
GlifName: uni031B_
Width: 687
VWidth: 0
GlyphClass: 2
Flags: HW
LayerCount: 2
Fore
SplineSet
490 1567 m 257
 516 1485 537 1406 537 1328 c 256
 537 1209 463 1133 304 1133 c 258
 150 1133 l 257
 150 1246 l 257
 314 1246 l 258
 395 1246 420 1273 420 1329 c 256
 420 1378 402 1455 379 1527 c 257
 490 1567 l 257
EndSplineSet
EndChar

StartChar: uni0600
Encoding: 1536 1536 585
GlifName: uni0600
Width: 2990
VWidth: 0
GlyphClass: 2
Flags: HW
LayerCount: 2
Fore
SplineSet
2242 225 m 257
 2205 259 2186 310 2186 371 c 256
 2186 563 2295 746 2464 939 c 257
 2631 793 l 257
 2481 623 2410 491 2410 382 c 256
 2410 260 2508 210 2661 175 c 258
 2904 123 l 257
 2836 -98 l 257
 2600 -27 2458 0 2337 0 c 258
 88 0 l 257
 88 225 l 257
 2242 225 l 257
EndSplineSet
EndChar

StartChar: uni0601
Encoding: 1537 1537 586
GlifName: uni0601
Width: 3950
VWidth: 0
GlyphClass: 2
Flags: HW
LayerCount: 2
Fore
SplineSet
87 289 m 257
 268 382 l 257
 328 251 358 199 421 199 c 256
 481 199 508 269 546 375 c 256
 630 592 709 724 870 724 c 256
 1010 724 1108 618 1229 435 c 256
 1324 292 1397 200 1506 200 c 256
 1620 200 1691 321 1765 503 c 257
 1901 522 l 257
 2102 288 2382 200 2613 200 c 256
 2851 200 3049 302 3263 445 c 256
 3434 560 3518 601 3618 601 c 256
 3760 601 3861 494 3861 349 c 256
 3861 225 3794 99 3634 -66 c 257
 3499 65 l 257
 3581 140 3617 205 3617 259 c 256
 3617 304 3589 332 3550 332 c 256
 3504 332 3466 310 3369 245 c 256
 3142 94 2892 -25 2615 -25 c 256
 2384 -25 2112 44 1874 247 c 257
 1785 92 1683 -25 1505 -25 c 256
 1312 -25 1183 108 1045 319 c 256
 976 423 924 491 863 491 c 256
 791 491 761 412 722 299 c 256
 645 90 571 -25 412 -25 c 256
 258 -25 190 61 87 289 c 257
EndSplineSet
EndChar

StartChar: uni0603
Encoding: 1539 1539 587
GlifName: uni0603
Width: 2055
VWidth: 0
GlyphClass: 2
Flags: HW
LayerCount: 2
Fore
SplineSet
87 0 m 257
 87 225 l 257
 386 225 561 357 652 749 c 257
 871 700 l 257
 761 214 519 0 87 0 c 257
1724 424 m 256
 1724 523 1658 591 1549 591 c 256
 1431 591 1277 497 1111 256 c 257
 959 354 l 257
 1187 681 1389 814 1585 814 c 256
 1821 814 1969 648 1969 421 c 256
 1969 123 1731 0 1386 0 c 256
 1046 0 813 125 599 376 c 257
 751 544 l 257
 956 333 1149 224 1408 224 c 256
 1583 224 1724 270 1724 424 c 256
EndSplineSet
EndChar

StartChar: uni0604
Encoding: 1540 1540 588
GlifName: uni0604
Width: 2878
VWidth: 0
GlyphClass: 2
Flags: HW
LayerCount: 2
Fore
SplineSet
1285 -185 m 257
 1063 -73 910 0 684 0 c 258
 88 0 l 257
 88 225 l 257
 590 225 l 258
 646 225 694 219 746 204 c 257
 709 250 693 309 693 368 c 256
 693 619 882 848 1136 848 c 256
 1344 848 1447 730 1545 615 c 256
 1641 501 1713 425 1869 425 c 256
 2004 425 2066 490 2066 631 c 258
 2066 859 l 257
 2263 859 l 257
 2263 631 l 258
 2263 501 2303 425 2420 425 c 256
 2536 425 2568 500 2568 611 c 256
 2568 693 2552 813 2531 908 c 257
 2751 954 l 257
 2778 832 2790 724 2790 598 c 256
 2790 348 2685 200 2448 200 c 256
 2281 200 2196 271 2168 383 c 257
 2140 271 2061 200 1886 200 c 256
 1660 200 1542 327 1436 444 c 256
 1351 538 1273 622 1150 622 c 256
 996 622 916 501 916 366 c 256
 916 215 1093 140 1236 81 c 256
 1290 58 1339 36 1384 16 c 257
 1285 -185 l 257
EndSplineSet
EndChar

StartChar: uni060C
Encoding: 1548 1548 592
GlifName: uni060C_
Width: 606
VWidth: 0
GlyphClass: 2
Flags: HW
LayerCount: 2
Fore
SplineSet
284 283 m 257
 386 295 461 239 461 142 c 256
 461 56 400 -6 319 -6 c 256
 216 -6 147 70 147 204 c 256
 147 372 223 522 349 641 c 257
 434 555 l 257
 352 471 297 388 284 283 c 257
EndSplineSet
EndChar

StartChar: uni060D
Encoding: 1549 1549 593
GlifName: uni060D_
Width: 881
VWidth: 0
GlyphClass: 2
Flags: HW
LayerCount: 2
Fore
SplineSet
254 -640 m 257
 12 -640 l 257
 521 660 l 257
 762 660 l 257
 254 -640 l 257
EndSplineSet
EndChar

StartChar: uni060E
Encoding: 1550 1550 594
GlifName: uni060E_
Width: 2196
VWidth: 0
GlyphClass: 2
Flags: HW
LayerCount: 2
Fore
SplineSet
1053 415 m 256
 1053 223 939 47 852 -68 c 257
 677 67 l 257
 747 158 829 281 829 396 c 256
 829 542 728 635 580 635 c 256
 444 635 311 528 311 362 c 256
 311 199 476 141 654 141 c 258
 2108 141 l 257
 2108 -83 l 257
 650 -83 l 258
 329 -83 88 59 88 351 c 256
 88 653 329 860 580 860 c 256
 849 860 1053 679 1053 415 c 256
EndSplineSet
EndChar

StartChar: uni060F
Encoding: 1551 1551 595
GlifName: uni060F_
Width: 1540
VWidth: 0
GlyphClass: 2
Flags: HW
LayerCount: 2
Fore
SplineSet
824 -743 m 256
 414 -743 88 -549 88 -186 c 256
 88 55 241 263 501 393 c 257
 319 434 183 565 183 762 c 256
 183 1046 408 1252 672 1252 c 256
 834 1252 968 1182 1066 1081 c 257
 942 916 l 257
 881 978 791 1027 677 1027 c 256
 537 1027 410 929 410 773 c 256
 410 613 560 547 811 547 c 256
 892 547 1004 558 1110 569 c 257
 1122 348 l 257
 679 324 313 149 313 -176 c 256
 313 -409 559 -519 838 -519 c 256
 1030 -519 1207 -464 1207 -314 c 256
 1207 -217 1141 -149 1031 -149 c 256
 913 -149 766 -234 603 -480 c 257
 332 -884 l 257
 169 -774 l 257
 452 -384 l 257
 669 -69 889 63 1085 63 c 256
 1311 63 1452 -94 1452 -307 c 256
 1452 -599 1173 -743 824 -743 c 256
EndSplineSet
EndChar

StartChar: uni0615.alt
Encoding: 1114200 -1 597
GlifName: uni0615.alt
Width: 746
VWidth: 0
GlyphClass: 2
Flags: HW
LayerCount: 2
Fore
SplineSet
323 78 m 257
 390 78 l 258
 457 78 534 86 534 145 c 256
 534 178 512 201 476 201 c 256
 430 201 381 157 323 78 c 257
232 78 m 257
 232 413 l 257
 310 413 l 257
 310 163 l 257
 371 236 422 279 491 279 c 256
 558 279 613 231 613 145 c 256
 613 33 512 0 390 -0 c 258
 133 -0 l 257
 133 78 l 257
 232 78 l 257
EndSplineSet
EndChar

StartChar: uni061C
Encoding: 1564 1564 599
GlifName: uni061C_
Width: 2443
VWidth: 0
GlyphClass: 2
Flags: HW
LayerCount: 2
Fore
SplineSet
876 1119 m 257
 1109 1119 l 257
 1109 1047 l 257
 876 1047 l 257
 876 1119 l 257
1342 1119 m 257
 1575 1119 l 257
 1575 1047 l 257
 1342 1047 l 257
 1342 1119 l 257
2171 1047 m 257
 1808 1047 l 257
 1808 1119 l 257
 2243 1117 l 257
 2243 809 l 257
 2171 809 l 257
 2171 1047 l 257
200 1119 m 257
 643 1119 l 257
 643 1047 l 257
 272 1049 l 257
 272 811 l 257
 200 811 l 257
 200 1119 l 257
1577 -280 m 257
 1344 -280 l 257
 1344 -208 l 257
 1577 -208 l 257
 1577 -280 l 257
200 -280 m 257
 645 -280 l 257
 645 -208 l 257
 272 -208 l 257
 272 30 l 257
 200 30 l 257
 200 -280 l 257
2171 -208 m 257
 1810 -208 l 257
 1810 -280 l 257
 2243 -280 l 257
 2243 28 l 257
 2171 28 l 257
 2171 -208 l 257
1111 -280 m 257
 878 -280 l 257
 878 -208 l 257
 1111 -208 l 257
 1111 -280 l 257
2171 261 m 257
 2171 576 l 257
 2243 576 l 257
 2243 261 l 257
 2171 261 l 257
272 578 m 257
 272 263 l 257
 200 263 l 257
 200 578 l 257
 272 578 l 257
EndSplineSet
Refer: 1334 7437 N 0.5 0 0 0.5 1317 146 2
Refer: 1327 7424 N 0.5 0 0 0.5 386 146 2
Refer: 565 671 N 0.5 0 0 0.5 860 146 2
EndChar

StartChar: uni061F
Encoding: 1567 1567 601
GlifName: uni061F_
Width: 1110
VWidth: 0
GlyphClass: 2
Flags: HW
LayerCount: 2
Fore
SplineSet
583 -11 m 256
 505 -11 444 51 444 127 c 256
 444 203 505 262 583 262 c 256
 661 262 723 203 723 127 c 256
 723 51 661 -11 583 -11 c 256
760 904 m 257
 768 939 772 984 772 1022 c 256
 772 1142 701 1231 571 1231 c 256
 435 1231 357 1140 357 1014 c 256
 357 908 405 845 499 769 c 256
 606 681 696 604 696 441 c 257
 485 441 l 257
 485 565 413 629 328 699 c 256
 236 776 146 860 146 1039 c 256
 146 1224 296 1412 566 1412 c 256
 815 1412 965 1263 965 1046 c 256
 965 1002 960 947 947 899 c 257
 760 904 l 257
EndSplineSet
Substitution2: "'tnum' Tabular Numbers lookup 22 subtable" uni061F.tnum
EndChar

StartChar: uni0652.alt
Encoding: 1114236 -1 688
GlifName: uni0652.alt
Width: 418
VWidth: 0
GlyphClass: 2
Flags: HW
LayerCount: 2
Fore
SplineSet
209 208 m 256
 162 208 140 182 140 139 c 256
 140 96 163 68 209 68 c 256
 254 68 279 98 279 139 c 256
 279 180 256 208 209 208 c 256
209 276 m 256
 292 276 348 219 348 139 c 256
 348 59 293 0 209 0 c 256
 125 0 71 60 71 139 c 256
 71 218 125 276 209 276 c 256
EndSplineSet
EndChar

StartChar: uni0660
Encoding: 1632 1632 702
GlifName: uni0660
Width: 712
VWidth: 0
GlyphClass: 2
Flags: HW
LayerCount: 2
Fore
SplineSet
355 681 m 257
 125 449 l 257
 355 216 l 257
 587 449 l 257
 355 681 l 257
EndSplineSet
PairPos2: "'kern' Horizontal Kerning in Arabic lookup 7 subtable" uni0662 dx=-111 dy=0 dh=-111 dv=0 dx=0 dy=0 dh=0 dv=0
PairPos2: "'kern' Horizontal Kerning in Arabic lookup 7 subtable" uni0667 dx=-89 dy=0 dh=-89 dv=0 dx=0 dy=0 dh=0 dv=0
PairPos2: "'kern' Horizontal Kerning in Arabic lookup 7 subtable" uni0661 dx=45 dy=0 dh=45 dv=0 dx=0 dy=0 dh=0 dv=0
Substitution2: "'tnum' Tabular Numbers lookup 22 subtable" uni0660.tnum
EndChar

StartChar: uni0661
Encoding: 1633 1633 704
GlifName: uni0661
Width: 701
VWidth: 0
GlyphClass: 2
Flags: HW
LayerCount: 2
Fore
SplineSet
562 0 m 257
 337 0 l 257
 337 533 271 889 89 1352 c 257
 304 1433 l 257
 489 953 562 556 562 0 c 257
EndSplineSet
PairPos2: "'kern' Horizontal Kerning in Arabic lookup 7 subtable" uni0665 dx=-56 dy=0 dh=-56 dv=0 dx=0 dy=0 dh=0 dv=0
Substitution2: "'tnum' Tabular Numbers lookup 22 subtable" uni0661.tnum
EndChar

StartChar: uni0662
Encoding: 1634 1634 706
GlifName: uni0662
Width: 1207
VWidth: 0
GlyphClass: 2
Flags: HW
LayerCount: 2
Fore
SplineSet
618 964 m 256
 773 964 817 1066 841 1289 c 258
 857 1423 l 257
 1078 1391 l 257
 1047 1082 1004 742 652 742 c 256
 589 742 531 762 489 799 c 257
 542 548 561 294 561 0 c 257
 336 0 l 257
 336 510 279 866 89 1352 c 257
 304 1433 l 257
 356 1289 l 258
 449 1040 500 964 618 964 c 256
EndSplineSet
Substitution2: "'tnum' Tabular Numbers lookup 22 subtable" uni0662.tnum
EndChar

StartChar: uni0663
Encoding: 1635 1635 708
GlifName: uni0663
Width: 1530
VWidth: 0
GlyphClass: 2
Flags: HW
LayerCount: 2
Fore
SplineSet
573 956 m 256
 662 956 705 1021 715 1157 c 256
 719 1257 722 1314 723 1386 c 257
 897 1383 l 257
 890 1310 884 1244 884 1138 c 256
 884 1014 928 956 1029 956 c 256
 1130 956 1163 1021 1163 1140 c 256
 1163 1217 1154 1304 1140 1398 c 257
 1360 1435 l 257
 1376 1342 1386 1254 1386 1172 c 256
 1386 915 1293 730 1047 730 c 256
 919 730 821 797 793 907 c 257
 769 798 698 731 597 730 c 256
 545 730 517 748 489 784 c 257
 540 530 555 286 555 0 c 257
 329 0 l 257
 329 542 256 929 89 1355 c 257
 304 1433 l 257
 365 1212 l 257
 430 1031 476 956 573 956 c 256
EndSplineSet
PairPos2: "'kern' Horizontal Kerning in Arabic lookup 7 subtable" uni0668 dx=-56 dy=0 dh=-56 dv=0 dx=0 dy=0 dh=0 dv=0
Substitution2: "'tnum' Tabular Numbers lookup 22 subtable" uni0663.tnum
EndChar

StartChar: uni0664
Encoding: 1636 1636 710
GlifName: uni0664
Width: 1035
VWidth: 0
GlyphClass: 2
Flags: HW
LayerCount: 2
Fore
SplineSet
421 721 m 257
 269 758 179 845 179 974 c 256
 179 1241 470 1396 770 1433 c 257
 795 1217 l 257
 525 1189 408 1081 408 980 c 256
 408 873 526 828 794 828 c 257
 794 636 l 257
 520 636 340 522 340 373 c 256
 340 247 460 220 595 220 c 258
 906 220 l 257
 906 0 l 257
 587 0 l 258
 325 0 115 84 115 341 c 256
 115 495 219 654 421 721 c 257
EndSplineSet
PairPos2: "'kern' Horizontal Kerning in Arabic lookup 7 subtable" uni0666 dx=56 dy=0 dh=56 dv=0 dx=0 dy=0 dh=0 dv=0
Substitution2: "'tnum' Tabular Numbers lookup 22 subtable" uni0664.tnum
EndChar

StartChar: uni0664.urdu
Encoding: 1114242 -1 712
GlifName: uni0664.urdu
Width: 1190
VWidth: 0
GlyphClass: 2
Flags: HW
LayerCount: 2
Fore
SplineSet
1104 1244 m 257
 957 1159 837 1068 737 953 c 257
 628 954 l 257
 491 1140 l 258
 462 1179 427 1197 393 1197 c 256
 341 1197 296 1155 296 1102 c 256
 296 1081 304 1056 321 1032 c 258
 643 492 l 258
 695 404 728 301 728 197 c 256
 728 115 709 32 670 -47 c 257
 463 42 l 257
 490 92 504 141 504 191 c 256
 504 255 482 318 449 376 c 258
 133 921 l 258
 93 984 70 1050 70 1117 c 256
 70 1290 212 1429 381 1429 c 256
 486 1429 576 1376 641 1296 c 258
 693 1227 l 257
 778 1307 890 1379 991 1438 c 257
 1104 1244 l 257
EndSplineSet
Substitution2: "'tnum' Tabular Numbers lookup 22 subtable" uni0664.urdu.tnum
EndChar

StartChar: uni0665
Encoding: 1637 1637 714
GlifName: uni0665
Width: 1314
VWidth: 0
GlyphClass: 2
Flags: HW
LayerCount: 2
Fore
SplineSet
549 1433 m 257
 847 1199 1184 846 1184 438 c 256
 1184 111 965 -17 663 -17 c 256
 373 -17 131 109 131 420 c 256
 131 696 278 938 529 1155 c 257
 497 1186 445 1232 408 1261 c 257
 549 1433 l 257
659 1022 m 257
 437 819 355 617 355 443 c 256
 355 278 456 209 663 209 c 256
 872 209 959 273 959 447 c 256
 959 619 846 831 659 1022 c 257
EndSplineSet
PairPos2: "'kern' Horizontal Kerning in Arabic lookup 7 subtable" uni0667 dx=-111 dy=0 dh=-111 dv=0 dx=0 dy=0 dh=0 dv=0
PairPos2: "'kern' Horizontal Kerning in Arabic lookup 7 subtable" uni0661 dx=56 dy=0 dh=56 dv=0 dx=0 dy=0 dh=0 dv=0
Substitution2: "'tnum' Tabular Numbers lookup 22 subtable" uni0665.tnum
EndChar

StartChar: uni0666
Encoding: 1638 1638 716
GlifName: uni0666
Width: 1190
VWidth: 0
GlyphClass: 2
Flags: HW
LayerCount: 2
Fore
SplineSet
115 1186 m 257
 115 1418 l 257
 844 1418 l 257
 976 1271 l 257
 973 1188 970 1111 970 1009 c 256
 970 598 1004 399 1103 49 c 257
 884 -5 l 257
 783 359 745 583 745 1009 c 256
 745 1063 746 1128 748 1186 c 257
 115 1186 l 257
EndSplineSet
PairPos2: "'kern' Horizontal Kerning in Arabic lookup 7 subtable" uni0668 dx=-222 dy=0 dh=-222 dv=0 dx=0 dy=0 dh=0 dv=0
PairPos2: "'kern' Horizontal Kerning in Arabic lookup 7 subtable" uni066B dx=-167 dy=0 dh=-167 dv=0 dx=0 dy=0 dh=0 dv=0
PairPos2: "'kern' Horizontal Kerning in Arabic lookup 7 subtable" uni0660 dx=-222 dy=0 dh=-222 dv=0 dx=0 dy=0 dh=0 dv=0
PairPos2: "'kern' Horizontal Kerning in Arabic lookup 7 subtable" uni0665 dx=-195 dy=0 dh=-195 dv=0 dx=0 dy=0 dh=0 dv=0
PairPos2: "'kern' Horizontal Kerning in Arabic lookup 7 subtable" uni0664 dx=-56 dy=0 dh=-56 dv=0 dx=0 dy=0 dh=0 dv=0
Substitution2: "'tnum' Tabular Numbers lookup 22 subtable" uni0666.tnum
EndChar

StartChar: uni0667
Encoding: 1639 1639 718
GlifName: uni0667
Width: 1417
VWidth: 0
GlyphClass: 2
Flags: HW
LayerCount: 2
Fore
SplineSet
1145 1459 m 257
 1323 1319 l 257
 1041 953 874 593 809 0 c 257
 609 0 l 257
 544 593 377 953 95 1319 c 257
 274 1459 l 257
 484 1187 659 791 709 417 c 257
 759 791 935 1187 1145 1459 c 257
EndSplineSet
PairPos2: "'kern' Horizontal Kerning in Arabic lookup 7 subtable" uni066B dx=-139 dy=0 dh=-139 dv=0 dx=0 dy=0 dh=0 dv=0
PairPos2: "'kern' Horizontal Kerning in Arabic lookup 7 subtable" uni0668 dx=-167 dy=0 dh=-167 dv=0 dx=0 dy=0 dh=0 dv=0
PairPos2: "'kern' Horizontal Kerning in Arabic lookup 7 subtable" uni0665 dx=-111 dy=0 dh=-111 dv=0 dx=0 dy=0 dh=0 dv=0
PairPos2: "'kern' Horizontal Kerning in Arabic lookup 7 subtable" uni0660 dx=-111 dy=0 dh=-111 dv=0 dx=0 dy=0 dh=0 dv=0
Substitution2: "'tnum' Tabular Numbers lookup 22 subtable" uni0667.tnum
Substitution2: "'locl' Localized Forms in Arabic lookup 5 subtable" uni0667.urdu
EndChar

StartChar: uni0667.urdu
Encoding: 1114247 -1 720
GlifName: uni0667.urdu
Width: 1193
VWidth: 0
GlyphClass: 2
Flags: HW
LayerCount: 2
Fore
SplineSet
1027 290 m 257
 1107 81 l 257
 948 21 783 -10 614 -10 c 256
 460 -10 306 18 148 68 c 257
 86 235 l 257
 274 554 400 1007 458 1435 c 257
 681 1405 l 257
 627 1004 517 582 352 251 c 257
 445 228 533 216 620 216 c 256
 763 216 894 239 1027 290 c 257
EndSplineSet
Substitution2: "'tnum' Tabular Numbers lookup 22 subtable" uni0667.urdu.tnum
EndChar

StartChar: uni0668
Encoding: 1640 1640 722
GlifName: uni0668
Width: 1417
VWidth: 0
GlyphClass: 2
Flags: HW
LayerCount: 2
Fore
SplineSet
274 -31 m 257
 95 108 l 257
 377 474 544 835 609 1428 c 257
 809 1428 l 257
 874 835 1041 474 1323 108 c 257
 1145 -31 l 257
 935 241 759 636 709 1010 c 257
 659 636 484 241 274 -31 c 257
EndSplineSet
PairPos2: "'kern' Horizontal Kerning in Arabic lookup 7 subtable" uni0667 dx=-167 dy=0 dh=-167 dv=0 dx=0 dy=0 dh=0 dv=0
PairPos2: "'kern' Horizontal Kerning in Arabic lookup 7 subtable" uni0662 dx=-195 dy=0 dh=-195 dv=0 dx=0 dy=0 dh=0 dv=0
PairPos2: "'kern' Horizontal Kerning in Arabic lookup 7 subtable" uni0663 dx=-222 dy=0 dh=-222 dv=0 dx=0 dy=0 dh=0 dv=0
Substitution2: "'tnum' Tabular Numbers lookup 22 subtable" uni0668.tnum
EndChar

StartChar: uni0669
Encoding: 1641 1641 724
GlifName: uni0669
Width: 1134
VWidth: 0
GlyphClass: 2
Flags: HW
LayerCount: 2
Fore
SplineSet
701 615 m 257
 642 596 583 586 510 586 c 256
 317 586 120 667 120 947 c 256
 120 1174 235 1435 513 1435 c 256
 829 1435 896 1193 903 837 c 257
 909 483 947 284 1036 83 c 257
 829 -8 l 257
 754 181 712 399 701 615 c 257
685 828 m 257
 685 855 l 258
 685 1093 641 1209 509 1209 c 256
 411 1209 331 1113 331 960 c 256
 331 849 391 806 523 806 c 256
 585 806 634 813 685 828 c 257
EndSplineSet
PairPos2: "'kern' Horizontal Kerning in Arabic lookup 7 subtable" uni0665 dx=-56 dy=0 dh=-56 dv=0 dx=0 dy=0 dh=0 dv=0
PairPos2: "'kern' Horizontal Kerning in Arabic lookup 7 subtable" uni0668 dx=-167 dy=0 dh=-167 dv=0 dx=0 dy=0 dh=0 dv=0
Substitution2: "'tnum' Tabular Numbers lookup 22 subtable" uni0669.tnum
EndChar

StartChar: uni066B
Encoding: 1643 1643 728
GlifName: uni066B_
Width: 881
VWidth: 0
GlyphClass: 2
Flags: HW
LayerCount: 2
Fore
SplineSet
254 -640 m 257
 13 -640 l 257
 522 661 l 257
 762 660 l 257
 254 -640 l 257
EndSplineSet
PairPos2: "'kern' Horizontal Kerning in Arabic lookup 7 subtable" uni0667 dx=-111 dy=0 dh=-111 dv=0 dx=0 dy=0 dh=0 dv=0
PairPos2: "'kern' Horizontal Kerning in Arabic lookup 7 subtable" uni0662 dx=-111 dy=0 dh=-111 dv=0 dx=0 dy=0 dh=0 dv=0
PairPos2: "'kern' Horizontal Kerning in Arabic lookup 7 subtable" uni0663 dx=-167 dy=0 dh=-167 dv=0 dx=0 dy=0 dh=0 dv=0
PairPos2: "'kern' Horizontal Kerning in Arabic lookup 7 subtable" uni066B dx=-56 dy=0 dh=-56 dv=0 dx=0 dy=0 dh=0 dv=0
PairPos2: "'kern' Horizontal Kerning in Arabic lookup 7 subtable" uni06F2 dx=-111 dy=0 dh=-111 dv=0 dx=0 dy=0 dh=0 dv=0
PairPos2: "'kern' Horizontal Kerning in Arabic lookup 7 subtable" uni06F3 dx=-84 dy=0 dh=-84 dv=0 dx=0 dy=0 dh=0 dv=0
PairPos2: "'kern' Horizontal Kerning in Arabic lookup 7 subtable" uni06F0 dx=-56 dy=0 dh=-56 dv=0 dx=0 dy=0 dh=0 dv=0
PairPos2: "'kern' Horizontal Kerning in Arabic lookup 7 subtable" uni06F7 dx=-111 dy=0 dh=-111 dv=0 dx=0 dy=0 dh=0 dv=0
Substitution2: "'tnum' Tabular Numbers lookup 22 subtable" uni066B.tnum
EndChar

StartChar: uni066C
Encoding: 1644 1644 730
GlifName: uni066C_
Width: 637
VWidth: 0
GlyphClass: 2
Flags: HW
LayerCount: 2
Fore
SplineSet
339 0 m 257
 249 1 186 47 186 127 c 256
 186 200 243 252 321 252 c 256
 405 252 464 192 464 77 c 256
 464 -72 394 -204 258 -306 c 257
 181 -218 l 257
 252 -163 322 -77 339 0 c 257
EndSplineSet
Substitution2: "'tnum' Tabular Numbers lookup 22 subtable" uni066C.tnum
EndChar

StartChar: uni066D
Encoding: 1645 1645 732
GlifName: uni066D_
Width: 989
VWidth: 0
GlyphClass: 2
Flags: HW
LayerCount: 2
Fore
SplineSet
576 690 m 257
 415 690 l 257
 425 1026 l 257
 140 852 l 257
 58 991 l 257
 353 1150 l 257
 58 1311 l 257
 140 1449 l 257
 425 1276 l 257
 415 1609 l 257
 576 1609 l 257
 567 1276 l 257
 852 1449 l 257
 932 1311 l 257
 639 1150 l 257
 932 991 l 257
 852 852 l 257
 567 1026 l 257
 576 690 l 257
EndSplineSet
Substitution2: "'tnum' Tabular Numbers lookup 22 subtable" uni066D.tnum
EndChar

StartChar: uni06DD
Encoding: 1757 1757 985
GlifName: uni06D_D_
Width: 0
VWidth: 0
GlyphClass: 2
Flags: H
LayerCount: 2
Fore
SplineSet
1032 641 m 256
 1032 423 1043 164 1072 -89 c 256
 1072 -90 1072 -91 1072 -92 c 256
 1072 -105 1062 -116 1050 -118 c 256
 804 -163 654 -227 520 -286 c 256
 364 -354 209 -411 0 -411 c 256
 -209 -411 -364 -354 -520 -286 c 256
 -654 -227 -804 -163 -1050 -118 c 256
 -1062 -116 -1072 -105 -1072 -92 c 256
 -1072 -91 -1072 -90 -1072 -89 c 256
 -1043 164 -1032 423 -1032 641 c 256
 -1032 859 -1043 1119 -1072 1372 c 256
 -1072 1373 -1072 1374 -1072 1375 c 256
 -1072 1388 -1062 1399 -1050 1401 c 256
 -804 1446 -654 1510 -520 1569 c 256
 -364 1637 -209 1694 0 1694 c 256
 209 1694 364 1637 520 1569 c 256
 654 1510 804 1446 1050 1401 c 256
 1062 1399 1072 1388 1072 1375 c 256
 1072 1374 1072 1373 1072 1372 c 256
 1043 1119 1032 859 1032 641 c 256
0 1594 m 256
 -189 1594 -328 1544 -475 1479 c 256
 -598 1425 -743 1363 -969 1320 c 257
 -943 1084 -933 843 -933 641 c 256
 -933 439 -943 199 -969 -37 c 257
 -743 -80 -598 -142 -475 -196 c 256
 -328 -261 -189 -311 0 -311 c 256
 189 -311 328 -261 475 -196 c 256
 598 -142 743 -80 969 -37 c 257
 943 199 933 439 933 641 c 256
 933 843 943 1084 969 1320 c 257
 743 1363 598 1425 475 1479 c 256
 328 1544 189 1594 0 1594 c 256
EndSplineSet
EndChar

StartChar: uni06DE
Encoding: 1758 1758 986
GlifName: uni06D_E_
Width: 2663
VWidth: 0
GlyphClass: 2
Flags: HW
LayerCount: 2
Fore
SplineSet
1331 1485 m 256
 1371 1485 1404 1451 1404 1411 c 256
 1404 1371 1371 1337 1331 1337 c 256
 1291 1337 1257 1371 1257 1411 c 256
 1257 1451 1291 1485 1331 1485 c 256
1331 -117 m 256
 1371 -117 1405 -151 1405 -191 c 256
 1405 -231 1371 -265 1331 -265 c 256
 1291 -265 1258 -231 1258 -191 c 256
 1258 -151 1291 -117 1331 -117 c 256
530 683 m 256
 570 683 604 650 604 610 c 256
 604 570 570 536 530 536 c 256
 490 536 456 570 456 610 c 256
 456 650 490 683 530 683 c 256
2132 684 m 256
 2172 684 2206 650 2206 610 c 256
 2206 570 2172 537 2132 537 c 256
 2092 537 2058 570 2058 610 c 256
 2058 650 2092 684 2132 684 c 256
790 1224 m 256
 829 1224 864 1189 864 1150 c 256
 864 1111 829 1077 790 1077 c 256
 751 1077 717 1111 717 1150 c 256
 717 1189 751 1224 790 1224 c 256
1872 143 m 256
 1911 143 1945 109 1945 70 c 256
 1945 31 1911 -4 1872 -4 c 256
 1833 -4 1798 31 1798 70 c 256
 1798 109 1833 143 1872 143 c 256
791 143 m 256
 830 143 864 108 864 69 c 256
 864 30 830 -4 791 -4 c 256
 752 -4 717 30 717 69 c 256
 717 108 752 143 791 143 c 256
1871 1224 m 256
 1910 1224 1945 1190 1945 1151 c 256
 1945 1112 1910 1077 1871 1077 c 256
 1832 1077 1798 1112 1798 1151 c 256
 1798 1190 1832 1224 1871 1224 c 256
1332 1670 m 257
 1021 1360 l 257
 581 1360 l 257
 581 921 l 257
 271 610 l 257
 581 299 l 257
 581 -140 l 257
 1021 -140 l 257
 1332 -450 l 257
 1642 -140 l 257
 2081 -140 l 257
 2081 299 l 257
 2392 610 l 257
 2081 921 l 257
 2081 1360 l 257
 1642 1360 l 257
 1332 1670 l 257
1331 1798 m 257
 1680 1450 l 257
 2171 1450 l 257
 2171 959 l 257
 2520 610 l 257
 2171 261 l 257
 2171 -230 l 257
 1680 -230 l 257
 1331 -578 l 257
 983 -230 l 257
 491 -230 l 257
 491 262 l 257
 143 610 l 257
 491 958 l 257
 491 1450 l 257
 983 1450 l 257
 1331 1798 l 257
EndSplineSet
Refer: 1700 57390 N 1 0 0 1 875 119 2
EndChar

StartChar: uni06DF
Encoding: 1759 1759 987
GlifName: uni06D_F_
Width: 0
VWidth: 0
GlyphClass: 2
Flags: H
LayerCount: 2
Fore
SplineSet
-82 1464 m 256
 -82 1509 -45 1545 0 1545 c 256
 45 1545 82 1509 82 1464 c 256
 82 1419 45 1382 0 1382 c 256
 -45 1382 -82 1419 -82 1464 c 256
EndSplineSet
EndChar

StartChar: uni06E0
Encoding: 1760 1760 988
GlifName: uni06E_0
Width: 0
VWidth: 0
GlyphClass: 2
Flags: H
LayerCount: 2
Fore
SplineSet
-82 1382 m 257
 -82 1545 l 257
 82 1545 l 257
 82 1382 l 257
 -82 1382 l 257
EndSplineSet
EndChar

StartChar: uni06E9
Encoding: 1769 1769 997
GlifName: uni06E_9
Width: 1236
VWidth: 0
GlyphClass: 2
Flags: HW
LayerCount: 2
Fore
SplineSet
345 67 m 257
 345 687 l 257
 108 957 l 257
 618 1424 l 257
 1128 957 l 257
 891 687 l 257
 891 67 l 257
 1061 67 l 257
 1061 0 l 257
 175 0 l 257
 175 67 l 257
 345 67 l 257
815 718 m 257
 1025 947 l 257
 618 1316 l 257
 211 947 l 257
 421 718 l 257
 421 67 l 257
 815 67 l 257
 815 718 l 257
655 905 m 257
 655 201 l 257
 581 201 l 257
 581 905 l 257
 655 905 l 257
EndSplineSet
EndChar

StartChar: uni06F0
Encoding: 1776 1776 1005
GlifName: uni06F_0
Width: 926
VWidth: 0
GlyphClass: 2
Flags: HW
LayerCount: 2
Fore
SplineSet
462 637 m 256
 363 637 318 574 318 492 c 256
 318 410 364 346 462 346 c 256
 560 346 608 410 608 492 c 256
 608 573 561 637 462 637 c 256
462 812 m 256
 657 812 783 671 783 492 c 256
 783 314 660 171 462 171 c 256
 264 171 143 314 143 492 c 256
 143 670 266 812 462 812 c 256
EndSplineSet
PairPos2: "'kern' Horizontal Kerning in Arabic lookup 7 subtable" uni06F7 dx=-167 dy=0 dh=-167 dv=0 dx=0 dy=0 dh=0 dv=0
PairPos2: "'kern' Horizontal Kerning in Arabic lookup 7 subtable" uni06F3 dx=-111 dy=0 dh=-111 dv=0 dx=0 dy=0 dh=0 dv=0
PairPos2: "'kern' Horizontal Kerning in Arabic lookup 7 subtable" uni06F2 dx=-111 dy=0 dh=-111 dv=0 dx=0 dy=0 dh=0 dv=0
PairPos2: "'kern' Horizontal Kerning in Arabic lookup 7 subtable" uni06F1 dx=56 dy=0 dh=56 dv=0 dx=0 dy=0 dh=0 dv=0
Substitution2: "'tnum' Tabular Numbers lookup 22 subtable" uni06F0.tnum
EndChar

StartChar: uni06F4
Encoding: 1780 1780 1010
GlifName: uni06F_4
Width: 1225
VWidth: 0
GlyphClass: 2
Flags: HW
LayerCount: 2
Fore
SplineSet
878 1437 m 256
 949 1437 1028 1420 1110 1386 c 257
 1048 1178 l 257
 990 1202 917 1217 851 1217 c 256
 689 1217 591 1104 588 924 c 257
 625 841 739 806 858 806 c 256
 942 806 1028 823 1089 857 c 257
 1142 656 l 257
 1048 612 953 591 861 591 c 256
 709 591 570 659 481 786 c 257
 544 529 560 295 560 0 c 257
 335 0 l 257
 335 522 271 906 95 1358 c 257
 317 1433 l 257
 366 1291 420 1152 478 1047 c 257
 511 1291 661 1437 878 1437 c 256
EndSplineSet
PairPos2: "'kern' Horizontal Kerning in Arabic lookup 7 subtable" uni06F8 dx=-56 dy=0 dh=-56 dv=0 dx=0 dy=0 dh=0 dv=0
Substitution2: "'tnum' Tabular Numbers lookup 22 subtable" uni06F4.tnum
Substitution2: "'locl' Localized Forms in Arabic lookup 5 subtable" uni0664.urdu
EndChar

StartChar: uni06F5
Encoding: 1781 1781 1012
GlifName: uni06F_5
Width: 1396
VWidth: 0
GlyphClass: 2
Flags: HW
LayerCount: 2
Fore
SplineSet
706 161 m 257
 671 57 592 -5 460 -5 c 256
 268 -5 131 136 131 387 c 256
 131 634 242 910 556 1163 c 257
 525 1190 465 1238 431 1263 c 257
 553 1433 l 257
 624 1384 687 1335 759 1274 c 256
 1090 992 1268 697 1268 393 c 256
 1268 131 1133 -5 950 -5 c 256
 825 -5 739 57 706 161 c 257
629 451 m 257
 776 451 l 257
 780 389 l 258
 784 279 826 220 924 220 c 256
 995 220 1061 256 1061 397 c 256
 1061 584 952 798 687 1035 c 257
 417 815 342 582 342 420 c 256
 342 269 407 220 487 220 c 256
 581 220 622 283 626 385 c 258
 629 451 l 257
EndSplineSet
PairPos2: "'kern' Horizontal Kerning in Arabic lookup 7 subtable" uni06F7 dx=-111 dy=0 dh=-111 dv=0 dx=0 dy=0 dh=0 dv=0
PairPos2: "'kern' Horizontal Kerning in Arabic lookup 7 subtable" uni06F3 dx=-56 dy=0 dh=-56 dv=0 dx=0 dy=0 dh=0 dv=0
PairPos2: "'kern' Horizontal Kerning in Arabic lookup 7 subtable" uni06F2 dx=-56 dy=0 dh=-56 dv=0 dx=0 dy=0 dh=0 dv=0
PairPos2: "'kern' Horizontal Kerning in Arabic lookup 7 subtable" uni06F1 dx=56 dy=0 dh=56 dv=0 dx=0 dy=0 dh=0 dv=0
Substitution2: "'tnum' Tabular Numbers lookup 22 subtable" uni06F5.tnum
EndChar

StartChar: uni06F6
Encoding: 1782 1782 1014
GlifName: uni06F_6
Width: 1173
VWidth: 0
GlyphClass: 2
Flags: HW
LayerCount: 2
Fore
SplineSet
576 610 m 257
 332 616 158 755 158 971 c 256
 158 1259 389 1429 623 1429 c 256
 754 1429 867 1386 967 1299 c 257
 860 1128 l 257
 801 1181 720 1207 634 1207 c 256
 504 1207 376 1131 376 977 c 256
 376 847 492 781 656 781 c 256
 762 781 860 815 962 850 c 257
 998 864 l 257
 1085 652 l 257
 1063 646 l 257
 733 539 521 289 297 -45 c 257
 115 89 l 257
 236 293 407 502 576 610 c 257
EndSplineSet
Substitution2: "'tnum' Tabular Numbers lookup 22 subtable" uni0666.tnum
Substitution2: "'locl' Localized Forms in Arabic lookup 5 subtable" uni0666
EndChar

StartChar: uni1D00
Encoding: 7424 7424 1327
GlifName: uni1D_00
Width: 1028
VWidth: 0
GlyphClass: 2
Flags: HW
LayerCount: 2
Fore
SplineSet
730 257 m 257
 298 257 l 257
 343 398 l 257
 687 398 l 257
 730 257 l 257
235 0 m 257
 5 0 l 257
 376 1063 l 257
 642 1063 l 257
 1017 0 l 257
 787 0 l 257
 510 854 l 257
 235 0 l 257
EndSplineSet
EndChar

StartChar: uni1D01
Encoding: 7425 7425 1328
GlifName: uni1D_01
Width: 1295
VWidth: 0
GlyphClass: 2
Flags: HW
LayerCount: 2
Fore
SplineSet
357 398 m 257
 550 398 l 257
 550 853 l 257
 509 853 l 257
 357 398 l 257
235 0 m 257
 5 0 l 257
 376 1063 l 257
 1228 1063 l 257
 1228 879 l 257
 774 879 l 257
 774 606 l 257
 1180 606 l 257
 1180 456 l 257
 774 456 l 257
 774 182 l 257
 1228 182 l 257
 1228 0 l 257
 550 0 l 257
 550 257 l 257
 317 257 l 257
 235 0 l 257
EndSplineSet
EndChar

StartChar: uni1D04
Encoding: 7428 7428 1329
GlifName: uni1D_04
Width: 1081
VWidth: 0
GlyphClass: 2
Flags: HW
LayerCount: 2
Fore
SplineSet
567 1073 m 256
 827 1073 982 902 1003 713 c 257
 807 704 l 257
 779 808 699 892 571 892 c 256
 392 892 304 748 304 531 c 256
 304 315 392 170 569 170 c 256
 699 170 779 253 807 358 c 257
 1003 349 l 257
 982 160 826 -11 569 -11 c 256
 267 -11 97 188 97 531 c 256
 97 874 268 1073 567 1073 c 256
EndSplineSet
EndChar

StartChar: uni1D05
Encoding: 7429 7429 1330
GlifName: uni1D_05
Width: 1094
VWidth: 0
GlyphClass: 2
Flags: HW
LayerCount: 2
Fore
SplineSet
138 1063 m 257
 538 1063 l 258
 857 1063 1008 845 1008 531 c 256
 1008 217 857 0 538 0 c 258
 138 0 l 257
 138 1063 l 257
362 905 m 257
 362 165 l 257
 518 165 l 258
 702 165 791 285 791 531 c 256
 791 776 702 905 518 905 c 258
 362 905 l 257
EndSplineSet
EndChar

StartChar: uni1D07
Encoding: 7431 7431 1331
GlifName: uni1D_07
Width: 883
VWidth: 0
GlyphClass: 2
Flags: HW
LayerCount: 2
Fore
SplineSet
816 181 m 257
 816 0 l 257
 138 0 l 257
 138 1063 l 257
 816 1063 l 257
 816 879 l 257
 362 879 l 257
 362 606 l 257
 768 606 l 257
 768 456 l 257
 362 456 l 257
 362 181 l 257
 816 181 l 257
EndSplineSet
EndChar

StartChar: uni1D0A
Encoding: 7434 7434 1332
GlifName: uni1D_0A_
Width: 715
VWidth: 0
GlyphClass: 2
Flags: HW
LayerCount: 2
Fore
SplineSet
62 25 m 257
 94 176 l 257
 127 168 170 162 207 162 c 256
 302 162 353 204 353 295 c 258
 353 1063 l 257
 578 1063 l 257
 578 270 l 258
 578 68 438 -11 266 -11 c 256
 197 -11 125 2 62 25 c 257
EndSplineSet
EndChar

StartChar: uni1D0B
Encoding: 7435 7435 1333
GlifName: uni1D_0B_
Width: 1055
VWidth: 0
GlyphClass: 2
Flags: HW
LayerCount: 2
Fore
SplineSet
138 1063 m 257
 362 1063 l 257
 362 589 l 257
 763 1063 l 257
 1028 1063 l 257
 588 530 l 257
 1029 0 l 257
 764 0 l 257
 454 371 l 257
 362 263 l 257
 362 0 l 257
 138 0 l 257
 138 1063 l 257
EndSplineSet
EndChar

StartChar: uni1D0D
Encoding: 7437 7437 1334
GlifName: uni1D_0D_
Width: 1503
VWidth: 0
GlyphClass: 2
Flags: HW
LayerCount: 2
Fore
SplineSet
362 0 m 257
 138 0 l 257
 138 1063 l 257
 415 1063 l 257
 739 211 l 257
 1087 1063 l 257
 1366 1063 l 257
 1366 0 l 257
 1140 0 l 257
 1140 745 l 257
 826 0 l 257
 652 0 l 257
 362 741 l 257
 362 0 l 257
EndSplineSet
EndChar

StartChar: uni1D0F
Encoding: 7439 7439 1335
GlifName: uni1D_0F_
Width: 1111
VWidth: 0
GlyphClass: 2
Flags: HW
LayerCount: 2
Fore
SplineSet
557 1073 m 256
 886 1073 1035 849 1035 531 c 256
 1035 213 885 -11 557 -11 c 256
 229 -11 76 213 76 531 c 256
 76 849 228 1073 557 1073 c 256
557 892 m 256
 377 892 282 754 282 531 c 256
 282 308 377 169 557 169 c 256
 737 169 831 308 831 531 c 256
 831 754 737 892 557 892 c 256
EndSplineSet
EndChar

StartChar: uni1D18
Encoding: 7448 7448 1336
GlifName: uni1D_18
Width: 1025
VWidth: 0
GlyphClass: 2
Flags: HW
LayerCount: 2
Fore
SplineSet
362 0 m 257
 138 0 l 257
 138 1063 l 257
 582 1063 l 258
 813 1063 949 935 949 732 c 256
 949 528 812 397 582 397 c 258
 362 397 l 257
 362 0 l 257
362 905 m 257
 362 553 l 257
 547 553 l 258
 671 553 724 614 724 732 c 256
 724 850 669 905 547 905 c 258
 362 905 l 257
EndSplineSet
EndChar

StartChar: uni1D1B
Encoding: 7451 7451 1337
GlifName: uni1D_1B_
Width: 1024
VWidth: 0
GlyphClass: 2
Flags: HW
LayerCount: 2
Fore
SplineSet
626 0 m 257
 400 0 l 257
 400 869 l 257
 55 869 l 257
 55 1063 l 257
 970 1063 l 257
 970 869 l 257
 626 869 l 257
 626 0 l 257
EndSplineSet
EndChar

StartChar: uni1D1C
Encoding: 7452 7452 1338
GlifName: uni1D_1C_
Width: 1105
VWidth: 0
GlyphClass: 2
Flags: HW
LayerCount: 2
Fore
SplineSet
786 1063 m 257
 997 1063 l 257
 997 403 l 258
 997 131 820 -10 552 -10 c 256
 284 -10 108 131 108 403 c 258
 108 1063 l 257
 318 1063 l 257
 318 418 l 258
 318 264 387 173 552 173 c 256
 717 173 786 264 786 418 c 258
 786 1063 l 257
EndSplineSet
EndChar

StartChar: uni1D20
Encoding: 7456 7456 1339
GlifName: uni1D_20
Width: 1020
VWidth: 0
GlyphClass: 2
Flags: HW
LayerCount: 2
Fore
SplineSet
235 1063 m 257
 512 208 l 257
 787 1063 l 257
 1017 1063 l 257
 645 0 l 257
 379 0 l 257
 5 1063 l 257
 235 1063 l 257
EndSplineSet
EndChar

StartChar: uni1D21
Encoding: 7457 7457 1340
GlifName: uni1D_21
Width: 1560
VWidth: 0
GlyphClass: 2
Flags: HW
LayerCount: 2
Fore
SplineSet
36 1063 m 257
 249 1063 l 257
 461 258 l 257
 682 1063 l 257
 877 1063 l 257
 1100 258 l 257
 1310 1063 l 257
 1524 1063 l 257
 1247 0 l 257
 997 0 l 257
 780 757 l 257
 559 0 l 257
 313 0 l 257
 36 1063 l 257
EndSplineSet
EndChar

StartChar: uni1D22
Encoding: 7458 7458 1341
GlifName: uni1D_22
Width: 1007
VWidth: 0
GlyphClass: 2
Flags: HW
LayerCount: 2
Fore
SplineSet
96 1063 m 257
 907 1063 l 257
 907 907 l 257
 341 191 l 257
 907 191 l 257
 907 0 l 257
 96 0 l 257
 96 157 l 257
 660 871 l 257
 96 871 l 257
 96 1063 l 257
EndSplineSet
EndChar

StartChar: uni1E9E
Encoding: 7838 7838 1495
GlifName: uni1E_9E_
Width: 1273
VWidth: 0
GlyphClass: 2
Flags: HW
LayerCount: 2
Fore
SplineSet
140 0 m 257
 140 956 l 258
 140 1272 302 1478 618 1479 c 256
 860 1479 1068 1348 1068 1100 c 256
 1068 931 988 827 848 780 c 257
 1048 738 1191 624 1191 365 c 256
 1191 120 1049 -10 822 -10 c 256
 603 -10 480 108 480 331 c 257
 623 331 l 257
 623 223 689 172 792 172 c 256
 917 172 970 267 970 390 c 256
 970 619 796 691 586 691 c 257
 586 870 l 257
 784 870 847 981 847 1084 c 256
 847 1228 738 1292 618 1292 c 256
 446 1292 365 1169 365 984 c 258
 365 0 l 257
 140 0 l 257
EndSplineSet
EndChar

StartChar: uni200C
Encoding: 8204 8204 1584
GlifName: uni200C_
Width: 0
VWidth: 0
GlyphClass: 2
Flags: H
LayerCount: 2
Fore
SplineSet
45 1366 m 257
 45 -291 l 257
 -45 -291 l 257
 -45 1366 l 257
 45 1366 l 257
EndSplineSet
EndChar

StartChar: uni200D
Encoding: 8205 8205 1585
GlifName: uni200D_
Width: 0
VWidth: 0
GlyphClass: 2
Flags: H
LayerCount: 2
Fore
SplineSet
173 -292 m 257
 44 -163 l 257
 110 -97 l 257
 239 -226 l 257
 173 -292 l 257
-110 -9 m 257
 -239 120 l 257
 -173 186 l 257
 -44 57 l 257
 -110 -9 l 257
239 120 m 257
 -173 -292 l 257
 -239 -226 l 257
 173 186 l 257
 239 120 l 257
173 1021 m 257
 44 1150 l 257
 110 1216 l 257
 239 1087 l 257
 173 1021 l 257
-110 1304 m 257
 -239 1433 l 257
 -173 1499 l 257
 -44 1370 l 257
 -110 1304 l 257
239 1433 m 257
 -173 1021 l 257
 -239 1087 l 257
 173 1499 l 257
 239 1433 l 257
-45 1043 m 257
 45 1043 l 257
 45 164 l 257
 -45 164 l 257
 -45 1043 l 257
EndSplineSet
EndChar

StartChar: uni200E
Encoding: 8206 8206 1586
GlifName: uni200E_
Width: 0
VWidth: 0
GlyphClass: 2
Flags: H
LayerCount: 2
Fore
SplineSet
293 1032 m 257
 227 1098 l 257
 401 1271 l 257
 227 1444 l 257
 293 1510 l 257
 531 1271 l 257
 293 1032 l 257
294 -301 m 257
 228 -235 l 257
 402 -62 l 257
 228 111 l 257
 294 177 l 257
 532 -62 l 257
 294 -301 l 257
45 49 m 258
 45 9 72 -18 112 -18 c 258
 249 -18 l 257
 249 -108 l 257
 112 -108 l 258
 23 -108 -45 -40 -45 49 c 258
 -45 1159 l 258
 -45 1248 23 1316 112 1316 c 258
 249 1316 l 257
 249 1226 l 257
 112 1226 l 258
 72 1226 45 1199 45 1159 c 258
 45 49 l 258
EndSplineSet
EndChar

StartChar: uni200F
Encoding: 8207 8207 1587
GlifName: uni200F_
Width: 0
VWidth: 0
GlyphClass: 2
Flags: H
LayerCount: 2
Fore
SplineSet
-293 1032 m 257
 -531 1271 l 257
 -293 1510 l 257
 -227 1444 l 257
 -401 1271 l 257
 -227 1098 l 257
 -293 1032 l 257
-294 -301 m 257
 -532 -62 l 257
 -294 177 l 257
 -228 111 l 257
 -402 -62 l 257
 -228 -235 l 257
 -294 -301 l 257
-45 49 m 258
 -45 1159 l 258
 -45 1199 -72 1226 -112 1226 c 258
 -249 1226 l 257
 -249 1316 l 257
 -112 1316 l 258
 -23 1316 45 1248 45 1159 c 258
 45 49 l 258
 45 -40 -23 -108 -112 -108 c 258
 -249 -108 l 257
 -249 -18 l 257
 -112 -18 l 258
 -72 -18 -45 9 -45 49 c 258
EndSplineSet
EndChar

StartChar: uni202A
Encoding: 8234 8234 1592
GlifName: uni202A_
Width: 0
VWidth: 0
GlyphClass: 2
Flags: H
LayerCount: 2
Fore
SplineSet
-63 1004 m 257
 -127 1069 l 257
 46 1243 l 257
 -127 1416 l 257
 -63 1481 l 257
 176 1243 l 257
 -63 1004 l 257
-49 873 m 257
 48 873 l 257
 48 48 l 257
 -49 48 l 257
 -49 873 l 257
EndSplineSet
EndChar

StartChar: uni202B
Encoding: 8235 8235 1593
GlifName: uni202B_
Width: 0
VWidth: 0
GlyphClass: 2
Flags: H
LayerCount: 2
Fore
SplineSet
63 1004 m 257
 -176 1243 l 257
 63 1481 l 257
 127 1416 l 257
 -46 1243 l 257
 127 1069 l 257
 63 1004 l 257
-48 873 m 257
 49 873 l 257
 49 48 l 257
 -48 48 l 257
 -48 873 l 257
EndSplineSet
EndChar

StartChar: uni202C
Encoding: 8236 8236 1594
GlifName: uni202C_
Width: 0
VWidth: 0
GlyphClass: 2
Flags: H
LayerCount: 2
Fore
SplineSet
-238 1160 m 257
 0 1398 l 257
 239 1160 l 257
 174 1094 l 257
 0 1268 l 257
 -173 1094 l 257
 -238 1160 l 257
-49 899 m 257
 48 899 l 257
 48 48 l 257
 -49 48 l 257
 -49 899 l 257
EndSplineSet
EndChar

StartChar: uni202D
Encoding: 8237 8237 1595
GlifName: uni202D_
Width: 0
VWidth: 0
GlyphClass: 2
Flags: H
LayerCount: 2
Fore
SplineSet
83 1004 m 257
 19 1069 l 257
 192 1243 l 257
 19 1416 l 257
 83 1481 l 257
 322 1243 l 257
 83 1004 l 257
-167 1004 m 257
 -233 1069 l 257
 -59 1243 l 257
 -233 1416 l 257
 -167 1481 l 257
 71 1243 l 257
 -167 1004 l 257
-49 873 m 257
 48 873 l 257
 48 48 l 257
 -49 48 l 257
 -49 873 l 257
EndSplineSet
EndChar

StartChar: uni202E
Encoding: 8238 8238 1596
GlifName: uni202E_
Width: 0
VWidth: 0
GlyphClass: 2
Flags: H
LayerCount: 2
Fore
SplineSet
-83 1004 m 257
 -322 1243 l 257
 -83 1481 l 257
 -19 1416 l 257
 -192 1243 l 257
 -19 1069 l 257
 -83 1004 l 257
167 1004 m 257
 -71 1243 l 257
 167 1481 l 257
 233 1416 l 257
 59 1243 l 257
 233 1069 l 257
 167 1004 l 257
-48 873 m 257
 49 873 l 257
 49 48 l 257
 -48 48 l 257
 -48 873 l 257
EndSplineSet
EndChar

StartChar: uni2035
Encoding: 8245 8245 1598
GlifName: uni2035
Width: 460
VWidth: 0
GlyphClass: 2
Flags: HW
LayerCount: 2
Fore
SplineSet
247 1418 m 257
 356 953 l 257
 244 953 l 257
 105 1418 l 257
 247 1418 l 257
EndSplineSet
EndChar

StartChar: uni2070
Encoding: 8304 8304 1601
GlifName: uni2070
Width: 731
VWidth: 0
GlyphClass: 2
Flags: HW
LayerCount: 2
Fore
SplineSet
366 1702 m 256
 267 1702 234 1622 234 1468 c 256
 234 1314 267 1232 366 1232 c 256
 465 1232 498 1314 498 1468 c 256
 498 1622 465 1702 366 1702 c 256
366 1812 m 256
 577 1812 616 1629 616 1468 c 256
 616 1307 577 1123 366 1123 c 256
 155 1123 115 1307 115 1468 c 256
 115 1629 155 1812 366 1812 c 256
EndSplineSet
EndChar

StartChar: uni2074
Encoding: 8308 8308 1602
GlifName: uni2074
Width: 780
VWidth: 0
GlyphClass: 2
Flags: HW
LayerCount: 2
Fore
SplineSet
443 1350 m 257
 443 1642 l 257
 222 1350 l 257
 443 1350 l 257
443 1254 m 257
 115 1254 l 257
 115 1344 l 257
 453 1801 l 257
 562 1801 l 257
 562 1350 l 257
 665 1350 l 257
 665 1254 l 257
 562 1254 l 257
 562 1133 l 257
 443 1133 l 257
 443 1254 l 257
EndSplineSet
EndChar

StartChar: uni2075
Encoding: 8309 8309 1603
GlifName: uni2075
Width: 689
VWidth: 0
GlyphClass: 2
Flags: HW
LayerCount: 2
Fore
SplineSet
115 1331 m 257
 233 1331 l 257
 233 1263 265 1225 340 1225 c 256
 418 1225 458 1268 458 1361 c 256
 458 1448 413 1492 333 1492 c 256
 279 1492 236 1461 197 1423 c 257
 121 1465 l 257
 155 1801 l 257
 563 1801 l 257
 563 1703 l 257
 256 1703 l 257
 239 1559 l 257
 275 1578 317 1590 358 1590 c 256
 488 1590 574 1505 574 1369 c 256
 574 1212 483 1123 334 1123 c 256
 197 1123 115 1202 115 1331 c 257
EndSplineSet
EndChar

StartChar: uni2076
Encoding: 8310 8310 1604
GlifName: uni2076
Width: 688
VWidth: 0
GlyphClass: 2
Flags: HW
LayerCount: 2
Fore
SplineSet
360 1811 m 256
 480 1811 565 1737 565 1622 c 257
 464 1622 l 257
 464 1671 433 1710 357 1710 c 256
 261 1710 228 1622 226 1515 c 257
 265 1557 311 1576 370 1576 c 256
 488 1576 574 1489 574 1359 c 256
 574 1218 491 1123 351 1123 c 256
 175 1123 115 1249 115 1440 c 256
 115 1674 193 1811 360 1811 c 256
350 1471 m 256
 307 1471 263 1457 228 1410 c 257
 228 1284 265 1226 350 1226 c 256
 416 1226 457 1272 457 1351 c 256
 457 1426 415 1471 350 1471 c 256
EndSplineSet
EndChar

StartChar: uni2077
Encoding: 8311 8311 1605
GlifName: uni2077
Width: 704
VWidth: 0
GlyphClass: 2
Flags: HW
LayerCount: 2
Fore
SplineSet
589 1703 m 257
 454 1548 352 1359 352 1133 c 257
 237 1133 l 257
 237 1345 332 1550 449 1695 c 257
 115 1695 l 257
 115 1801 l 257
 568 1801 l 257
 589 1703 l 257
EndSplineSet
EndChar

StartChar: uni2078
Encoding: 8312 8312 1606
GlifName: uni2078
Width: 699
VWidth: 0
GlyphClass: 2
Flags: HW
LayerCount: 2
Fore
SplineSet
350 1811 m 256
 477 1811 560 1728 560 1629 c 256
 560 1572 530 1517 480 1481 c 257
 546 1439 584 1377 584 1312 c 256
 584 1207 498 1123 350 1123 c 256
 201 1123 115 1208 115 1313 c 256
 115 1378 152 1440 218 1482 c 257
 169 1518 140 1572 140 1629 c 256
 140 1728 222 1811 350 1811 c 256
350 1716 m 256
 294 1716 256 1677 256 1619 c 256
 256 1559 294 1523 350 1523 c 256
 405 1523 442 1559 442 1619 c 256
 442 1678 406 1716 350 1716 c 256
348 1431 m 256
 282 1431 235 1389 235 1325 c 256
 235 1260 279 1223 350 1223 c 256
 421 1223 463 1259 463 1324 c 256
 463 1388 416 1431 348 1431 c 256
EndSplineSet
EndChar

StartChar: uni2079
Encoding: 8313 8313 1607
GlifName: uni2079
Width: 688
VWidth: 0
GlyphClass: 2
Flags: HW
LayerCount: 2
Fore
SplineSet
460 1524 m 257
 460 1650 424 1708 339 1708 c 256
 273 1708 233 1663 233 1584 c 256
 233 1509 275 1463 340 1463 c 256
 383 1463 425 1477 460 1524 c 257
463 1419 m 257
 424 1377 378 1357 319 1357 c 256
 201 1357 115 1445 115 1575 c 256
 115 1716 198 1811 338 1811 c 256
 514 1811 574 1684 574 1493 c 256
 574 1259 496 1123 329 1123 c 256
 209 1123 124 1196 124 1311 c 257
 226 1311 l 257
 226 1262 256 1224 332 1224 c 256
 428 1224 461 1312 463 1419 c 257
EndSplineSet
EndChar

StartChar: uni2196
Encoding: 8598 8598 1629
GlifName: uni2196
Width: 1205
VWidth: 0
GlyphClass: 2
Flags: HW
LayerCount: 2
Fore
SplineSet
970 73 m 257
 302 742 l 257
 271 791 l 257
 271 376 l 257
 150 376 l 257
 150 978 l 257
 751 978 l 257
 751 856 l 257
 336 856 l 257
 386 826 l 257
 1055 157 l 257
 970 73 l 257
EndSplineSet
EndChar

StartChar: uni2197
Encoding: 8599 8599 1630
GlifName: uni2197
Width: 1205
VWidth: 0
GlyphClass: 2
Flags: HW
LayerCount: 2
Fore
SplineSet
150 157 m 257
 819 826 l 257
 869 856 l 257
 454 856 l 257
 454 978 l 257
 1055 978 l 257
 1055 376 l 257
 934 376 l 257
 934 791 l 257
 903 742 l 257
 235 73 l 257
 150 157 l 257
EndSplineSet
EndChar

StartChar: uni2198
Encoding: 8600 8600 1631
GlifName: uni2198
Width: 1205
VWidth: 0
GlyphClass: 2
Flags: HW
LayerCount: 2
Fore
SplineSet
235 978 m 257
 903 309 l 257
 934 258 l 257
 934 674 l 257
 1055 674 l 257
 1055 73 l 257
 454 73 l 257
 454 194 l 257
 869 194 l 257
 819 225 l 257
 150 893 l 257
 235 978 l 257
EndSplineSet
EndChar

StartChar: uni2199
Encoding: 8601 8601 1632
GlifName: uni2199
Width: 1205
VWidth: 0
GlyphClass: 2
Flags: HW
LayerCount: 2
Fore
SplineSet
1055 893 m 257
 386 225 l 257
 336 194 l 257
 751 194 l 257
 751 73 l 257
 150 73 l 257
 150 674 l 257
 271 674 l 257
 271 258 l 257
 302 309 l 257
 970 978 l 257
 1055 893 l 257
EndSplineSet
EndChar

StartChar: uni220E
Encoding: 8718 8718 1633
GlifName: uni220E_
Width: 1072
VWidth: 0
GlyphClass: 2
Flags: HW
LayerCount: 2
Fore
SplineSet
182 1209 m 257
 892 1209 l 257
 892 0 l 257
 182 0 l 257
 182 1209 l 257
EndSplineSet
EndChar

StartChar: uni25CC
Encoding: 9676 9676 1634
GlifName: uni25C_C_
Width: 1702
VWidth: 0
GlyphClass: 2
Flags: HW
LayerCount: 2
Fore
SplineSet
783 91 m 256
 783 141 801 159 851 159 c 256
 901 159 919 141 919 91 c 256
 919 41 901 23 851 23 c 256
 801 23 783 41 783 91 c 256
783 1447 m 256
 783 1497 801 1515 851 1515 c 256
 901 1515 919 1497 919 1447 c 256
 919 1397 901 1379 851 1379 c 256
 801 1379 783 1397 783 1447 c 256
1529 701 m 256
 1479 701 1461 719 1461 769 c 256
 1461 819 1479 837 1529 837 c 256
 1579 837 1597 819 1597 769 c 256
 1597 719 1579 701 1529 701 c 256
173 701 m 256
 123 701 105 719 105 769 c 256
 105 819 123 837 173 837 c 256
 223 837 241 819 241 769 c 256
 241 719 223 701 173 701 c 256
1262 290 m 256
 1262 340 1280 358 1330 358 c 256
 1380 358 1398 340 1398 290 c 256
 1398 240 1380 222 1330 222 c 256
 1280 222 1262 240 1262 290 c 256
304 1248 m 256
 304 1298 322 1316 372 1316 c 256
 422 1316 440 1298 440 1248 c 256
 440 1198 422 1180 372 1180 c 256
 322 1180 304 1198 304 1248 c 256
1330 1180 m 256
 1280 1180 1262 1198 1262 1248 c 256
 1262 1298 1280 1316 1330 1316 c 256
 1380 1316 1398 1298 1398 1248 c 256
 1398 1198 1380 1180 1330 1180 c 256
372 222 m 256
 322 222 304 240 304 290 c 256
 304 340 322 358 372 358 c 256
 422 358 440 340 440 290 c 256
 440 240 422 222 372 222 c 256
524 143 m 256
 524 193 542 210 592 210 c 256
 642 210 660 193 660 143 c 256
 660 93 642 74 592 74 c 256
 542 74 524 93 524 143 c 256
1110 1464 m 256
 1160 1464 1178 1445 1178 1395 c 256
 1178 1345 1160 1328 1110 1328 c 256
 1060 1328 1042 1345 1042 1395 c 256
 1042 1445 1060 1464 1110 1464 c 256
1477 442 m 256
 1427 442 1410 460 1410 510 c 256
 1410 560 1427 578 1477 578 c 256
 1527 578 1546 560 1546 510 c 256
 1546 460 1527 442 1477 442 c 256
156 1028 m 256
 156 1078 175 1096 225 1096 c 256
 275 1096 292 1078 292 1028 c 256
 292 978 275 960 225 960 c 256
 175 960 156 978 156 1028 c 256
1042 143 m 256
 1042 193 1060 210 1110 210 c 256
 1160 210 1178 193 1178 143 c 256
 1178 93 1160 74 1110 74 c 256
 1060 74 1042 93 1042 143 c 256
524 1395 m 256
 524 1445 542 1464 592 1464 c 256
 642 1464 660 1445 660 1395 c 256
 660 1345 642 1328 592 1328 c 256
 542 1328 524 1345 524 1395 c 256
1477 960 m 256
 1427 960 1410 978 1410 1028 c 256
 1410 1078 1427 1096 1477 1096 c 256
 1527 1096 1546 1078 1546 1028 c 256
 1546 978 1527 960 1477 960 c 256
225 442 m 256
 175 442 156 460 156 510 c 256
 156 560 175 578 225 578 c 256
 275 578 292 560 292 510 c 256
 292 460 275 442 225 442 c 256
EndSplineSet
EndChar

StartChar: uniA729
Encoding: 42793 42793 1636
GlifName: uniA_729
Width: 1796
VWidth: 0
GlyphClass: 2
Flags: HW
LayerCount: 2
Fore
SplineSet
704 176 m 257
 737 25 l 257
 674 2 602 -11 533 -11 c 256
 361 -11 216 68 216 270 c 258
 216 1351 l 257
 441 1351 l 257
 441 295 l 258
 441 204 497 162 592 162 c 256
 629 162 671 168 704 176 c 257
EndSplineSet
Refer: 1669 57354 N 1 0 0 1 -24 411 2
Refer: 560 658 N 1 0 0 1 667 0 2
EndChar

StartChar: uniA730
Encoding: 42800 42800 1637
GlifName: uniA_730
Width: 881
VWidth: 0
GlyphClass: 2
Flags: HW
LayerCount: 2
Fore
SplineSet
138 0 m 257
 138 1063 l 257
 816 1063 l 257
 816 879 l 257
 362 879 l 257
 362 578 l 257
 768 578 l 257
 768 428 l 257
 362 428 l 257
 362 0 l 257
 138 0 l 257
EndSplineSet
EndChar

StartChar: uniA731
Encoding: 42801 42801 1638
GlifName: uniA_731
Width: 939
VWidth: 0
GlyphClass: 2
Flags: HW
LayerCount: 2
Fore
SplineSet
75 330 m 257
 273 330 l 257
 273 212 358 166 482 166 c 256
 583 166 665 199 665 292 c 256
 665 386 585 413 441 456 c 256
 275 505 99 564 99 769 c 256
 99 958 253 1073 454 1073 c 256
 675 1073 847 956 847 745 c 257
 648 746 l 257
 648 846 569 897 467 897 c 256
 364 897 299 856 299 770 c 256
 299 685 376 654 512 616 c 256
 689 567 864 506 864 296 c 256
 864 94 694 -10 488 -10 c 256
 255 -10 75 99 75 330 c 257
EndSplineSet
EndChar

StartChar: uniA733
Encoding: 42803 42803 1640
GlifName: uniA_733
Width: 1763
VWidth: 0
GlyphClass: 2
Flags: HW
LayerCount: 2
Fore
SplineSet
536 1072 m 256
 808 1072 966 940 966 728 c 258
 966 287 l 257
 741 287 l 257
 741 728 l 258
 741 843 657 896 526 896 c 256
 395 896 311 844 311 728 c 257
 116 728 l 257
 107 946 266 1072 536 1072 c 256
1198 1072 m 256
 1470 1072 1635 940 1635 728 c 258
 1635 265 l 258
 1635 184 1660 142 1747 142 c 257
 1747 -1 l 257
 1552 -24 1410 52 1410 265 c 258
 1410 728 l 258
 1410 843 1319 896 1188 896 c 256
 1057 896 966 844 966 728 c 257
 771 728 l 257
 762 946 928 1072 1198 1072 c 256
EndSplineSet
Refer: 1670 57355 N 1 0 0 1 676 0 2
Refer: 1670 57355 N 1 0 0 1 -7 0 2
EndChar

StartChar: uniA735
Encoding: 42805 42805 1642
GlifName: uniA_735
Width: 1807
VWidth: 0
GlyphClass: 2
Flags: HW
LayerCount: 2
Fore
SplineSet
740 283 m 257
 740 728 l 258
 740 843 657 896 526 896 c 256
 395 896 310 844 310 728 c 257
 116 728 l 257
 107 946 266 1072 536 1072 c 256
 808 1072 966 940 966 728 c 258
 966 281 l 257
 740 283 l 257
91 278 m 256
 91 510 288 602 509 602 c 258
 943 602 l 257
 943 472 l 257
 522 472 l 258
 394 472 292 423 292 305 c 256
 292 220 339 158 463 158 c 256
 610 158 712 261 748 311 c 257
 819 300 l 257
 778 193 654 -16 390 -16 c 256
 199 -16 91 91 91 278 c 256
EndSplineSet
Refer: 324 111 N 1 0 0 1 665 0 2
EndChar

StartChar: uniA736
Encoding: 42806 42806 1643
GlifName: uniA_736
Width: 2017
VWidth: 0
GlyphClass: 2
Flags: HW
LayerCount: 2
Fore
SplineSet
1645 1424 m 257
 1870 1424 l 257
 1870 548 l 258
 1870 205 1665 0 1307 0 c 257
 1211 202 l 257
 1307 202 l 258
 1533 202 1645 336 1645 549 c 258
 1645 1424 l 257
EndSplineSet
Refer: 0 65 N 1 0 0 1 0 0 2
EndChar

StartChar: uniA737
Encoding: 42807 42807 1644
GlifName: uniA_737
Width: 1789
VWidth: 0
GlyphClass: 2
Flags: HW
LayerCount: 2
Fore
SplineSet
116 728 m 257
 107 946 266 1072 536 1072 c 256
 808 1072 966 940 966 728 c 258
 966 426 l 258
 966 303 1036 211 1169 211 c 256
 1329 211 1410 339 1428 491 c 257
 1466 393 l 257
 1447 172 1314 -10 1075 -10 c 256
 861 -10 740 145 740 354 c 258
 740 728 l 258
 740 843 657 896 526 896 c 256
 395 896 310 844 310 728 c 257
 116 728 l 257
1428 1063 m 257
 1652 1063 l 257
 1652 0 l 257
 1438 0 l 257
 1428 280 l 257
 1428 1063 l 257
933 602 m 257
 933 472 l 257
 522 472 l 258
 394 472 292 423 292 305 c 256
 292 220 339 158 463 158 c 256
 610 158 712 261 748 311 c 257
 819 300 l 257
 778 193 654 -16 390 -16 c 256
 199 -16 91 91 91 278 c 256
 91 510 288 602 509 602 c 258
 933 602 l 257
EndSplineSet
EndChar

StartChar: uniA738
Encoding: 42808 42808 1645
GlifName: uniA_738
Width: 1853
VWidth: 0
GlyphClass: 2
Flags: HW
LayerCount: 2
Fore
SplineSet
432 541 m 257
 882 541 l 257
 658 1170 l 257
 432 541 l 257
374 362 m 257
 246 0 l 257
 5 0 l 257
 531 1418 l 257
 784 1418 l 257
 1196 248 l 257
 1607 1418 l 257
 1848 1418 l 257
 1322 0 l 257
 1068 0 l 257
 940 362 l 257
 374 362 l 257
EndSplineSet
EndChar

StartChar: uniA739
Encoding: 42809 42809 1646
GlifName: uniA_739
Width: 1683
VWidth: 0
GlyphClass: 2
Flags: HW
LayerCount: 2
Fore
SplineSet
116 728 m 257
 107 946 266 1072 536 1072 c 256
 757 1072 897 983 946 838 c 258
 1161 235 l 257
 1442 1063 l 257
 1681 1063 l 257
 1296 0 l 257
 1026 0 l 257
 734 784 l 258
 704 862 627 896 526 896 c 256
 395 896 310 844 310 728 c 257
 116 728 l 257
863 602 m 257
 863 472 l 257
 522 472 l 258
 394 472 292 423 292 305 c 256
 292 220 339 158 463 158 c 256
 610 158 712 261 748 311 c 257
 819 300 l 257
 778 193 654 -16 390 -16 c 256
 199 -16 91 91 91 278 c 256
 91 510 288 602 509 602 c 258
 863 602 l 257
EndSplineSet
EndChar

StartChar: uniA73A
Encoding: 42810 42810 1647
GlifName: uniA_73A_
Width: 1853
VWidth: 0
GlyphClass: 2
Flags: HW
LayerCount: 2
Fore
SplineSet
866 1055 m 257
 1528 1055 l 257
 1528 877 l 257
 866 877 l 257
 866 1055 l 257
432 541 m 257
 882 541 l 257
 658 1170 l 257
 432 541 l 257
374 362 m 257
 246 0 l 257
 5 0 l 257
 531 1418 l 257
 784 1418 l 257
 1196 248 l 257
 1607 1418 l 257
 1848 1418 l 257
 1322 0 l 257
 1068 0 l 257
 940 362 l 257
 374 362 l 257
EndSplineSet
EndChar

StartChar: uniA73B
Encoding: 42811 42811 1648
GlifName: uniA_73B_
Width: 1683
VWidth: 0
GlyphClass: 2
Flags: HW
LayerCount: 2
Fore
SplineSet
922 824 m 257
 1373 824 l 257
 1373 694 l 257
 956 694 l 257
 922 824 l 257
116 728 m 257
 107 946 266 1072 536 1072 c 256
 757 1072 897 983 946 838 c 258
 1161 235 l 257
 1442 1063 l 257
 1681 1063 l 257
 1296 0 l 257
 1026 0 l 257
 734 784 l 258
 704 862 627 896 526 896 c 256
 395 896 310 844 310 728 c 257
 116 728 l 257
863 602 m 257
 863 472 l 257
 522 472 l 258
 394 472 292 423 292 305 c 256
 292 220 339 158 463 158 c 256
 610 158 712 261 748 311 c 257
 819 300 l 257
 778 193 654 -16 390 -16 c 256
 199 -16 91 91 91 278 c 256
 91 510 288 602 509 602 c 258
 863 602 l 257
EndSplineSet
EndChar

StartChar: uniA73C
Encoding: 42812 42812 1649
GlifName: uniA_73C_
Width: 1827
VWidth: 0
GlyphClass: 2
Flags: HW
LayerCount: 2
Fore
SplineSet
673 1217 m 257
 432 541 l 257
 1076 541 l 257
 1076 613 l 257
 673 1217 l 257
531 1418 m 257
 801 1418 l 257
 1189 805 l 257
 1576 1418 l 257
 1836 1418 l 257
 1302 613 l 257
 1302 0 l 257
 1076 0 l 257
 1076 362 l 257
 374 362 l 257
 246 0 l 257
 5 0 l 257
 531 1418 l 257
EndSplineSet
EndChar

StartChar: uniA73D
Encoding: 42813 42813 1650
GlifName: uniA_73D_
Width: 1683
VWidth: 0
GlyphClass: 2
Flags: HW
LayerCount: 2
Fore
SplineSet
116 728 m 257
 107 946 266 1072 536 1072 c 256
 757 1072 897 983 946 838 c 258
 1161 235 l 257
 1442 1063 l 257
 1681 1063 l 257
 1123 -469 l 257
 864 -469 l 257
 1049 -22 l 257
 734 784 l 258
 704 862 627 896 526 896 c 256
 395 896 310 844 310 728 c 257
 116 728 l 257
863 602 m 257
 863 472 l 257
 522 472 l 258
 394 472 292 423 292 305 c 256
 292 220 339 158 463 158 c 256
 610 158 712 261 748 311 c 257
 819 300 l 257
 778 193 654 -16 390 -16 c 256
 199 -16 91 91 91 278 c 256
 91 510 288 602 509 602 c 258
 863 602 l 257
EndSplineSet
EndChar

StartChar: uniA760
Encoding: 42848 42848 1653
GlifName: uniA_760
Width: 2355
VWidth: 0
GlyphClass: 2
Flags: HW
LayerCount: 2
Fore
SplineSet
2104 1418 m 257
 2364 1418 l 257
 1829 613 l 257
 1829 0 l 257
 1603 0 l 257
 1603 613 l 257
 1222 1184 l 257
 783 0 l 257
 529 0 l 257
 5 1418 l 257
 246 1418 l 257
 656 248 l 257
 1068 1418 l 257
 1329 1418 l 257
 1716 805 l 257
 2104 1418 l 257
EndSplineSet
EndChar

StartChar: uniA761
Encoding: 42849 42849 1654
GlifName: uniA_761
Width: 1864
VWidth: 0
GlyphClass: 2
Flags: HW
LayerCount: 2
Fore
SplineSet
1054 1063 m 257
 1342 235 l 257
 1623 1063 l 257
 1863 1063 l 257
 1305 -469 l 257
 1045 -469 l 257
 1231 -22 l 257
 937 737 l 257
 667 0 l 257
 397 0 l 257
 3 1063 l 257
 243 1063 l 257
 532 235 l 257
 813 1063 l 257
 1054 1063 l 257
EndSplineSet
EndChar

StartChar: uniAB50
Encoding: 43856 43856 1657
GlifName: uniA_B_50
Width: 1870
VWidth: 0
GlyphClass: 2
Flags: HW
LayerCount: 2
Fore
SplineSet
822 565 m 257
 1047 565 l 257
 1047 426 l 258
 1047 303 1118 211 1251 211 c 256
 1411 211 1491 339 1509 491 c 257
 1548 393 l 257
 1529 172 1396 -10 1157 -10 c 256
 943 -10 822 145 822 354 c 258
 822 565 l 257
1509 1063 m 257
 1734 1063 l 257
 1734 0 l 257
 1519 0 l 257
 1509 280 l 257
 1509 1063 l 257
EndSplineSet
Refer: 1672 57357 N -1 0 0 -1 1155 1063 2
Refer: 357 46 N 1 0 0 1 642 810 2
EndChar

StartChar: uniAB5B
Encoding: 43867 43867 1658
GlifName: uniA_B_5B_
Width: 832
VWidth: 0
GlyphClass: 2
Flags: HW
LayerCount: 2
Fore
SplineSet
416 1451 m 256
 612 1451 727 1325 727 1133 c 257
 620 1133 l 257
 620 1269 547 1343 416 1343 c 256
 285 1343 212 1269 212 1133 c 257
 105 1133 l 257
 105 1325 220 1451 416 1451 c 256
EndSplineSet
EndChar

StartChar: uniE000
Encoding: 57344 57344 1659
GlifName: uniE_000
Width: 117
VWidth: 0
GlyphClass: 2
Flags: HW
LayerCount: 2
Fore
SplineSet
0 225 m 258
 119 225 l 257
 119 0 l 257
 0 0 l 258
 -62 0 -113 51 -113 113 c 256
 -113 175 -62 225 0 225 c 258
EndSplineSet
EndChar

StartChar: uniE001
Encoding: 57345 57345 1660
GlifName: uniE_001
Width: 335
VWidth: 0
GlyphClass: 2
Flags: HW
LayerCount: 2
Fore
SplineSet
0 225 m 258
 337 225 l 257
 337 0 l 257
 0 0 l 258
 -62 0 -113 51 -113 113 c 256
 -113 175 -62 225 0 225 c 258
EndSplineSet
EndChar

StartChar: uniE002
Encoding: 57346 57346 1661
GlifName: uniE_002
Width: 470
VWidth: 0
GlyphClass: 2
Flags: HW
LayerCount: 2
Fore
SplineSet
0 225 m 258
 473 225 l 257
 473 0 l 257
 0 0 l 258
 -62 0 -113 51 -113 113 c 256
 -113 175 -62 225 0 225 c 258
EndSplineSet
EndChar

StartChar: uniE003
Encoding: 57347 57347 1662
GlifName: uniE_003
Width: 1917
VWidth: 0
GlyphClass: 2
Flags: HW
LayerCount: 2
Fore
SplineSet
1377 1434 m 257
 1489 1320 l 257
 208 -40 l 257
 95 75 l 257
 1377 1434 l 257
EndSplineSet
EndChar

StartChar: uniE004
Encoding: 57348 57348 1663
GlifName: uniE_004
Width: 1115
VWidth: 0
GlyphClass: 2
Flags: HW
LayerCount: 2
Fore
SplineSet
140 -86 m 257
 25 1 l 257
 894 1132 l 257
 1009 1047 l 257
 140 -86 l 257
EndSplineSet
EndChar

StartChar: uniE005
Encoding: 57349 57349 1664
GlifName: uniE_005
Width: 1519
VWidth: 0
GlyphClass: 2
Flags: HW
LayerCount: 2
Fore
SplineSet
1279 -153 m 257
 1056 -153 l 257
 755 400 l 257
 893 480 l 257
 1279 -153 l 257
EndSplineSet
EndChar

StartChar: uniE006
Encoding: 57350 57350 1665
GlifName: uniE_006
Width: 1291
VWidth: 0
GlyphClass: 2
Flags: HW
LayerCount: 2
Fore
SplineSet
261 145 m 257
 261 284 l 257
 1030 284 l 257
 1030 145 l 257
 261 145 l 257
261 425 m 257
 261 565 l 257
 1030 565 l 257
 1030 425 l 257
 261 425 l 257
EndSplineSet
EndChar

StartChar: uniE007
Encoding: 57351 57351 1666
GlifName: uniE_007
Width: 940
VWidth: 0
GlyphClass: 2
Flags: HW
LayerCount: 2
Fore
SplineSet
344 1218 m 256
 301 1218 258 1222 218 1231 c 257
 248 1337 l 257
 278 1330 324 1324 370 1324 c 256
 447 1324 531 1342 531 1403 c 256
 531 1433 492 1445 443 1454 c 256
 362 1470 279 1498 279 1605 c 256
 279 1732 367 1820 492 1820 c 256
 535 1820 577 1808 618 1790 c 257
 584 1704 l 257
 559 1715 530 1722 499 1722 c 256
 434 1722 376 1689 376 1621 c 256
 376 1573 425 1563 478 1553 c 256
 558 1537 627 1509 627 1410 c 256
 627 1277 489 1218 344 1218 c 256
EndSplineSet
EndChar

StartChar: uniE008
Encoding: 57352 57352 1667
GlifName: uniE_008
Width: 1226
VWidth: 0
GlyphClass: 2
Flags: HW
LayerCount: 2
Fore
SplineSet
560 1269 m 256
 560 1344 506 1407 428 1407 c 256
 350 1407 296 1344 296 1269 c 256
 296 1193 352 1131 428 1131 c 256
 504 1131 560 1193 560 1269 c 256
715 1268 m 256
 715 1113 600 975 428 975 c 256
 256 975 138 1113 138 1268 c 256
 138 1420 253 1565 428 1565 c 256
 603 1565 715 1420 715 1268 c 256
EndSplineSet
EndChar

StartChar: uniE009
Encoding: 57353 57353 1668
GlifName: uniE_009
Width: 1246
VWidth: 0
GlyphClass: 2
Flags: HW
LayerCount: 2
Fore
SplineSet
575 1620 m 257
 684 1620 l 257
 684 -209 l 257
 575 -209 l 257
 575 1620 l 257
EndSplineSet
EndChar

StartChar: uniE00A
Encoding: 57354 57354 1669
GlifName: uniE_00A_
Width: 1321
VWidth: 0
GlyphClass: 2
Flags: HW
LayerCount: 2
Fore
SplineSet
92 507 m 257
 92 658 l 257
 735 658 l 257
 735 507 l 257
 92 507 l 257
EndSplineSet
EndChar

StartChar: uniE00B
Encoding: 57355 57355 1670
GlifName: uniE_00B_
Width: 1205
VWidth: 0
GlyphClass: 2
Flags: HW
LayerCount: 2
Fore
SplineSet
835 295 m 257
 785 150 666 -11 406 -11 c 256
 214 -11 98 96 98 278 c 256
 98 510 287 629 524 629 c 256
 643 629 742 611 838 584 c 257
 766 463 l 257
 702 480 637 485 556 485 c 256
 398 485 298 422 298 310 c 256
 298 219 351 163 475 163 c 256
 632 163 724 267 760 315 c 257
 835 295 l 257
EndSplineSet
EndChar

StartChar: uniE00C
Encoding: 57356 57356 1671
GlifName: uniE_00C_
Width: 1681
VWidth: 0
GlyphClass: 2
Flags: HW
LayerCount: 2
Fore
SplineSet
1604 697 m 258
 1604 0 l 257
 1380 0 l 257
 1380 660 l 258
 1380 782 1321 852 1210 852 c 256
 1059 852 978 740 950 573 c 257
 910 670 l 257
 929 905 1062 1072 1274 1072 c 256
 1471 1072 1604 918 1604 697 c 258
EndSplineSet
EndChar

StartChar: uniE00D
Encoding: 57357 57357 1672
GlifName: uniE_00D_
Width: 1149
VWidth: 0
GlyphClass: 2
Flags: HW
LayerCount: 2
Fore
SplineSet
1020 695 m 258
 1020 0 l 257
 795 0 l 257
 795 658 l 258
 795 784 725 852 606 852 c 256
 463 852 364 754 333 573 c 257
 295 670 l 257
 318 918 464 1072 668 1072 c 256
 875 1072 1020 920 1020 695 c 258
EndSplineSet
EndChar

StartChar: uniE00E
Encoding: 57358 57358 1673
GlifName: uniE_00E_
Width: 844
VWidth: 0
GlyphClass: 2
Flags: HW
LayerCount: 2
Fore
SplineSet
810 861 m 257
 792 866 762 870 733 870 c 256
 512 870 389 670 371 437 c 257
 307 462 l 257
 326 761 436 1074 752 1074 c 256
 774 1074 797 1071 818 1067 c 257
 810 861 l 257
EndSplineSet
EndChar

StartChar: uniE00F
Encoding: 57359 57359 1674
GlifName: uniE_00F_
Width: 1236
VWidth: 0
GlyphClass: 2
Flags: HW
LayerCount: 2
Fore
SplineSet
1048 531 m 256
 1048 221 906 -10 651 -10 c 256
 491 -10 367 78 276 233 c 257
 342 301 l 257
 401 214 487 171 574 171 c 256
 718 171 823 302 823 531 c 256
 823 761 718 891 574 891 c 256
 487 891 401 848 342 761 c 257
 276 828 l 257
 367 983 491 1072 651 1072 c 256
 906 1072 1048 841 1048 531 c 256
EndSplineSet
EndChar

StartChar: uniE010
Encoding: 57360 57360 1675
GlifName: uniE_010
Width: 1590
VWidth: 0
GlyphClass: 2
Flags: HW
LayerCount: 2
Fore
SplineSet
1314 -206 m 257
 1072 -206 l 257
 926 89 l 257
 1069 174 l 257
 1314 -206 l 257
EndSplineSet
EndChar

StartChar: uniE011
Encoding: 57361 57361 1676
GlifName: uniE_011
Width: 1094
VWidth: 0
GlyphClass: 2
Flags: HW
LayerCount: 2
Fore
SplineSet
452 1446 m 257
 677 1446 l 257
 677 933 l 257
 452 933 l 257
 452 1446 l 257
452 98 m 257
 677 98 l 257
 677 -448 l 257
 452 -448 l 257
 452 98 l 257
EndSplineSet
EndChar

StartChar: uniE012
Encoding: 57362 57362 1677
GlifName: uniE_012
Width: 1603
VWidth: 0
GlyphClass: 2
Flags: HW
LayerCount: 2
Fore
SplineSet
1157 1201 m 257
 1387 1434 l 257
 1499 1320 l 257
 1213 1034 l 257
 1157 1201 l 257
421 174 m 257
 218 -40 l 257
 105 75 l 257
 353 330 l 257
 421 174 l 257
EndSplineSet
EndChar

StartChar: uniE013
Encoding: 57363 57363 1678
GlifName: uniE_013
Width: 1101
VWidth: 0
GlyphClass: 2
Flags: HW
LayerCount: 2
Fore
SplineSet
788 923 m 257
 949 1132 l 257
 1064 1047 l 257
 883 812 l 257
 788 923 l 257
358 128 m 257
 195 -86 l 257
 80 1 l 257
 270 248 l 257
 358 128 l 257
EndSplineSet
EndChar

StartChar: uniE014
Encoding: 57364 57364 1679
GlifName: uniE_014
Width: 1291
VWidth: 0
GlyphClass: 2
Flags: HW
LayerCount: 2
Fore
SplineSet
261 285 m 257
 261 424 l 257
 1030 424 l 257
 1030 285 l 257
 261 285 l 257
EndSplineSet
EndChar

StartChar: uniE015
Encoding: 57365 57365 1680
GlifName: uniE_015
Width: 1500
VWidth: 0
GlyphClass: 2
Flags: HW
LayerCount: 2
Fore
SplineSet
1444 1054 m 257
 1444 969 l 257
 58 969 l 257
 58 1054 l 257
 1444 1054 l 257
EndSplineSet
EndChar

StartChar: uniE016
Encoding: 57366 57366 1681
GlifName: uniE_016
Width: 414
VWidth: 0
GlyphClass: 2
Flags: HW
LayerCount: 2
Fore
SplineSet
78 906 m 257
 78 1031 l 257
 338 1031 l 257
 338 906 l 257
 78 906 l 257
EndSplineSet
EndChar

StartChar: uniE017
Encoding: 57367 57367 1682
GlifName: uniE_017
Width: 639
VWidth: 0
GlyphClass: 2
Flags: HW
LayerCount: 2
Fore
SplineSet
581 977 m 257
 627 876 l 257
 59 620 l 257
 12 720 l 257
 581 977 l 257
EndSplineSet
EndChar

StartChar: uniE018
Encoding: 57368 57368 1683
GlifName: uniE_018
Width: 1142
VWidth: 0
GlyphClass: 2
Flags: HW
LayerCount: 2
Fore
SplineSet
289 42 m 257
 158 42 l 257
 853 1193 l 257
 985 1193 l 257
 289 42 l 257
EndSplineSet
EndChar

StartChar: uniE019
Encoding: 57369 57369 1684
GlifName: uniE_019
Width: 1508
VWidth: 0
GlyphClass: 2
Flags: HW
LayerCount: 2
Fore
SplineSet
571 8 m 257
 699 137 l 257
 828 8 l 257
 699 -121 l 257
 571 8 l 257
859 8 m 257
 988 136 l 257
 1117 8 l 257
 988 -121 l 257
 859 8 l 257
721 -224 m 257
 843 -102 l 257
 965 -224 l 257
 843 -346 l 257
 721 -224 l 257
EndSplineSet
EndChar

StartChar: uniE01A
Encoding: 57370 57370 1685
GlifName: uniE_01A_
Width: 1242
VWidth: 0
GlyphClass: 2
Flags: HW
LayerCount: 2
Fore
SplineSet
310 214 m 257
 243 318 l 257
 938 1219 l 257
 1000 1109 l 257
 310 214 l 257
EndSplineSet
EndChar

StartChar: uniE020
Encoding: 57376 57376 1686
GlifName: uniE_020
Width: 891
VWidth: 0
GlyphClass: 2
Flags: HW
LayerCount: 2
Fore
SplineSet
133 448 m 256
 133 661 291 786 461 786 c 256
 560 786 650 749 728 675 c 257
 659 576 l 257
 604 623 539 647 470 647 c 256
 363 647 271 573 271 451 c 256
 271 343 358 280 490 280 c 256
 568 280 644 294 759 333 c 257
 805 205 l 257
 127 -11 l 257
 86 120 l 257
 351 204 l 257
 226 226 133 322 133 448 c 256
EndSplineSet
EndChar

StartChar: uniE021
Encoding: 57377 57377 1687
GlifName: uniE_021
Width: 536
VWidth: 0
GlyphClass: 2
Flags: HW
LayerCount: 2
Fore
SplineSet
565 1829 m 257
 660 1780 l 257
 595 1643 525 1586 421 1586 c 256
 356 1586 293 1611 240 1635 c 256
 197 1656 157 1671 122 1671 c 256
 53 1671 12 1611 -34 1541 c 257
 -122 1595 l 257
 -50 1732 39 1800 134 1800 c 256
 185 1800 235 1779 285 1757 c 256
 335 1735 383 1715 430 1715 c 256
 481 1715 520 1744 565 1829 c 257
381 1401 m 257
 381 0 l 257
 156 0 l 257
 156 1401 l 257
 381 1401 l 257
EndSplineSet
EndChar

StartChar: uniE022
Encoding: 57378 57378 1688
GlifName: uniE_022
Width: 536
VWidth: 0
GlyphClass: 2
Flags: HW
LayerCount: 2
Fore
SplineSet
381 0 m 257
 156 0 l 257
 156 1401 l 257
 381 1401 l 257
 381 0 l 257
EndSplineSet
EndChar

StartChar: uniE023
Encoding: 57379 57379 1689
GlifName: uniE_023
Width: 1420
VWidth: 0
GlyphClass: 2
Flags: HW
LayerCount: 2
Fore
SplineSet
491 922 m 256
 580 922 670 888 824 819 c 256
 984 747 1119 695 1270 666 c 257
 1269 430 l 257
 767 319 311 99 311 -222 c 256
 311 -427 518 -529 794 -529 c 256
 960 -529 1137 -492 1262 -441 c 257
 1344 -653 l 257
 1189 -726 995 -771 797 -771 c 256
 388 -771 86 -581 86 -247 c 256
 86 136 466 397 954 547 c 257
 860 566 783 601 709 635 c 256
 622 674 563 698 511 698 c 256
 406 698 354 624 329 508 c 258
 322 473 l 257
 142 506 l 257
 149 547 l 258
 194 787 297 922 491 922 c 256
EndSplineSet
EndChar

StartChar: uniE024
Encoding: 57380 57380 1690
GlifName: uniE_024
Width: 1024
VWidth: 0
GlyphClass: 2
Flags: HW
LayerCount: 2
Fore
SplineSet
938 392 m 256
 938 97 662 -7 398 -7 c 256
 286 -7 173 9 76 36 c 257
 127 250 l 257
 198 232 297 217 392 217 c 256
 575 217 716 270 716 408 c 256
 716 525 601 696 379 891 c 257
 526 1064 l 257
 772 849 938 630 938 392 c 256
EndSplineSet
EndChar

StartChar: uniE025
Encoding: 57381 57381 1691
GlifName: uniE_025
Width: 785
VWidth: 0
GlyphClass: 2
Flags: HW
LayerCount: 2
Fore
SplineSet
365 626 m 257
 579 698 l 257
 651 462 689 286 689 132 c 256
 689 -202 505 -420 59 -587 c 257
 -38 -383 l 257
 324 -250 463 -114 463 130 c 256
 463 254 431 418 365 626 c 257
EndSplineSet
EndChar

StartChar: uniE026
Encoding: 57382 57382 1692
GlifName: uniE_026
Width: 2548
VWidth: 0
GlyphClass: 2
Flags: HW
LayerCount: 2
Fore
SplineSet
1593 0 m 256
 1506 0 1448 34 1410 89 c 257
 1409 -319 1163 -512 757 -512 c 256
 295 -512 86 -297 86 97 c 256
 86 263 123 464 179 635 c 257
 384 574 l 257
 345 439 306 267 306 124 c 256
 306 -155 438 -287 755 -287 c 256
 1085 -287 1198 -148 1198 88 c 256
 1198 231 1148 421 1095 588 c 257
 1316 673 l 257
 1381 441 l 257
 1415 296 1463 225 1579 225 c 256
 1678 225 1729 283 1741 415 c 258
 1757 622 l 257
 1956 607 l 257
 1943 420 l 258
 1932 286 1989 225 2100 225 c 256
 2200 225 2248 284 2248 403 c 256
 2248 461 2236 564 2215 677 c 257
 2434 729 l 257
 2457 622 2470 499 2470 404 c 256
 2470 133 2358 0 2135 0 c 256
 1981 0 1882 65 1846 182 c 257
 1815 64 1713 0 1593 0 c 256
EndSplineSet
EndChar

StartChar: uniE027
Encoding: 57383 57383 1693
GlifName: uniE_027
Width: 2494
VWidth: 0
GlyphClass: 2
Flags: HW
LayerCount: 2
Fore
SplineSet
1986 597 m 256
 1874 597 1731 510 1558 260 c 257
 1621 234 1704 225 1797 225 c 256
 1987 225 2162 268 2162 428 c 256
 2162 526 2094 597 1986 597 c 256
2023 818 m 256
 2262 818 2408 647 2408 426 c 256
 2408 103 2128 0 1777 0 c 256
 1633 0 1513 20 1419 55 c 257
 1400 -330 1155 -502 755 -502 c 256
 295 -502 86 -287 86 104 c 256
 86 274 123 474 179 645 c 257
 384 584 l 257
 345 449 306 277 306 124 c 256
 306 -145 438 -277 755 -277 c 256
 1084 -277 1198 -138 1198 99 c 256
 1198 240 1152 412 1095 592 c 257
 1315 691 l 257
 1346 592 1376 460 1395 344 c 257
 1609 657 1804 818 2023 818 c 256
EndSplineSet
EndChar

StartChar: uniE028
Encoding: 57384 57384 1694
GlifName: uniE_028
Width: 1607
VWidth: 0
GlyphClass: 2
Flags: HW
LayerCount: 2
Fore
SplineSet
643 225 m 257
 914 225 l 258
 1112 225 1275 259 1275 420 c 256
 1275 523 1208 597 1099 597 c 256
 985 597 828 507 643 225 c 257
379 225 m 257
 393 247 408 268 421 289 c 257
 421 1401 l 257
 646 1401 l 257
 646 748 l 258
 646 659 642 576 626 493 c 257
 785 707 961 818 1137 818 c 256
 1376 818 1521 643 1521 426 c 256
 1521 199 1397 0 867 0 c 258
 86 0 l 257
 86 225 l 257
 379 225 l 257
EndSplineSet
EndChar

StartChar: uniE029
Encoding: 57385 57385 1695
GlifName: uniE_029
Width: 1417
VWidth: 0
GlyphClass: 2
Flags: HW
LayerCount: 2
Fore
SplineSet
1066 1081 m 257
 941 916 l 257
 880 977 790 1027 679 1027 c 256
 540 1027 408 926 408 768 c 256
 408 610 556 547 811 547 c 256
 908 547 1023 559 1109 569 c 257
 1121 348 l 257
 679 324 312 147 312 -178 c 256
 312 -405 534 -505 819 -505 c 256
 971 -505 1141 -477 1257 -431 c 257
 1331 -645 l 257
 1190 -704 999 -741 812 -741 c 256
 394 -741 86 -564 86 -204 c 256
 86 44 246 267 500 393 c 257
 312 439 181 549 181 740 c 256
 181 1032 411 1252 671 1252 c 256
 830 1252 971 1180 1066 1081 c 257
EndSplineSet
EndChar

StartChar: uniE02A
Encoding: 57386 57386 1696
GlifName: uniE_02A_
Width: 882
VWidth: 0
GlyphClass: 2
Flags: HW
LayerCount: 2
Fore
SplineSet
0 225 m 258
 882 225 l 257
 882 0 l 257
 0 0 l 258
 -24 0 -35 25 -35 113 c 256
 -35 201 -24 225 0 225 c 258
EndSplineSet
EndChar

StartChar: uniE02B
Encoding: 57387 57387 1697
GlifName: uniE_02B_
Width: 1684
VWidth: 0
GlyphClass: 2
Flags: HW
LayerCount: 2
Fore
SplineSet
799 225 m 256
 1187 225 1315 288 1315 594 c 258
 1315 1397 l 257
 1540 1397 l 257
 1540 594 l 258
 1540 159 1300 0 781 0 c 256
 289 0 86 132 86 450 c 256
 86 535 100 643 125 742 c 257
 329 697 l 257
 309 606 298 519 298 460 c 256
 298 278 411 225 799 225 c 256
EndSplineSet
EndChar

StartChar: uniE02C
Encoding: 57388 57388 1698
GlifName: uniE_02C_
Width: 1425
VWidth: 0
GlyphClass: 2
Flags: HW
LayerCount: 2
Fore
SplineSet
672 -322 m 256
 936 -322 1056 -192 1056 79 c 258
 1056 1401 l 257
 1281 1401 l 257
 1281 79 l 258
 1281 -334 1046 -548 656 -548 c 256
 281 -548 86 -342 86 -31 c 256
 86 106 118 266 182 427 c 257
 381 355 l 257
 334 226 307 97 307 -4 c 256
 307 -204 423 -322 672 -322 c 256
EndSplineSet
EndChar

StartChar: uniE02D
Encoding: 57389 57389 1699
GlifName: uniE_02D_
Width: 1302
VWidth: 0
GlyphClass: 2
Flags: HW
LayerCount: 2
Fore
SplineSet
820 599 m 256
 682 599 625 414 597 275 c 257
 622 269 656 260 682 253 c 256
 761 231 833 215 890 215 c 256
 966 215 996 259 996 348 c 256
 996 469 951 599 820 599 c 256
825 820 m 256
 1068 820 1201 615 1201 338 c 256
 1201 117 1100 -11 910 -11 c 256
 825 -11 719 10 594 41 c 256
 511 63 452 75 411 75 c 256
 340 75 313 36 313 -48 c 258
 313 -744 l 257
 86 -744 l 257
 86 -25 l 258
 86 188 203 329 399 311 c 257
 448 586 584 820 825 820 c 256
EndSplineSet
EndChar

StartChar: uniE02E
Encoding: 57390 57390 1700
GlifName: uniE_02E_
Width: 918
VWidth: 0
GlyphClass: 2
Flags: HW
LayerCount: 2
Fore
SplineSet
455 215 m 256
 563 215 619 274 619 363 c 256
 619 458 561 573 455 671 c 257
 351 574 291 458 291 363 c 256
 291 275 345 215 455 215 c 256
455 -11 m 256
 225 -11 86 137 86 321 c 256
 86 498 181 663 329 806 c 257
 297 836 265 866 228 897 c 257
 363 1059 l 257
 610 858 832 606 832 338 c 256
 832 141 677 -11 455 -11 c 256
EndSplineSet
EndChar

StartChar: uniE02F
Encoding: 57391 57391 1701
GlifName: uniE_02F_
Width: 981
VWidth: 0
GlyphClass: 2
Flags: HW
LayerCount: 2
Fore
SplineSet
657 13 m 257
 600 3 538 -6 468 -6 c 256
 253 -6 121 104 121 330 c 256
 121 561 237 824 491 824 c 256
 811 824 895 462 895 111 c 256
 895 -229 646 -445 179 -584 c 257
 86 -378 l 257
 412 -288 616 -156 657 13 c 257
683 241 m 257
 669 427 620 607 487 607 c 256
 372 607 320 477 320 350 c 256
 320 252 379 220 494 220 c 256
 565 220 633 230 683 241 c 257
EndSplineSet
EndChar

StartChar: uniE030
Encoding: 57392 57392 1702
GlifName: uniE_030
Width: 0
VWidth: 0
GlyphClass: 2
Flags: H
LayerCount: 2
Fore
SplineSet
74 1540 m 256
 28 1540 -20 1497 -20 1448 c 256
 -20 1391 45 1363 93 1350 c 257
 122 1384 134 1421 134 1459 c 256
 134 1504 114 1540 74 1540 c 256
85 1641 m 256
 175 1641 235 1567 235 1465 c 256
 235 1266 5 1148 -198 1091 c 257
 -227 1177 -276 1252 -357 1306 c 257
 -301 1391 l 257
 -232 1349 -180 1289 -139 1215 c 257
 -90 1233 -29 1261 15 1287 c 257
 -44 1309 -117 1356 -117 1446 c 256
 -117 1540 -23 1641 85 1641 c 256
EndSplineSet
EndChar

StartChar: uniE031
Encoding: 57393 57393 1703
GlifName: uniE_031
Width: 0
VWidth: 0
GlyphClass: 2
Flags: H
LayerCount: 2
Fore
SplineSet
215 1349 m 257
 244 1253 l 257
 -215 1107 l 257
 -244 1204 l 257
 215 1349 l 257
EndSplineSet
EndChar

StartChar: uniE032
Encoding: 57394 57394 1704
GlifName: uniE_032
Width: 0
VWidth: 0
GlyphClass: 2
Flags: H
LayerCount: 2
Fore
SplineSet
74 1540 m 256
 28 1540 -20 1497 -20 1448 c 256
 -20 1391 45 1363 93 1350 c 257
 122 1384 134 1421 134 1459 c 256
 134 1504 114 1540 74 1540 c 256
86 1641 m 256
 176 1641 235 1567 235 1465 c 256
 235 1264 2 1145 -206 1088 c 257
 -234 1183 l 257
 -155 1205 -34 1258 15 1288 c 257
 -46 1310 -117 1358 -117 1445 c 256
 -117 1543 -20 1641 86 1641 c 256
EndSplineSet
EndChar

StartChar: uniE033
Encoding: 57395 57395 1705
GlifName: uniE_033
Width: 0
VWidth: 0
GlyphClass: 2
Flags: H
LayerCount: 2
Fore
SplineSet
188 1282 m 256
 188 1320 175 1371 163 1412 c 257
 257 1441 l 257
 272 1393 287 1340 287 1269 c 256
 287 1170 233 1107 135 1107 c 256
 76 1107 16 1142 0 1199 c 257
 -16 1142 -76 1107 -135 1107 c 256
 -233 1107 -287 1170 -287 1269 c 256
 -287 1340 -272 1393 -257 1441 c 257
 -163 1412 l 257
 -175 1371 -188 1320 -188 1282 c 256
 -188 1233 -169 1208 -120 1208 c 256
 -65 1208 -43 1252 -43 1346 c 258
 -43 1375 l 257
 43 1375 l 257
 43 1346 l 258
 43 1252 65 1208 120 1208 c 256
 169 1208 188 1233 188 1282 c 256
EndSplineSet
EndChar

StartChar: uniE034
Encoding: 57396 57396 1706
GlifName: uniE_034
Width: 0
VWidth: 0
GlyphClass: 2
Flags: H
LayerCount: 2
Fore
SplineSet
0 1358 m 256
 -60 1358 -91 1323 -91 1270 c 256
 -91 1217 -58 1181 0 1181 c 256
 56 1181 91 1219 91 1270 c 256
 91 1321 60 1358 0 1358 c 256
0 1454 m 256
 112 1454 186 1376 186 1270 c 256
 186 1164 112 1084 0 1084 c 256
 -113 1084 -186 1165 -186 1270 c 256
 -186 1375 -113 1454 0 1454 c 256
EndSplineSet
EndChar

StartChar: uniE035
Encoding: 57397 57397 1707
GlifName: uniE_035
Width: 0
VWidth: 0
GlyphClass: 2
Flags: H
LayerCount: 2
Fore
SplineSet
-282 1142 m 257
 -250 1202 -189 1278 -100 1278 c 256
 -53 1278 -17 1258 18 1236 c 256
 47 1218 71 1206 94 1206 c 256
 138 1206 165 1237 189 1287 c 257
 281 1248 l 257
 249 1178 190 1107 100 1107 c 256
 57 1107 25 1124 -12 1149 c 256
 -38 1167 -63 1178 -86 1178 c 256
 -132 1178 -170 1141 -191 1098 c 257
 -282 1142 l 257
EndSplineSet
EndChar

StartChar: uniE036
Encoding: 57398 57398 1708
GlifName: uniE_036
Width: 0
VWidth: 0
GlyphClass: 2
Flags: H
LayerCount: 2
Fore
SplineSet
153 1579 m 257
 126 1489 l 257
 104 1497 65 1502 41 1502 c 256
 -24 1502 -72 1462 -72 1397 c 256
 -72 1339 -30 1296 26 1296 c 256
 40 1296 58 1299 74 1304 c 258
 215 1349 l 257
 244 1253 l 257
 -215 1107 l 257
 -244 1204 l 257
 -92 1253 l 257
 -136 1283 -163 1339 -163 1401 c 256
 -163 1518 -71 1599 48 1599 c 256
 81 1599 115 1593 153 1579 c 257
EndSplineSet
EndChar

StartChar: uniE037
Encoding: 57399 57399 1709
GlifName: uniE_037
Width: 0
VWidth: 0
GlyphClass: 2
Flags: H
LayerCount: 2
Fore
SplineSet
42 1107 m 257
 -42 1107 l 257
 -254 1378 l 257
 -174 1440 l 257
 0 1211 l 257
 174 1440 l 257
 254 1378 l 257
 42 1107 l 257
EndSplineSet
EndChar

StartChar: uniE038
Encoding: 57400 57400 1710
GlifName: uniE_038
Width: 1786
VWidth: 0
GlyphClass: 2
Flags: HW
LayerCount: 2
Fore
SplineSet
1649 821 m 257
 1682 700 1700 591 1700 493 c 256
 1700 129 1474 0 892 0 c 256
 310 0 86 129 86 493 c 256
 86 591 104 700 137 821 c 257
 340 774 l 257
 315 673 302 587 302 514 c 256
 302 284 438 225 892 225 c 256
 1346 225 1484 284 1484 514 c 256
 1484 587 1471 673 1446 774 c 257
 1649 821 l 257
EndSplineSet
EndChar

StartChar: uniE039
Encoding: 57401 57401 1711
GlifName: uniE_039
Width: 1545
VWidth: 0
GlyphClass: 2
Flags: HW
LayerCount: 2
Fore
SplineSet
1244 233 m 257
 1230 419 1180 598 1047 598 c 256
 932 598 881 467 881 340 c 256
 881 242 940 210 1055 210 c 256
 1126 210 1194 222 1244 233 c 257
1052 824 m 256
 1344 824 1459 503 1459 140 c 257
 1459 -297 1230 -550 763 -550 c 256
 335 -550 86 -327 86 54 c 256
 86 189 116 344 176 515 c 257
 381 428 l 257
 338 284 311 157 311 54 c 256
 311 -201 472 -324 782 -324 c 256
 1056 -324 1212 -200 1226 23 c 257
 1171 6 1099 -6 1028 -6 c 256
 813 -6 682 105 682 330 c 256
 682 561 798 824 1052 824 c 256
EndSplineSet
EndChar

StartChar: uniE03A
Encoding: 57402 57402 1712
GlifName: uniE_03A_
Width: 0
VWidth: 0
GlyphClass: 2
Flags: H
LayerCount: 2
Fore
SplineSet
-57 1452 m 257
 57 1452 l 257
 57 1080 l 257
 -57 1080 l 257
 -57 1452 l 257
EndSplineSet
EndChar

StartChar: uniE03B
Encoding: 57403 57403 1713
GlifName: uniE_03B_
Width: 1814
VWidth: 0
GlyphClass: 2
Flags: HW
LayerCount: 2
Fore
SplineSet
1527 462 m 257
 1454 442 1374 430 1284 430 c 256
 1075 430 938 508 938 732 c 256
 938 959 1044 1237 1306 1237 c 256
 1677 1237 1728 726 1728 502 c 256
 1728 78 1450 0 883 0 c 256
 302 0 86 121 86 487 c 256
 86 582 103 695 132 809 c 257
 338 762 l 257
 314 665 301 577 301 506 c 256
 301 283 421 225 900 225 c 256
 1427 227 1527 254 1527 462 c 257
1498 651 m 257
 1484 837 1434 1016 1301 1016 c 256
 1186 1016 1134 885 1134 758 c 256
 1134 660 1193 628 1308 628 c 256
 1379 628 1448 640 1498 651 c 257
EndSplineSet
EndChar

StartChar: uniE03C
Encoding: 57404 57404 1714
GlifName: uniE_03C_
Width: 1679
VWidth: 0
GlyphClass: 2
Flags: HW
LayerCount: 2
Fore
SplineSet
132 810 m 257
 338 762 l 257
 314 661 301 574 301 506 c 256
 301 296 424 225 795 225 c 256
 1155 225 1337 292 1337 425 c 256
 1337 554 1164 741 854 952 c 257
 854 1148 l 257
 1138 1318 1425 1441 1726 1520 c 257
 1774 1300 l 257
 1522 1228 1315 1148 1112 1043 c 257
 1112 1033 l 257
 1423 783 1563 596 1563 411 c 256
 1563 146 1290 0 790 0 c 256
 292 0 86 143 86 488 c 256
 86 583 102 694 132 810 c 257
EndSplineSet
EndChar

StartChar: uniE03D
Encoding: 57405 57405 1715
GlifName: uniE_03D_
Width: 1574
VWidth: 0
GlyphClass: 2
Flags: HW
LayerCount: 2
Fore
SplineSet
1138 605 m 257
 1350 705 l 257
 1435 496 1488 334 1488 113 c 256
 1488 -302 1198 -517 784 -517 c 256
 316 -517 86 -292 86 111 c 256
 86 268 120 453 180 647 c 257
 387 581 l 257
 347 431 308 267 308 131 c 256
 308 -140 449 -291 786 -291 c 256
 1113 -291 1263 -139 1263 106 c 256
 1263 254 1212 425 1138 605 c 257
EndSplineSet
EndChar

StartChar: uniE03E
Encoding: 57406 57406 1716
GlifName: uniE_03E_
Width: 1550
VWidth: 0
GlyphClass: 2
Flags: HW
LayerCount: 2
Fore
SplineSet
1415 801 m 257
 1347 598 l 257
 1293 617 1216 631 1153 631 c 256
 972 631 837 527 837 363 c 256
 837 259 907 230 1101 216 c 256
 1317 201 1464 157 1464 -65 c 256
 1464 -403 1143 -550 746 -550 c 256
 310 -550 96 -368 96 49 c 256
 96 177 111 305 140 443 c 257
 351 403 l 257
 327 267 312 160 312 42 c 256
 312 -234 443 -324 747 -324 c 256
 991 -324 1248 -250 1248 -109 c 256
 1248 -39 1207 -16 1054 -4 c 256
 756 18 619 95 619 331 c 256
 619 626 826 854 1137 854 c 256
 1231 854 1333 834 1415 801 c 257
EndSplineSet
EndChar

StartChar: uniE03F
Encoding: 57407 57407 1717
GlifName: uniE_03F_
Width: 1964
VWidth: 0
GlyphClass: 2
Flags: HW
LayerCount: 2
Fore
SplineSet
132 810 m 257
 338 762 l 257
 314 661 301 574 301 505 c 256
 301 294 422 225 794 225 c 256
 1154 225 1333 290 1333 424 c 256
 1333 553 1169 732 854 952 c 257
 854 1148 l 257
 1138 1318 1425 1441 1726 1520 c 257
 1774 1300 l 257
 1522 1228 1315 1148 1112 1043 c 257
 1112 1033 l 257
 1336 853 1452 724 1557 524 c 256
 1680 293 1773 225 1964 225 c 258
 1965 225 l 257
 1965 0 l 257
 1964 0 l 258
 1748 0 1593 88 1494 282 c 257
 1448 96 1208 0 796 0 c 256
 292 0 86 142 86 488 c 256
 86 583 102 694 132 810 c 257
EndSplineSet
EndChar

StartChar: uniE040
Encoding: 57408 57408 1718
GlifName: uniE_040
Width: 1782
VWidth: 0
GlyphClass: 2
Flags: HW
LayerCount: 2
Fore
SplineSet
180 647 m 257
 387 581 l 257
 347 431 308 267 308 131 c 256
 308 -140 448 -291 785 -291 c 256
 1124 -291 1262 -138 1262 123 c 256
 1262 254 1211 421 1139 605 c 257
 1352 706 l 257
 1441 472 l 258
 1499 310 1574 225 1781 225 c 258
 1782 225 l 257
 1782 0 l 257
 1781 0 l 258
 1650 0 1529 49 1470 137 c 257
 1500 -285 1214 -517 784 -517 c 256
 316 -517 86 -292 86 111 c 256
 86 268 120 453 180 647 c 257
EndSplineSet
EndChar

StartChar: uniE041
Encoding: 57409 57409 1719
GlifName: uniE_041
Width: 594
VWidth: 0
GlyphClass: 2
Flags: HW
LayerCount: 2
Fore
SplineSet
447 838 m 257
 484 685 508 548 508 430 c 256
 508 168 377 0 46 0 c 258
 0 0 l 258
 -24 0 -35 25 -35 113 c 256
 -35 201 -24 225 0 225 c 258
 46 225 l 258
 220 225 289 302 289 451 c 256
 289 536 266 646 235 780 c 257
 447 838 l 257
EndSplineSet
EndChar

StartChar: uniE042
Encoding: 57410 57410 1720
GlifName: uniE_042
Width: 834
VWidth: 0
GlyphClass: 2
Flags: HW
LayerCount: 2
Fore
SplineSet
531 505 m 258
 531 308 566 225 775 225 c 258
 835 225 l 257
 835 0 l 257
 773 0 l 258
 604 0 459 74 417 205 c 257
 374 75 215 0 45 0 c 258
 0 0 l 258
 -24 0 -35 25 -35 113 c 256
 -35 201 -24 225 0 225 c 258
 45 225 l 258
 266 225 306 309 306 505 c 258
 306 665 l 257
 531 665 l 257
 531 505 l 258
EndSplineSet
EndChar

StartChar: uniE043
Encoding: 57411 57411 1721
GlifName: uniE_043
Width: 1459
VWidth: 0
GlyphClass: 2
Flags: HW
LayerCount: 2
Fore
SplineSet
1459 225 m 257
 1459 0 l 257
 1233 0 l 257
 1328 -49 1389 -122 1389 -220 c 256
 1389 -467 1088 -601 750 -601 c 256
 325 -601 86 -409 86 -18 c 256
 86 183 119 355 173 553 c 257
 382 496 l 257
 333 304 304 159 304 -3 c 256
 304 -270 455 -375 760 -375 c 256
 975 -375 1187 -321 1187 -177 c 256
 1187 -65 1047 -39 726 -0 c 257
 758 225 l 257
 1459 225 l 257
EndSplineSet
EndChar

StartChar: uniE044
Encoding: 57412 57412 1722
GlifName: uniE_044
Width: 622
VWidth: 0
GlyphClass: 2
Flags: HW
LayerCount: 2
Fore
SplineSet
145 1401 m 257
 371 1401 l 257
 371 461 l 258
 371 292 427 225 622 225 c 258
 623 225 l 257
 623 0 l 257
 622 0 l 258
 315 0 145 153 145 457 c 258
 145 1401 l 257
EndSplineSet
EndChar

StartChar: uniE045
Encoding: 57413 57413 1723
GlifName: uniE_045
Width: 1412
VWidth: 0
GlyphClass: 2
Flags: HW
LayerCount: 2
Fore
SplineSet
491 922 m 256
 581 922 670 888 824 819 c 256
 984 747 1119 694 1270 666 c 257
 1269 430 l 257
 1209 415 1146 398 1084 378 c 257
 1143 239 1229 225 1374 225 c 258
 1412 225 l 257
 1412 0 l 257
 1371 0 l 258
 1143 0 995 75 929 333 c 257
 575 208 311 22 311 -222 c 256
 311 -428 518 -529 794 -529 c 256
 960 -529 1137 -492 1262 -441 c 257
 1344 -653 l 257
 1189 -725 994 -771 797 -771 c 256
 388 -771 86 -581 86 -247 c 256
 86 136 466 397 954 547 c 257
 860 566 783 601 709 635 c 256
 622 674 564 698 511 698 c 256
 406 698 354 624 329 508 c 258
 322 473 l 257
 142 506 l 257
 149 547 l 258
 194 787 297 922 491 922 c 256
EndSplineSet
EndChar

StartChar: uniE046
Encoding: 57414 57414 1724
GlifName: uniE_046
Width: 1332
VWidth: 0
GlyphClass: 2
Flags: HW
LayerCount: 2
Fore
SplineSet
473 902 m 256
 569 902 673 856 797 801 c 256
 923 745 1068 680 1246 646 c 257
 1246 457 l 257
 820 172 l 258
 638 51 449 0 221 0 c 258
 0 0 l 258
 -24 0 -35 27 -35 113 c 256
 -35 199 -24 225 0 225 c 258
 261 225 l 258
 438 225 572 258 719 349 c 258
 982 515 l 257
 860 538 764 580 683 617 c 256
 606 651 544 679 483 679 c 256
 384 679 330 607 305 488 c 258
 298 453 l 257
 118 486 l 257
 125 529 l 258
 168 756 265 902 473 902 c 256
EndSplineSet
EndChar

StartChar: uniE047
Encoding: 57415 57415 1725
GlifName: uniE_047
Width: 1380
VWidth: 0
GlyphClass: 2
Flags: HW
LayerCount: 2
Fore
SplineSet
473 902 m 256
 569 902 673 856 797 801 c 256
 923 745 1068 680 1246 646 c 257
 1246 457 l 257
 1074 343 l 257
 1139 254 1199 225 1334 225 c 258
 1381 225 l 257
 1381 0 l 257
 1331 0 l 258
 1143 0 1009 66 925 244 c 257
 820 172 l 258
 638 51 449 0 221 0 c 258
 0 0 l 258
 -24 0 -35 27 -35 113 c 256
 -35 199 -24 225 0 225 c 258
 261 225 l 258
 438 225 572 258 719 349 c 258
 982 515 l 257
 860 538 764 580 683 617 c 256
 606 651 544 679 483 679 c 256
 384 679 330 607 305 488 c 258
 298 453 l 257
 118 486 l 257
 125 529 l 258
 168 756 265 902 473 902 c 256
EndSplineSet
EndChar

StartChar: uniE048
Encoding: 57416 57416 1726
GlifName: uniE_048
Width: 1297
VWidth: 0
GlyphClass: 2
Flags: HW
LayerCount: 2
Fore
SplineSet
740 1049 m 257
 1008 424 l 258
 1074 270 1147 225 1283 225 c 258
 1297 225 l 257
 1297 0 l 257
 1280 0 l 258
 1112 0 977 56 895 202 c 257
 812 59 649 -10 478 -10 c 256
 337 -10 190 38 76 136 c 257
 178 315 l 257
 270 246 376 216 474 216 c 256
 601 216 713 265 787 366 c 257
 531 949 l 257
 740 1049 l 257
EndSplineSet
EndChar

StartChar: uniE049
Encoding: 57417 57417 1727
GlifName: uniE_049
Width: 941
VWidth: 0
GlyphClass: 2
Flags: HW
LayerCount: 2
Fore
SplineSet
365 626 m 257
 579 698 l 257
 640 490 l 258
 701 275 757 225 940 225 c 258
 941 225 l 257
 941 0 l 257
 940 0 l 258
 823 0 728 36 675 103 c 257
 667 -228 481 -428 59 -587 c 257
 -38 -383 l 257
 323 -250 463 -113 463 133 c 256
 463 255 430 419 365 626 c 257
EndSplineSet
EndChar

StartChar: uniE04A
Encoding: 57418 57418 1728
GlifName: uniE_04A_
Width: 2766
VWidth: 0
GlyphClass: 2
Flags: HW
LayerCount: 2
Fore
SplineSet
179 635 m 257
 384 574 l 257
 345 439 306 267 306 124 c 256
 306 -155 438 -287 755 -287 c 256
 1085 -287 1198 -148 1198 88 c 256
 1198 231 1148 421 1095 588 c 257
 1316 673 l 257
 1381 441 l 257
 1415 296 1463 225 1579 225 c 256
 1678 225 1729 283 1741 415 c 258
 1757 622 l 257
 1956 607 l 257
 1943 420 l 258
 1932 286 1989 225 2096 225 c 256
 2199 225 2245 281 2245 401 c 256
 2245 458 2233 548 2210 676 c 257
 2428 722 l 257
 2453 546 l 258
 2490 293 2563 225 2765 225 c 258
 2766 225 l 257
 2766 0 l 257
 2765 0 l 258
 2562 0 2432 79 2399 218 c 257
 2377 76 2276 0 2124 0 c 256
 1970 0 1882 65 1846 182 c 257
 1815 64 1713 0 1593 0 c 256
 1506 0 1448 34 1410 89 c 257
 1409 -319 1163 -512 757 -512 c 256
 295 -512 86 -297 86 97 c 256
 86 263 123 464 179 635 c 257
EndSplineSet
EndChar

StartChar: uniE04B
Encoding: 57419 57419 1729
GlifName: uniE_04B_
Width: 1673
VWidth: 0
GlyphClass: 2
Flags: HW
LayerCount: 2
Fore
SplineSet
689 225 m 256
 791 222 845 280 857 415 c 258
 874 622 l 257
 1073 607 l 257
 1060 420 l 258
 1049 286 1106 225 1217 225 c 256
 1317 225 1365 283 1365 403 c 256
 1365 465 1351 587 1332 691 c 257
 1551 744 l 257
 1573 642 1587 505 1587 406 c 256
 1587 135 1476 0 1252 0 c 256
 1098 0 999 65 963 182 c 257
 923 60 829 0 683 0 c 256
 530 0 434 69 403 199 c 257
 354 78 214 0 46 0 c 258
 0 0 l 258
 -25 0 -35 35 -35 115 c 256
 -35 193 -25 225 0 225 c 258
 46 225 l 258
 219 225 298 298 316 486 c 258
 333 672 l 257
 559 655 l 257
 539 437 l 258
 525 301 577 228 689 225 c 256
EndSplineSet
EndChar

StartChar: uniE04C
Encoding: 57420 57420 1730
GlifName: uniE_04C_
Width: 1883
VWidth: 0
GlyphClass: 2
Flags: HW
LayerCount: 2
Fore
SplineSet
1213 225 m 256
 1316 225 1362 281 1362 401 c 256
 1362 458 1350 548 1327 676 c 257
 1545 722 l 257
 1570 546 l 258
 1607 293 1680 225 1882 225 c 258
 1883 225 l 257
 1883 0 l 257
 1882 0 l 258
 1679 0 1549 79 1516 218 c 257
 1494 76 1393 0 1241 0 c 256
 1094 0 999 67 963 182 c 257
 923 60 829 0 684 0 c 256
 531 0 434 69 403 199 c 257
 354 78 214 0 46 0 c 258
 0 0 l 258
 -25 0 -35 35 -35 115 c 256
 -35 193 -25 225 0 225 c 258
 46 225 l 258
 219 225 298 298 316 486 c 258
 333 672 l 257
 559 655 l 257
 539 437 l 258
 525 301 577 228 689 225 c 256
 791 222 845 280 857 415 c 258
 874 622 l 257
 1073 607 l 257
 1060 420 l 258
 1049 286 1106 225 1213 225 c 256
EndSplineSet
EndChar

StartChar: uniE04D
Encoding: 57421 57421 1731
GlifName: uniE_04D_
Width: 2550
VWidth: 0
GlyphClass: 2
Flags: HW
LayerCount: 2
Fore
SplineSet
1986 597 m 256
 1874 597 1731 510 1558 260 c 257
 1621 234 1704 225 1797 225 c 256
 1987 225 2162 268 2162 428 c 256
 2162 526 2094 597 1986 597 c 256
2023 818 m 256
 2262 818 2408 647 2408 426 c 256
 2408 361 2392 308 2364 265 c 257
 2407 238 2474 225 2550 225 c 258
 2551 225 l 257
 2551 0 l 257
 2550 0 l 258
 2412 0 2310 40 2248 106 c 257
 2134 28 1965 0 1777 0 c 256
 1633 0 1513 20 1419 55 c 257
 1400 -330 1155 -502 755 -502 c 256
 295 -502 86 -287 86 104 c 256
 86 274 123 474 179 645 c 257
 384 584 l 257
 345 449 306 277 306 124 c 256
 306 -145 438 -277 755 -277 c 256
 1084 -277 1198 -138 1198 99 c 256
 1198 240 1152 412 1095 592 c 257
 1315 691 l 257
 1346 592 1376 460 1395 344 c 257
 1609 657 1804 818 2023 818 c 256
EndSplineSet
EndChar

StartChar: uniE04E
Encoding: 57422 57422 1732
GlifName: uniE_04E_
Width: 1689
VWidth: 0
GlyphClass: 2
Flags: HW
LayerCount: 2
Fore
SplineSet
1181 597 m 256
 1069 597 927 510 754 260 c 257
 817 234 900 225 993 225 c 256
 1183 225 1358 268 1358 428 c 256
 1358 526 1289 597 1181 597 c 256
306 665 m 257
 531 665 l 257
 532 501 l 258
 535 394 560 364 602 337 c 257
 792 660 1005 818 1219 818 c 256
 1458 818 1603 647 1603 426 c 256
 1603 103 1323 0 972 0 c 256
 696 0 499 71 417 205 c 257
 374 75 215 0 45 0 c 258
 0 0 l 258
 -24 0 -35 25 -35 113 c 256
 -35 201 -24 225 0 225 c 258
 45 225 l 258
 266 225 306 309 306 505 c 258
 306 665 l 257
EndSplineSet
EndChar

StartChar: uniE04F
Encoding: 57423 57423 1733
GlifName: uniE_04F_
Width: 1746
VWidth: 0
GlyphClass: 2
Flags: HW
LayerCount: 2
Fore
SplineSet
306 665 m 257
 531 665 l 257
 532 501 l 258
 535 394 560 364 602 337 c 257
 792 660 1005 818 1219 818 c 256
 1458 818 1603 647 1603 426 c 256
 1603 361 1587 308 1559 265 c 257
 1606 238 1666 225 1745 225 c 258
 1746 225 l 257
 1746 0 l 257
 1745 0 l 258
 1619 0 1511 33 1444 106 c 257
 1330 28 1160 0 972 0 c 256
 696 0 499 71 417 205 c 257
 374 75 215 0 45 0 c 258
 0 0 l 258
 -24 0 -35 25 -35 113 c 256
 -35 201 -24 225 0 225 c 258
 45 225 l 258
 266 225 306 309 306 505 c 258
 306 665 l 257
1181 597 m 256
 1069 597 927 510 754 260 c 257
 817 234 900 225 993 225 c 256
 1183 225 1358 268 1358 428 c 256
 1358 526 1289 597 1181 597 c 256
EndSplineSet
EndChar

StartChar: uniE050
Encoding: 57424 57424 1734
GlifName: uniE_050
Width: 1678
VWidth: 0
GlyphClass: 2
Flags: HW
LayerCount: 2
Fore
SplineSet
643 225 m 257
 914 225 l 258
 1112 225 1275 259 1275 420 c 256
 1275 523 1208 597 1099 597 c 256
 985 597 828 507 643 225 c 257
379 225 m 257
 393 247 408 268 421 289 c 257
 421 1401 l 257
 646 1401 l 257
 646 748 l 258
 646 659 642 576 626 493 c 257
 785 707 961 818 1137 818 c 256
 1376 818 1521 643 1521 426 c 256
 1521 369 1508 320 1488 279 c 257
 1534 245 1594 225 1677 225 c 258
 1678 225 l 257
 1678 0 l 257
 1677 0 l 258
 1532 0 1448 49 1384 123 c 257
 1266 27 1077 0 867 0 c 258
 86 0 l 257
 86 225 l 257
 379 225 l 257
EndSplineSet
EndChar

StartChar: uniE051
Encoding: 57425 57425 1735
GlifName: uniE_051
Width: 1367
VWidth: 0
GlyphClass: 2
Flags: HW
LayerCount: 2
Fore
SplineSet
2 0 m 258
 -22 0 -32 25 -32 113 c 256
 -32 201 -22 225 2 225 c 258
 139 225 l 257
 153 247 168 268 181 289 c 257
 181 1401 l 257
 406 1401 l 257
 406 748 l 258
 406 659 402 576 386 493 c 257
 545 707 721 818 897 818 c 256
 1136 818 1281 643 1281 426 c 256
 1281 199 1157 0 627 0 c 258
 2 0 l 258
403 225 m 257
 674 225 l 258
 872 225 1035 259 1035 420 c 256
 1035 523 968 597 859 597 c 256
 745 597 588 507 403 225 c 257
EndSplineSet
EndChar

StartChar: uniE052
Encoding: 57426 57426 1736
GlifName: uniE_052
Width: 1439
VWidth: 0
GlyphClass: 2
Flags: HW
LayerCount: 2
Fore
SplineSet
2 0 m 258
 -22 0 -32 25 -32 113 c 256
 -32 201 -22 225 2 225 c 258
 139 225 l 257
 153 247 168 268 181 289 c 257
 181 1401 l 257
 406 1401 l 257
 406 748 l 258
 406 659 402 576 386 493 c 257
 545 707 722 818 898 818 c 256
 1137 818 1282 643 1282 426 c 256
 1282 369 1269 320 1249 279 c 257
 1295 245 1355 225 1438 225 c 258
 1439 225 l 257
 1439 0 l 257
 1438 0 l 258
 1293 0 1208 49 1144 123 c 257
 1026 27 838 0 628 0 c 258
 2 0 l 258
403 225 m 257
 675 225 l 258
 873 225 1036 259 1036 420 c 256
 1036 523 968 597 859 597 c 256
 745 597 588 507 403 225 c 257
EndSplineSet
EndChar

StartChar: uniE053
Encoding: 57427 57427 1737
GlifName: uniE_053
Width: 1253
VWidth: 0
GlyphClass: 2
Flags: HW
LayerCount: 2
Fore
SplineSet
929 550 m 256
 929 633 833 677 715 677 c 256
 618 677 526 653 449 604 c 257
 449 597 l 257
 719 333 l 257
 837 398 929 480 929 550 c 256
1135 564 m 256
 1135 442 1035 334 915 258 c 257
 978 225 1068 225 1142 225 c 258
 1254 225 l 257
 1254 0 l 257
 1114 0 l 258
 959 0 817 31 705 110 c 257
 449 2 311 -137 311 -302 c 256
 311 -506 540 -576 784 -576 c 256
 926 -576 1066 -553 1166 -518 c 257
 1238 -724 l 257
 1105 -772 939 -802 777 -802 c 256
 419 -802 86 -667 86 -303 c 256
 86 -46 277 133 525 251 c 257
 209 557 l 257
 213 705 l 257
 354 831 530 890 718 890 c 256
 912 890 1135 790 1135 564 c 256
EndSplineSet
EndChar

StartChar: uniE054
Encoding: 57428 57428 1738
GlifName: uniE_054
Width: 1122
VWidth: 0
GlyphClass: 2
Flags: HW
LayerCount: 2
Fore
SplineSet
335 500 m 256
 335 372 434 292 553 292 c 256
 578 292 626 298 670 307 c 258
 995 369 l 257
 1036 147 l 257
 499 44 l 258
 348 16 186 0 44 0 c 258
 0 0 l 258
 -26 0 -35 35 -35 113 c 256
 -35 191 -26 225 0 225 c 258
 35 225 l 258
 100 225 160 229 240 240 c 257
 164 293 110 379 110 496 c 256
 110 782 326 979 583 979 c 256
 737 979 846 923 955 810 c 257
 832 647 l 257
 761 716 684 753 589 753 c 256
 453 753 335 661 335 500 c 256
EndSplineSet
EndChar

StartChar: uniE055
Encoding: 57429 57429 1739
GlifName: uniE_055
Width: 1184
VWidth: 0
GlyphClass: 2
Flags: HW
LayerCount: 2
Fore
SplineSet
635 677 m 256
 540 677 446 654 371 604 c 257
 371 597 l 257
 642 333 l 257
 760 399 851 479 851 551 c 256
 851 631 759 677 635 677 c 256
641 890 m 256
 839 890 1060 791 1060 566 c 256
 1060 442 957 335 838 258 c 257
 901 225 977 225 1053 225 c 258
 1185 225 l 257
 1185 0 l 257
 1026 0 l 258
 867 0 755 23 637 110 c 257
 499 40 338 0 144 0 c 258
 0 0 l 258
 -23 0 -35 25 -35 113 c 256
 -35 201 -23 225 0 225 c 258
 134 225 l 258
 252 225 344 241 433 264 c 257
 131 557 l 257
 135 705 l 257
 275 830 454 890 641 890 c 256
EndSplineSet
EndChar

StartChar: uniE056
Encoding: 57430 57430 1740
GlifName: uniE_056
Width: 1843
VWidth: 0
GlyphClass: 2
Flags: HW
LayerCount: 2
Fore
SplineSet
1540 594 m 258
 1540 302 1605 225 1843 225 c 258
 1844 225 l 257
 1844 0 l 257
 1843 0 l 258
 1620 0 1474 85 1428 239 c 257
 1354 70 1170 0 794 0 c 256
 288 0 86 129 86 450 c 256
 86 535 100 643 125 742 c 257
 329 697 l 257
 309 606 298 519 298 460 c 256
 298 283 408 225 787 225 c 256
 1208 225 1315 302 1315 594 c 258
 1315 1397 l 257
 1540 1397 l 257
 1540 594 l 258
EndSplineSet
EndChar

StartChar: uniE057
Encoding: 57431 57431 1741
GlifName: uniE_057
Width: 892
VWidth: 0
GlyphClass: 2
Flags: HW
LayerCount: 2
Fore
SplineSet
904 1520 m 257
 952 1300 l 257
 701 1228 493 1148 289 1043 c 257
 289 1033 l 257
 598 793 740 598 740 399 c 256
 740 147 516 0 131 0 c 258
 0 0 l 258
 -25 0 -35 33 -35 113 c 256
 -35 193 -25 225 0 225 c 258
 127 225 l 258
 382 225 516 289 516 414 c 256
 516 547 362 717 33 952 c 257
 33 1148 l 257
 318 1319 603 1441 904 1520 c 257
EndSplineSet
EndChar

StartChar: uniE058
Encoding: 57432 57432 1742
GlifName: uniE_058
Width: 1140
VWidth: 0
GlyphClass: 2
Flags: HW
LayerCount: 2
Fore
SplineSet
904 1520 m 257
 952 1300 l 257
 701 1228 493 1148 289 1043 c 257
 289 1033 l 257
 518 854 649 707 747 506 c 256
 851 294 946 225 1140 225 c 258
 1141 225 l 257
 1141 0 l 257
 1140 0 l 258
 922 0 763 90 662 284 c 257
 624 97 440 0 141 0 c 258
 0 0 l 258
 -25 0 -35 33 -35 113 c 256
 -35 193 -25 225 0 225 c 258
 137 225 l 258
 382 225 516 291 516 415 c 256
 516 550 356 721 33 952 c 257
 33 1148 l 257
 318 1319 603 1441 904 1520 c 257
EndSplineSet
EndChar

StartChar: uniE059
Encoding: 57433 57433 1743
GlifName: uniE_059
Width: 1572
VWidth: 0
GlyphClass: 2
Flags: HW
LayerCount: 2
Fore
SplineSet
1573 225 m 257
 1573 0 l 257
 1546 0 l 258
 1428 0 1324 44 1276 129 c 257
 1276 32 l 258
 1275 -331 1042 -548 656 -548 c 256
 281 -548 86 -342 86 -31 c 256
 86 106 118 266 182 427 c 257
 381 355 l 257
 334 226 307 97 307 -4 c 256
 307 -204 423 -322 672 -322 c 256
 936 -322 1056 -192 1056 79 c 258
 1056 1401 l 257
 1281 1401 l 257
 1281 494 l 258
 1281 314 1338 225 1546 225 c 258
 1573 225 l 257
EndSplineSet
EndChar

StartChar: uniE05A
Encoding: 57434 57434 1744
GlifName: uniE_05A_
Width: 613
VWidth: 0
GlyphClass: 2
Flags: HW
LayerCount: 2
Fore
SplineSet
0 225 m 256
 206 225 244 289 244 467 c 258
 244 1401 l 257
 469 1401 l 257
 469 467 l 258
 469 163 318 0 0 0 c 256
 -23 0 -35 27 -35 113 c 256
 -35 199 -23 225 0 225 c 256
EndSplineSet
EndChar

StartChar: uniE05B
Encoding: 57435 57435 1745
GlifName: uniE_05B_
Width: 714
VWidth: 0
GlyphClass: 2
Flags: HW
LayerCount: 2
Fore
SplineSet
468 487 m 258
 468 317 505 225 713 225 c 258
 714 225 l 257
 714 0 l 257
 713 0 l 258
 534 0 389 76 355 207 c 257
 320 75 181 0 0 0 c 256
 -23 0 -35 27 -35 113 c 256
 -35 199 -23 225 0 225 c 256
 218 225 244 303 244 475 c 258
 244 1401 l 257
 468 1401 l 257
 468 487 l 258
EndSplineSet
EndChar

StartChar: uniE05C
Encoding: 57436 57436 1746
GlifName: uniE_05C_
Width: 1488
VWidth: 0
GlyphClass: 2
Flags: HW
LayerCount: 2
Fore
SplineSet
820 599 m 256
 682 599 625 414 597 275 c 257
 622 269 656 260 682 253 c 256
 766 230 833 215 890 215 c 256
 965 215 996 257 996 353 c 256
 996 465 953 599 820 599 c 256
824 820 m 256
 1029 820 1111 682 1179 526 c 256
 1242 380 1313 225 1487 225 c 258
 1488 225 l 257
 1488 0 l 257
 1487 0 l 258
 1325 0 1231 80 1165 227 c 257
 1143 89 1061 -11 915 -11 c 256
 818 -11 709 14 603 40 c 256
 525 60 452 75 407 75 c 256
 339 75 313 38 313 -46 c 258
 313 -744 l 257
 86 -744 l 257
 86 -25 l 258
 86 181 197 329 399 311 c 257
 444 566 569 820 824 820 c 256
EndSplineSet
EndChar

StartChar: uniE05D
Encoding: 57437 57437 1747
GlifName: uniE_05D_
Width: 1153
VWidth: 0
GlyphClass: 2
Flags: HW
LayerCount: 2
Fore
SplineSet
0 225 m 256
 162 225 231 362 301 504 c 256
 382 666 462 824 667 824 c 256
 892 824 1043 598 1043 369 c 256
 1043 140 908 -10 685 -10 c 256
 544 -10 411 58 324 166 c 257
 249 67 153 0 0 0 c 256
 -24 0 -35 25 -35 113 c 256
 -35 201 -24 225 0 225 c 256
438 340 m 257
 514 258 598 214 686 214 c 256
 770 214 838 269 838 369 c 256
 838 489 757 601 664 601 c 256
 576 601 522 534 464 398 c 258
 438 340 l 257
EndSplineSet
EndChar

StartChar: uniE05E
Encoding: 57438 57438 1748
GlifName: uniE_05E_
Width: 1327
VWidth: 0
GlyphClass: 2
Flags: HW
LayerCount: 2
Fore
SplineSet
438 340 m 257
 514 258 598 214 686 214 c 256
 770 214 838 269 838 369 c 256
 838 489 757 601 664 601 c 256
 576 601 522 534 464 398 c 258
 438 340 l 257
0 225 m 256
 161 225 231 364 302 506 c 256
 383 667 465 824 662 824 c 256
 869 824 955 664 1026 507 c 256
 1092 361 1159 225 1326 225 c 258
 1327 225 l 257
 1327 0 l 257
 1326 0 l 258
 1169 0 1043 83 996 235 c 257
 969 81 844 -11 685 -11 c 256
 544 -11 411 58 324 166 c 257
 249 67 153 0 0 0 c 256
 -24 0 -35 25 -35 113 c 256
 -35 201 -24 225 0 225 c 256
EndSplineSet
EndChar

StartChar: uniE05F
Encoding: 57439 57439 1749
GlifName: uniE_05F_
Width: 1193
VWidth: 0
GlyphClass: 2
Flags: HW
LayerCount: 2
Fore
SplineSet
680 902 m 257
 669 1072 l 257
 895 1086 l 257
 931 451 l 258
 941 292 1001 225 1192 225 c 258
 1193 225 l 257
 1193 0 l 257
 1192 0 l 258
 972 0 846 57 777 169 c 257
 708 144 632 132 559 132 c 256
 335 132 150 229 150 434 c 256
 150 692 378 851 680 902 c 257
694 695 m 257
 460 673 361 570 361 469 c 256
 361 391 434 339 576 339 c 256
 623 339 682 345 724 357 c 257
 717 381 712 405 710 439 c 258
 694 695 l 257
EndSplineSet
EndChar

StartChar: uniE060
Encoding: 57440 57440 1750
GlifName: uniE_060
Width: 1398
VWidth: 0
GlyphClass: 2
Flags: HW
LayerCount: 2
Fore
SplineSet
0 225 m 258
 64 225 l 258
 154 225 207 235 268 254 c 257
 190 322 111 415 111 532 c 256
 111 660 181 789 296 854 c 257
 159 913 l 257
 247 1120 l 257
 801 883 l 258
 1158 729 1312 585 1312 351 c 256
 1312 142 1162 -11 908 -11 c 256
 756 -11 616 34 489 94 c 257
 377 36 240 0 80 0 c 258
 0 0 l 258
 -23 0 -35 26 -35 113 c 256
 -35 200 -23 225 0 225 c 258
493 305 m 257
 605 360 667 444 667 541 c 256
 667 656 616 740 505 740 c 256
 397 740 321 639 321 528 c 256
 321 427 406 352 493 305 c 257
695 255 m 257
 765 231 844 216 912 216 c 256
 1017 216 1093 255 1093 363 c 256
 1093 467 1019 544 824 629 c 257
 875 473 814 338 695 255 c 257
EndSplineSet
EndChar

StartChar: uniE061
Encoding: 57441 57441 1751
GlifName: uniE_061
Width: 1079
VWidth: 0
GlyphClass: 2
Flags: HW
LayerCount: 2
Fore
SplineSet
566 890 m 256
 753 890 875 755 875 550 c 256
 875 297 680 101 363 31 c 257
 389 -129 475 -243 614 -308 c 257
 638 -296 l 257
 721 65 853 225 1048 225 c 258
 1080 225 l 257
 1080 0 l 257
 1040 0 l 258
 907 0 845 -107 774 -473 c 257
 618 -548 l 257
 371 -455 212 -262 164 0 c 257
 0 0 l 258
 -24 0 -35 33 -35 113 c 256
 -35 192 -24 225 0 225 c 258
 145 225 l 257
 148 627 313 890 566 890 c 256
343 237 m 257
 553 249 688 360 688 518 c 256
 688 611 643 665 563 665 c 256
 423 665 333 490 343 237 c 257
EndSplineSet
EndChar

StartChar: uniE062
Encoding: 57442 57442 1752
GlifName: uniE_062
Width: 984
VWidth: 0
GlyphClass: 2
Flags: HW
LayerCount: 2
Fore
SplineSet
685 227 m 257
 671 417 625 608 487 608 c 256
 373 608 320 483 320 356 c 256
 320 258 379 225 494 225 c 257
 558 225 625 226 685 227 c 257
658 0 m 257
 593 0 530 0 468 0 c 257
 253 0 121 111 121 337 c 256
 121 567 238 826 491 826 c 256
 779 826 874 524 891 225 c 257
 984 225 l 257
 984 0 l 257
 883 0 l 257
 841 -277 594 -462 179 -583 c 257
 86 -377 l 257
 404 -289 610 -160 658 0 c 257
EndSplineSet
EndChar

StartChar: uniE063
Encoding: 57443 57443 1753
GlifName: uniE_063
Width: 1349
VWidth: 0
GlyphClass: 2
Flags: HW
LayerCount: 2
Fore
SplineSet
154 1343 m 257
 364 1423 l 257
 493 1118 573 785 588 454 c 257
 369 426 l 257
 354 733 276 1055 154 1343 c 257
979 1401 m 257
 1205 1401 l 257
 1205 791 l 258
 1205 153 984 0 325 0 c 258
 120 0 l 257
 120 225 l 257
 339 225 l 258
 829 225 979 276 979 762 c 258
 979 1401 l 257
EndSplineSet
EndChar

StartChar: uniE064
Encoding: 57444 57444 1754
GlifName: uniE_064
Width: 1457
VWidth: 0
GlyphClass: 2
Flags: HW
LayerCount: 2
Fore
SplineSet
163 1343 m 257
 373 1423 l 257
 503 1115 576 798 592 468 c 257
 374 442 l 257
 359 748 286 1052 163 1343 c 257
979 1401 m 257
 1205 1401 l 257
 1205 461 l 258
 1205 284 1268 225 1456 225 c 258
 1457 225 l 257
 1457 0 l 257
 1456 0 l 258
 1202 0 1061 106 1032 324 c 257
 1032 361 l 257
 862 113 581 0 120 0 c 257
 120 225 l 257
 633 225 867 339 979 637 c 257
 979 1401 l 257
EndSplineSet
EndChar

StartChar: uniE065
Encoding: 57445 57445 1755
GlifName: uniE_065
Width: 1956
VWidth: 0
GlyphClass: 2
Flags: HW
LayerCount: 2
Fore
SplineSet
1743 687 m 257
 1725 593 1713 514 1713 438 c 256
 1713 314 1757 225 1955 225 c 258
 1957 225 l 257
 1957 0 l 257
 1955 0 l 258
 1729 0 1600 85 1534 257 c 257
 1386 66 1127 0 787 0 c 256
 283 0 86 193 86 508 c 256
 86 611 107 730 146 851 c 257
 345 794 l 257
 314 695 297 606 297 533 c 256
 297 317 441 225 821 225 c 256
 1313 225 1479 375 1536 720 c 257
 1743 687 l 257
EndSplineSet
EndChar

StartChar: uniE066
Encoding: 57446 57446 1756
GlifName: uniE_066
Width: 962
VWidth: 0
GlyphClass: 2
Flags: HW
LayerCount: 2
Fore
SplineSet
645 651 m 257
 631 837 581 1016 448 1016 c 256
 333 1016 281 885 281 758 c 256
 281 660 341 628 456 628 c 256
 527 628 595 640 645 651 c 257
0 225 m 258
 131 225 l 258
 585 225 674 257 674 462 c 257
 601 442 522 430 432 430 c 256
 223 430 86 508 86 732 c 256
 86 959 191 1237 453 1237 c 256
 824 1237 876 726 876 502 c 256
 876 146 731 0 128 0 c 258
 0 0 l 258
 -24 0 -35 25 -35 113 c 256
 -35 201 -23 225 0 225 c 258
EndSplineSet
EndChar

StartChar: uniE067
Encoding: 57447 57447 1757
GlifName: uniE_067
Width: 1946
VWidth: 0
GlyphClass: 2
Flags: HW
LayerCount: 2
Fore
SplineSet
1441 77 m 257
 1287 27 1085 0 892 0 c 256
 371 0 86 109 86 454 c 256
 86 575 120 707 166 843 c 257
 364 779 l 257
 328 671 302 572 302 485 c 256
 302 272 499 225 892 225 c 256
 998 225 1128 232 1225 250 c 257
 1121 318 1048 419 1048 571 c 256
 1048 813 1218 976 1444 976 c 256
 1666 976 1840 814 1840 574 c 256
 1840 423 1762 317 1659 248 c 257
 1716 233 1778 225 1845 225 c 258
 1947 225 l 257
 1947 0 l 257
 1819 0 l 258
 1681 0 1555 26 1441 77 c 257
1442 303 m 257
 1547 355 1615 441 1615 562 c 256
 1615 669 1551 753 1444 753 c 256
 1335 753 1273 671 1273 562 c 256
 1273 443 1340 355 1442 303 c 257
EndSplineSet
EndChar

StartChar: uniE068
Encoding: 57448 57448 1758
GlifName: uniE_068
Width: 1012
VWidth: 0
GlyphClass: 2
Flags: HW
LayerCount: 2
Fore
SplineSet
110 571 m 256
 110 813 280 976 506 976 c 256
 728 976 902 814 902 574 c 256
 902 424 825 317 721 248 c 257
 778 233 840 225 907 225 c 258
 1012 225 l 257
 1012 0 l 257
 881 0 l 258
 743 0 616 26 502 77 c 257
 388 26 261 0 121 0 c 258
 0 0 l 258
 -24 0 -35 25 -35 113 c 256
 -35 201 -24 225 0 225 c 258
 99 225 l 258
 168 225 230 233 291 248 c 257
 188 316 110 419 110 571 c 256
505 303 m 257
 610 355 676 442 676 562 c 256
 676 669 613 753 506 753 c 256
 397 753 335 671 335 562 c 256
 335 443 404 355 505 303 c 257
EndSplineSet
EndChar

StartChar: uniE069
Encoding: 57449 57449 1759
GlifName: uniE_069
Width: 1557
VWidth: 0
GlyphClass: 2
Flags: HW
LayerCount: 2
Fore
SplineSet
1248 219 m 257
 1234 409 1187 598 1049 598 c 256
 935 598 883 473 883 346 c 256
 883 248 942 216 1057 216 c 256
 1121 216 1188 218 1248 219 c 257
1226 9 m 257
 1167 5 1094 0 1030 0 c 256
 816 0 684 110 684 336 c 256
 684 566 801 826 1054 826 c 256
 1324 826 1439 545 1457 225 c 257
 1557 225 l 257
 1557 0 l 257
 1447 0 l 257
 1417 -354 1141 -550 763 -550 c 256
 335 -550 86 -327 86 54 c 256
 86 189 116 344 176 515 c 257
 381 428 l 257
 338 284 311 157 311 54 c 256
 311 -201 472 -324 782 -324 c 256
 1042 -324 1212 -205 1226 9 c 257
EndSplineSet
EndChar

StartChar: uniE06E
Encoding: 57454 57454 1764
GlifName: uniE_06E_
Width: 0
VWidth: 0
GlyphClass: 2
Flags: H
LayerCount: 2
Fore
SplineSet
-65 1209 m 257
 23 1209 l 258
 111 1209 219 1225 219 1303 c 256
 219 1346 186 1381 138 1381 c 256
 77 1381 12 1315 -65 1209 c 257
-186 1209 m 257
 -186 1615 l 257
 -83 1615 l 257
 -83 1322 l 257
 -3 1425 65 1484 158 1484 c 256
 247 1484 323 1420 323 1303 c 256
 323 1152 187 1107 23 1107 c 258
 -316 1107 l 257
 -316 1209 l 257
 -186 1209 l 257
EndSplineSet
EndChar

StartChar: uniE06F
Encoding: 57455 57455 1765
GlifName: uniE_06F_
Width: 0
VWidth: 0
GlyphClass: 2
Flags: H
LayerCount: 2
Fore
SplineSet
52 1314 m 257
 86 1298 128 1284 171 1284 c 256
 238 1284 304 1310 304 1372 c 256
 304 1413 275 1440 227 1440 c 256
 173 1440 115 1402 52 1314 c 257
-51 1355 m 257
 48 1486 138 1566 237 1566 c 256
 341 1566 416 1503 416 1366 c 256
 416 1229 292 1135 160 1135 c 256
 84 1135 21 1159 -30 1183 c 256
 -71 1202 -106 1216 -139 1216 c 256
 -204 1216 -241 1163 -289 1091 c 257
 -394 1154 l 257
 -322 1293 -229 1369 -124 1369 c 256
 -98 1369 -74 1363 -51 1355 c 257
EndSplineSet
EndChar

StartChar: uniE070
Encoding: 57456 57456 1766
GlifName: uniE_070
Width: 0
VWidth: 0
GlyphClass: 2
Flags: H
LayerCount: 2
Fore
SplineSet
230 1369 m 257
 230 1218 151 1127 0 1127 c 256
 -152 1127 -230 1219 -230 1369 c 257
 -132 1369 l 257
 -132 1277 -97 1225 0 1225 c 256
 94 1225 132 1281 132 1369 c 257
 230 1369 l 257
EndSplineSet
EndChar

StartChar: uniE071
Encoding: 57457 57457 1767
GlifName: uniE_071
Width: 0
VWidth: 0
GlyphClass: 2
Flags: H
LayerCount: 2
Fore
SplineSet
230 1156 m 257
 -230 1156 l 257
 -230 1254 l 257
 230 1254 l 257
 230 1156 l 257
EndSplineSet
EndChar

StartChar: uniE072
Encoding: 57458 57458 1768
GlifName: uniE_072
Width: 0
VWidth: 0
GlyphClass: 2
Flags: H
LayerCount: 2
Fore
SplineSet
-74 1540 m 256
 -114 1540 -134 1504 -134 1459 c 256
 -134 1421 -122 1384 -93 1350 c 257
 -45 1363 20 1391 20 1448 c 256
 20 1497 -28 1540 -74 1540 c 256
-86 1641 m 256
 20 1641 117 1543 117 1445 c 256
 117 1358 46 1310 -15 1288 c 257
 34 1258 155 1205 234 1183 c 257
 206 1088 l 257
 -2 1145 -235 1264 -235 1465 c 256
 -235 1567 -176 1641 -86 1641 c 256
EndSplineSet
EndChar

StartChar: uniE073
Encoding: 57459 57459 1769
GlifName: uniE_073
Width: 0
VWidth: 0
GlyphClass: 2
Flags: H
LayerCount: 2
Fore
SplineSet
-185 1107 m 257
 -227 1196 l 257
 186 1392 l 257
 227 1303 l 257
 -185 1107 l 257
-189 1420 m 257
 -111 1498 l 257
 -33 1420 l 257
 -111 1343 l 257
 -189 1420 l 257
7 1063 m 257
 85 1141 l 257
 163 1063 l 257
 85 986 l 257
 7 1063 l 257
EndSplineSet
EndChar

StartChar: uniE075
Encoding: 57461 57461 1770
GlifName: uniE_075
Width: 2158
VWidth: 0
GlyphClass: 2
Flags: HW
LayerCount: 2
Fore
SplineSet
1089 1347 m 257
 1206 1157 l 257
 878 969 716 849 656 744 c 257
 1434 744 l 258
 1821 744 2072 700 2072 452 c 256
 2072 152 1727 0 1320 0 c 258
 86 0 l 257
 86 225 l 257
 1379 225 l 258
 1661 225 1837 312 1837 418 c 256
 1837 492 1753 519 1488 519 c 258
 459 519 l 257
 370 616 l 257
 393 869 555 1037 1089 1347 c 257
EndSplineSet
EndChar

StartChar: uniE076
Encoding: 57462 57462 1771
GlifName: uniE_076
Width: 1931
VWidth: 0
GlyphClass: 2
Flags: HW
LayerCount: 2
Fore
SplineSet
733 403 m 257
 584 309 l 257
 484 279 276 212 154 159 c 257
 88 338 l 257
 277 410 425 465 547 465 c 256
 616 465 678 447 733 403 c 257
EndSplineSet
Refer: 1716 57406 N 1 0 0 1 382 0 2
EndChar

StartChar: uniE077
Encoding: 57463 57463 1772
GlifName: uniE_077
Width: 1723
VWidth: 0
GlyphClass: 2
Flags: HW
LayerCount: 2
Fore
SplineSet
1291 810 m 257
 1253 962 1227 1053 1156 1053 c 256
 1104 1053 1074 994 1050 945 c 256
 941 722 801 564 564 506 c 256
 398 465 310 413 310 321 c 256
 310 246 378 225 530 225 c 258
 1637 225 l 257
 1637 0 l 257
 479 0 l 258
 263 0 86 85 86 305 c 256
 86 567 312 671 519 726 c 256
 683 770 771 875 849 1031 c 256
 907 1149 988 1296 1157 1296 c 256
 1393 1296 1443 1087 1492 859 c 257
 1291 810 l 257
EndSplineSet
EndChar

StartChar: uniE078
Encoding: 57464 57464 1773
GlifName: uniE_078
Width: 1492
VWidth: 0
GlyphClass: 2
Flags: HW
LayerCount: 2
Fore
SplineSet
1043 1209 m 257
 1062 1205 1086 1202 1112 1202 c 256
 1188 1202 1282 1207 1282 1281 c 256
 1282 1320 1259 1344 1217 1344 c 256
 1161 1344 1102 1288 1043 1209 c 257
964 1240 m 257
 1037 1359 1124 1436 1222 1436 c 256
 1315 1436 1382 1376 1382 1281 c 256
 1382 1138 1251 1104 1122 1104 c 256
 1015 1104 943 1124 895 1175 c 257
 861 1126 815 1104 740 1104 c 256
 672 1104 620 1123 587 1165 c 257
 557 1124 512 1104 449 1104 c 258
 417 1104 l 258
 325 1104 212 1073 212 994 c 256
 212 965 241 960 277 960 c 258
 874 960 l 257
 874 862 l 257
 273 862 l 258
 184 862 110 897 110 988 c 256
 110 1128 259 1202 417 1202 c 258
 449 1202 l 258
 528 1202 536 1234 536 1311 c 258
 536 1628 l 257
 636 1628 l 257
 636 1314 l 258
 636 1230 645 1202 740 1202 c 256
 831 1202 844 1229 844 1323 c 258
 844 1386 l 257
 944 1386 l 257
 944 1326 l 258
 944 1271 949 1256 964 1240 c 257
EndSplineSet
EndChar

StartChar: uniE079
Encoding: 57465 57465 1774
GlifName: uniE_079
Width: 1186
VWidth: 0
GlyphClass: 2
Flags: HW
LayerCount: 2
Fore
SplineSet
840 1403 m 256
 840 1366 863 1356 904 1356 c 256
 933 1356 956 1360 980 1366 c 257
 975 1420 961 1511 904 1511 c 256
 859 1511 840 1451 840 1403 c 256
986 1278 m 257
 956 1271 925 1267 894 1267 c 256
 808 1267 747 1305 747 1396 c 256
 747 1501 792 1606 904 1606 c 256
 1045 1606 1084 1448 1084 1312 c 256
 1084 1135 964 1104 791 1104 c 258
 734 1104 l 258
 669 1104 620 1123 587 1165 c 257
 557 1124 512 1104 449 1104 c 258
 417 1104 l 258
 325 1104 212 1073 212 994 c 256
 212 965 241 960 277 960 c 258
 874 960 l 257
 874 862 l 257
 273 862 l 258
 184 862 110 897 110 988 c 256
 110 1128 259 1202 417 1202 c 258
 449 1202 l 258
 528 1202 536 1234 536 1311 c 258
 536 1628 l 257
 636 1628 l 257
 636 1314 l 258
 636 1230 642 1202 734 1202 c 258
 819 1202 l 258
 927 1202 971 1212 986 1278 c 257
1036 1718 m 257
 974 1656 l 257
 913 1718 l 257
 974 1779 l 257
 1036 1718 l 257
904 1718 m 257
 842 1656 l 257
 780 1718 l 257
 842 1779 l 257
 904 1718 l 257
EndSplineSet
EndChar

StartChar: uniE07A
Encoding: 57466 57466 1775
GlifName: uniE_07A_
Width: 0
VWidth: 0
GlyphClass: 2
Flags: H
LayerCount: 2
Fore
SplineSet
-143 1444 m 257
 143 1444 l 257
 143 1331 l 257
 -143 1331 l 257
 -143 1444 l 257
EndSplineSet
EndChar

StartChar: uniE07B
Encoding: 57467 57467 1776
GlifName: uniE_07B_
Width: 0
VWidth: 0
GlyphClass: 2
Flags: H
LayerCount: 2
Fore
SplineSet
-137 1299 m 257
 -223 1656 l 257
 -117 1685 l 257
 -32 1324 l 257
 -137 1299 l 257
233 1681 m 257
 233 1405 l 258
 233 1153 127 1098 -109 1098 c 258
 -235 1098 l 257
 -235 1209 l 257
 -101 1209 l 258
 78 1209 121 1235 121 1395 c 258
 121 1681 l 257
 233 1681 l 257
EndSplineSet
EndChar

StartChar: uniE07C
Encoding: 57468 57468 1777
GlifName: uniE_07C_
Width: 0
VWidth: 0
GlyphClass: 2
Flags: H
LayerCount: 2
Fore
SplineSet
27 1195 m 257
 90 1132 l 257
 27 1068 l 257
 -37 1132 l 257
 27 1195 l 257
84 1380 m 257
 -12 1420 l 258
 -43 1433 -66 1438 -84 1438 c 256
 -126 1438 -145 1406 -156 1347 c 257
 -237 1362 l 257
 -219 1474 -177 1538 -92 1538 c 256
 -60 1538 -27 1529 39 1502 c 258
 230 1423 l 257
 227 1328 l 257
 -22 1272 -149 1192 -149 1093 c 256
 -149 1022 -80 986 26 986 c 256
 93 986 167 1001 220 1023 c 257
 256 928 l 257
 190 897 109 878 27 878 c 256
 -134 878 -249 950 -249 1082 c 256
 -249 1214 -137 1310 84 1380 c 257
EndSplineSet
EndChar

